<svg xmlns="http://www.w3.org/2000/svg" xmlns:xlink="http://www.w3.org/1999/xlink" width="300" height="300" viewBox="-3887.5450742983912 -4940.676408813864 7776.245884461962 9882.627623184719" preserveAspectRatio="xMinYMin meet"><g transform="matrix(1,0,0,-1,0,1.2748055569909411)"><g><path fill-rule="evenodd" fill="#66cc99" stroke="#555555" stroke-width="65.88418415456479" opacity="0.6" d="M -1168.3249817856245,-3615.169244019892 L -1163.950934338275,-3612.143652517808 L -1170.7982756202177,-3601.0926297602787 L -1172.1485300810682,-3598.432885877966 L -1176.7181049625547,-3591.710912730234 L -1192.0971458112394,-3566.7820819015237 L -1188.7534388099568,-3564.1679732844837 L -1224.1283863856866,-3508.0888841785822 L -1244.1581848496926,-3476.4823541983 L -1217.2494868675958,-3445.45502575053 L -1112.0119981342684,-3378.8607050509745 L -1091.337582120336,-3366.6364148695798 L -795.4091670620456,-3178.6971907309153 L -681.2183402074171,-3107.521775500972 L -654.8436052629926,-3151.5227020945513 L -646.0450727714655,-3165.9782277736203 L -624.2607602477406,-3154.1527063768626 L -622.2009157585356,-3157.4132661704666 L -614.0206484285826,-3152.2734759818773 L -613.3795043185553,-3153.29726755578 L -610.0159999674229,-3151.3504061108883 L -607.0277263729466,-3149.537023905289 L -609.6810664167987,-3146.0538510908555 L -612.8870554926336,-3143.126973450139 L -617.3006867899984,-3141.39056437738 L -623.8838528381289,-3140.7332261756583 L -628.3452067602052,-3138.79650972528 L -631.5512967527836,-3136.782058806773 L -633.9726400719516,-3133.1097383733786 L -635.7118854722193,-3130.260925062921 L -611.3555020989918,-3115.4980682867863 L -561.9948280456048,-3083.6909697178394 L -560.4120091706844,-3082.5561645323796 L -559.313511989866,-3081.0986121876394 L -567.2674181561554,-3076.991729531963 L -571.8721286096555,-3076.1900325031265 L -581.5379733958974,-3069.1453198423455 L -691.6310216401558,-3075.596091911387 L -742.295384825779,-3106.9899891633627 L -749.6156936975583,-3109.1809622975493 L -756.5669795523462,-3107.1769874876345 L -781.4473544085516,-3068.116274354839 L -799.1875608842515,-3045.847697862673 L -822.4260221719745,-3023.567016883155 L -861.0248008166188,-2988.5205512116727 L -865.6001863102995,-2976.8360796355023 L -863.5855566979839,-2964.2514486152604 L -856.4492197098721,-2959.868532608972 L -848.187715437812,-2957.8781706183568 L -1003.4605607249733,-2802.9235465631864 L -1005.7194984406915,-2807.85248515902 L -1007.2752428653017,-2809.9552295497833 L -1009.3834125314561,-2811.456985850983 L -1008.2376260821011,-2812.614460119203 L -1024.7409323023812,-2854.8280736077168 L -1066.1963543535678,-2983.117153363827 L -1115.6678018871123,-3072.569761865418 L -1131.4431101281343,-3085.7409014983755 L -1167.930470116746,-3129.841040972905 L -1200.1602017644377,-3168.5452024004435 L -1246.4959260924882,-3223.825291427983 L -1396.4066771129915,-3396.8814682965244 L -1514.9793153468813,-3285.0060224688336 L -1563.932895197977,-3276.6007770295773 L -1589.484581341159,-3199.647324340077 L -1592.5653285840579,-3190.8335078389287 L -1617.3988039023266,-3194.10799130956 L -1614.9794282472742,-3201.6530945023765 L -1620.1468886843522,-3211.187500398904 L -1631.578762698678,-3205.152738589308 L -1635.7598817794203,-3202.6365849894974 L -1646.3900779668481,-3186.2425351078555 L -1687.0385922310888,-3153.759344501255 L -1779.6258674535554,-3074.0998552880187 L -1715.1443316614052,-1933.1945176074166 L -1700.0544440712779,-1666.2217614201195 L -1665.2420977156162,-1050.3801186739927 L -1656.3311415650887,-892.7198056926771 L -1648.7799519836549,-762.2987272031612 L -1663.060755094512,-749.1080313771473 L -1694.0094068049286,-724.8732740783713 L -1709.7685244201082,-708.4883861818277 L -1852.5114152048247,-584.1666550973619 L -1852.8239419769109,-581.1732809025859 L -1827.2392401806067,-558.0268050324166 L -1832.6309780881,-553.5627388958304 L -1835.9230617554788,-550.2678199935066 L -1863.4928679471577,-575.872646221938 L -1870.40630037326,-574.545876659573 L -2116.3778382892965,-356.3059424350224 L -2404.135976929136,-98.45347801689198 L -2425.6935754073,-83.88834527652948 L -2456.2581817452265,-57.334478346713645 L -2471.752962474419,-66.97416215855789 L -2866.3729192111537,272.82408284798595 L -2929.0252921354827,201.6568678513517 L -2926.6976535285235,183.56239396196827 L -2989.3509703417267,114.14294976260894 L -3009.2434352470186,115.90203531014492 L -3063.6304432322504,164.96265859915155 L -3085.864588566312,171.98675035226674 L -3115.1302140122953,163.82652493386482 L -3169.122264291076,103.56172284733918 L -3178.0204515566757,-25.49881721081574 L -3184.358913872232,-117.47348340256165 L -3209.5311739281747,-139.63400274521285 L -3268.049750635186,-140.76397272715369 L -3302.018594657875,-174.5907855249035 L -3398.571182065157,-170.4415018851816 L -3439.6316593380243,-135.57329732867498 L -3495.220411919611,-129.69237880777746 L -3515.6912812444234,-115.66849386985149 L -3521.5218289952536,-88.81401905294821 L -3516.7768559390183,-3.0143277510065665 L -3453.968402655376,1112.849646509449 L -3414.619426701282,1860.3600402779043 L -3395.923625237176,2150.2825243765633 L -3352.127965795272,2908.6629723817737 L -3343.826412926445,3073.164973471291 L -3299.418840313546,3894.405303638534 L -3277.5375881885416,4263.565384745534 L -3266.992508092917,4295.0490164988805 L -3236.5675650940175,4331.771730878539 L -3199.7007702508454,4376.657985521537 L -3188.7780903650673,4571.848356174021 L -3182.345526718996,4575.927969067718 L -2896.0295462449926,4321.489638741488 L -2822.680151657144,4251.622477896254 L -2749.053056229641,4175.179951103191 L -2916.383027294788,3975.816943575397 L -2960.582839433822,3200.2621412142403 L -2966.4384406840786,3183.9306171802277 L -2993.9423346627277,3152.4566583002857 L -2999.2210999187128,3132.619689226013 L -3047.6695226301854,2329.7625513451953 L -3045.3469318924817,2305.837208981398 L -3038.9183739110726,2287.751221576039 L -2946.5546678067167,2207.344246267573 L -2936.9983718194944,2199.560496866261 L -2933.703216918,2182.8340586776317 L -2956.91548702654,1714.139876213919 L -2984.7185282677224,1246.6506593838915 L -2859.315052665609,1134.9687690352525 L -2862.2020573453783,1116.6881591072413 L -2845.667255395152,1091.052242052189 L -2848.896516196481,1070.2236533692735 L -2897.0142548848207,1008.5058519277773 L -2898.6120423640987,968.9712204631602 L -3014.6021681597285,840.9757569021841 L -3011.7388956044797,819.1866095413199 L -3001.216201162732,804.5922108289352 L -2224.8493229995393,125.07785985770298 L -2135.641099065485,48.90504673336231 L -1698.118074442848,-458.5165154606608 L -1638.3087485372287,-461.3074409940383 L -1637.2100480324339,-437.88473143181653 L -1595.627073959075,273.6739000877582 L -1576.4628607960678,574.8521556443604 L -1552.8918852159652,872.3238181834753 L -1480.8865389793498,950.1710465776175 L -1406.9080285658586,975.7201059466398 L -1401.4544287461126,977.5990803642613 L -1381.6195351072386,999.7035813659644 L -1373.4643237755101,1010.1832923893072 L -1273.1682781250572,1120.6067333627402 L -1118.3884961121214,1116.4075830876432 L -1029.8969752879914,1039.5982923040137 L -1007.9563568455153,1035.3319764558726 L -997.3958707224248,1012.0736151848847 L -810.0302420353727,843.9491861279831 L -825.1947163549055,572.1879327321051 L -815.6939492771322,518.9864085576924 L -818.132766921213,487.85243970682575 L -833.7590275311741,437.54823247920615 L -837.7594428248335,364.353101870481 L -793.5832722506545,327.33618661750353 L -605.2102899063523,155.18032042949946 L -650.3706651095443,-683.9054291198828 L -762.4339515249853,-811.0638232109673 L -848.20764241746,-811.0498290042244 L -885.4605994629727,-859.3693421382466 L -909.5274162878883,-875.8334346093775 L -911.9242838532308,-894.4379102379661 L -911.6606273493115,-906.7893096170095 L -883.734516351529,-930.4622461507644 L -884.3161338559152,-941.6562483640313 L -881.3230979385246,-944.4386192261147 L -662.6845711535572,-933.9018389016493 L -568.5276595257227,-928.9507869832223 L -564.2112239492118,-928.673098686775 L -417.37094863739725,-920.0862631557438 L -412.7135743538863,-919.719452454342 L -358.38677463146894,-916.6859313259782 L -305.0488213568941,-914.1858636960516 L -283.6372242169835,-912.1619641381048 L -233.36113764019817,-911.2966643277904 L 23.57641722042992,-897.8714216395052 L 329.5195910496833,-877.9870444104141 L 940.9566422245114,-845.1049475038632 L 1022.5324445180279,-788.572940149805 L 1101.0171490302325,-699.848857117972 L 1198.6037168660089,-551.5875966268408 L 1263.8895318635678,-468.69480902763536 L 1264.730311192673,-450.3789743686201 L 1300.722577620656,-392.7410674432935 L 1305.7688573386372,-369.97317260785996 L 1312.1967933244973,-363.88480608937994 L 1374.2190912807878,-305.160012695985 L 1438.0004052004172,-274.7864205647328 L 1477.7881555921495,-266.6071896893613 L 1606.5548331388436,-332.52990682888185 L 1776.766774318818,-475.91426116041526 L 1765.881729109149,-658.1730204637845 L 1766.1230092918406,-684.5781295727093 L 1753.94804767632,-693.3174384092572 L 1754.3912352716252,-712.4340628277221 L 1763.6658034296609,-715.7467069227699 L 1774.9477432355256,-707.5195535932817 L 1915.2903909960612,-692.578700793689 L 2051.4478974340636,-666.8531982658291 L 2173.1608516729257,-622.4363735768771 L 2201.2571414730187,-631.1811465665077 L 2279.0449262817124,-693.9931038540847 L 2737.947889049028,-672.3619910110808 L 3068.7895164417823,-961.7231898995187 L 3362.802361528009,-1218.350701187697 L 3368.723941246348,-1311.760674793375 L 3408.281781924174,-1348.2979540674453 L 3357.285544584814,-1410.1107988609288 L 3314.9299847527864,-1461.4486442988905 L 3506.189283562553,-1644.9509063873008 L 3482.9718556634302,-1670.6937334547442 L 3522.6775648604334,-1708.5318715634992 L 3406.6130237220336,-1845.401593618345 L 3443.1236233599666,-1877.4563545487565 L 3382.533246761388,-1948.546226220412 L 3382.5255981133173,-1957.2923104996587 L 3392.025183890845,-1965.4532509560524 L 3356.9348942816982,-2006.5481965000897 L 3352.934372138343,-2011.0908639528363 L 3335.702648557557,-1996.203046637854 L 3317.47072576206,-2015.1874218241937 L 3326.418051618884,-2023.6381692960917 L 3290.610594232035,-2064.6552308767896 L 3286.112471968356,-2069.8101781846417 L 3308.8114189010403,-2090.436205426735 L 3306.1131489811296,-2094.4327224680155 L 3334.2919937321803,-2119.13868733918 L 3342.808941018837,-2126.265542947781 L 3294.645276083055,-2182.7023193084615 L 3265.5918098322604,-2155.8602630259907 L 3177.4710937705922,-2212.31103152076 L 3177.654541591913,-2221.8025191839356 L 3207.496789162351,-2255.543517030361 L 3202.5711995890656,-2275.075163184052 L 3166.0133235617377,-2320.3535532877613 L 3167.659734040051,-2324.369459897576 L 3176.62167608642,-2323.262097533265 L 3183.9415524569113,-2324.904226133017 L 3196.7536077906416,-2328.634727266071 L 3201.6930627513507,-2330.367388720633 L 3209.0125964188233,-2331.4531143700788 L 3237.547655543962,-2325.9598447448925 L 3237.862686298672,-2327.8957918837696 L 3238.027073746683,-2328.9416521810303 L 3238.6434433594154,-2332.735664104992 L 3239.4242384468293,-2337.6311727259726 L 3240.300841905187,-2343.0050930799207 L 3240.8624577352707,-2346.509830253274 L 3245.473356847391,-2346.440037713514 L 3245.774720898914,-2348.331483988078 L 3241.3418580047974,-2349.458255327534 L 3241.9240038478633,-2353.0631247444203 L 3242.739063528757,-2358.1922839170807 L 3243.369118816845,-2362.041922676993 L 3221.9257365946055,-2364.60411799185 L 3214.8937174024118,-2365.187322243276 L 3218.9101631900394,-2384.4349679267793 L 3222.269778598558,-2390.0965820106294 L 3228.4898337209006,-2399.483976120533 L 3235.2359247801546,-2410.0838953641182 L 3162.311767764933,-2451.569271835829 L 3114.261143515031,-2479.240068988421 L 3134.2686339563174,-2459.6099485741397 L 3154.3712292631576,-2428.941385974113 L 3144.851930126073,-2422.7384145218302 L 3137.9013037117265,-2422.7428366100844 L 3121.817989891155,-2445.38599666804 L 3089.635186072331,-2476.429200952433 L 3080.127489548479,-2488.8420997593803 L 3060.261585342398,-2506.3354671013976 L 2847.9449843371945,-2657.226484332548 L 2726.5923751828423,-2742.3632916651304 L 2726.4797893887444,-2748.4833754920123 L 2718.024312345441,-2754.218602618018 L 2716.285482537952,-2755.3990544998583 L 2711.5509676593865,-2754.6672540294016 L 2709.05430398751,-2754.6686243822196 L 2706.449496750661,-2756.4949318900335 L 2599.600740145907,-2878.9305016863536 L 2488.049337604637,-3007.1077948726115 L 2456.6461381922863,-3139.638603697779 L 2340.112848328055,-3586.890284960612 L 2332.3823648835632,-3600.4136070246554 L 2127.582918292489,-3417.373011869417 L 2085.2550474244536,-3381.060431996224 L 2080.020411001754,-3376.5672102488256 L 1904.1776788269385,-3225.696298589362 L 1807.6098926289415,-3336.3379674915705 L 1818.0032208243924,-3344.4348271623535 L 1720.7359690417527,-3457.0223092564047 L 1769.5653834197674,-3498.1538027549313 L 1775.0482558846697,-3491.397565425605 L 1837.6511127018603,-3545.2196600283855 L 1778.3871025946946,-3612.4168433336563 L 1769.8368950552456,-3760.8246385632347 L 1702.6780741819223,-3757.198495783227 L 1702.1303916327563,-3771.61965605843 L 1688.4555216757694,-3786.323503409685 L 1604.0887499420653,-3781.7894349081084 L 1607.0279988328416,-3777.4154534713907 L 1596.1655887046584,-3776.317373952616 L 1586.5133294515854,-3931.6685952367084 L 1581.0285573172293,-3956.1392635609363 L 1575.3635882045498,-3972.0197152501228 L 1569.512790122325,-3982.970830166615 L 1561.0960991989048,-3992.8322753254633 L 1552.8636607878718,-4002.8828119560903 L 1546.4588930445314,-4009.9951586776842 L 1542.4356467402438,-4017.852282181754 L 1540.7933552014888,-4024.6070586207447 L 1529.2904168458522,-4226.3260770766 L 1529.0126607250822,-4232.813369785993 L 1538.1723051439178,-4240.744279493357 L 1526.8491353846453,-4253.37725991035 L 1523.8349808568535,-4259.39805123153 L 1520.364567890945,-4334.942245140263 L 1518.8318175585403,-4365.509360507946 L 1513.4405300177266,-4452.7822800739705 L 1509.9278189713962,-4524.8658718704255 L 1508.6357035804351,-4539.3762381393635 L 1477.9991914892837,-4572.31111623706 L 1463.798547270669,-4572.626908508687 L 1460.1141875773553,-4574.653163510727 L 1137.027756638651,-4556.645143074709 L 1129.371020347938,-4555.61206270356 L 1125.1600458488485,-4553.053749694708 L 1100.9711251806277,-4531.650316692121 L 1097.8379177290465,-4527.066575270066 L 1097.120117071751,-4521.269422572275 L 1125.2261766875338,-4034.5779901128662 L 1123.7574328613118,-4026.9116233188684 L 1118.4475841513301,-4020.8818385830145 L 973.1693643985606,-3893.015540624499 L 979.1928936491968,-3886.8053222209282 L 1067.5433738709216,-3786.5968868846303 L 1114.8616524921065,-3732.2963722193203 L 1117.3868755898848,-3675.401949653174 L 1124.5691539051875,-3666.242556411369 L 1124.8977431373846,-3641.105923411926 L 1125.4832714334693,-3635.7313066582933 L 1127.3136383627616,-3614.0883004837174 L 1131.3302790411187,-3546.1663685763024 L 1140.935223187998,-3393.1081781059556 L 1126.0212311824826,-3391.8097070932345 L 1104.0596257935124,-3389.9786612591774 L 993.1831053108458,-3460.460258091768 L 988.0579036541467,-3452.794577864564 L 986.228911570302,-3449.9129732576157 L 978.8104825691381,-3437.652166542938 L 971.8628543390445,-3425.480274217219 L 962.3946213123425,-3432.024979851382 L 936.9777443508098,-3450.289763801888 L 931.1154398031969,-3440.6212504833934 L 920.5077468921346,-3447.010308168295 L 925.8103924973199,-3455.5884637277104 L 206.30585189181522,-3903.989595338414 L 168.05371599962248,-3845.5727715512066 L 152.13599504781936,-3855.9773042481365 L 96.49947647092786,-3767.9061939039475 L 88.16882822657963,-3773.2029406674833 L 102.81124749198379,-3796.8370253506278 L 92.01751591567428,-3804.136741474484 L 88.90618354212698,-3800.0308279038404 L 79.93412284506809,-3805.6947726172934 L 75.26711752165967,-3798.0726512753213 L 72.89276147744147,-3799.5971258329423 L 46.5359415733572,-3816.0101992901036 L 55.68568430381591,-3830.6091105319565 L 46.53613416972135,-3836.4510329492123 L 136.58301773422156,-3981.760637975242 L 95.77410015380538,-4008.8676714370436 L 93.66564622399709,-4004.6727243710056 L 91.61870607784962,-4005.941273576413 L 60.69613662246342,-4025.1808306787125 L -0.8972382638497293,-3926.7937200159663 L -2.4665527654961017,-3927.650520759045 L -29.710941532876916,-3882.284472196235 L -22.99704828721293,-3878.256429007984 L -53.932148718110284,-3827.693779751126 L -56.67500053022923,-3829.329460811662 L -61.61473310434605,-3821.495788748172 L -559.5213222813578,-4132.705863638935 L -565.1290863554641,-4123.425068980394 L -567.8442195820687,-4118.461988117788 L -570.0415127730977,-4119.919409463293 L -579.1897058260715,-4103.305307273422 L -571.5061094178858,-4098.933178828271 L -611.5784208552695,-4034.3010980221447 L -640.8593925502345,-4052.735300545448 L -686.9741175523565,-3976.2401259510725 L -688.7478228839668,-3973.9476575063345 L -965.93245492356,-4149.289525025972 L -963.8998555211743,-4153.273490266908 L -919.2546136055114,-4191.9826980140915 L -946.1655748311697,-4223.37881278414 L -984.4045692062472,-4189.232831437267 L -997.9440618034895,-4164.0379414203135 L -1000.7556947088589,-4165.906756464429 L -1002.6454225431665,-4164.114880318603 L -1006.2752868844037,-4163.123813770791 L -1009.2778194091345,-4164.213675113319 L -1566.0038525521147,-4515.290080077607 L -1568.6790932910515,-4516.123777168178 L -1571.8246224339534,-4515.188085813327 L -1593.4231150475357,-4496.487336712993 L -1596.4320161358448,-4495.139964378508 L -1599.4346429444747,-4495.495065999979 L -1602.267109642996,-4497.196621816269 L -1625.2986228818238,-4520.589765723511 L -1628.0626608955902,-4521.645947018089 L -1630.3894031195382,-4520.988670134208 L -1757.7529192355275,-4410.862808501792 L -1861.081812880495,-4292.853511306817 L -1095.269080794145,-3805.618485327553 L -1149.838830081586,-3717.2442525754623 L -1142.885310241511,-3712.6169125145734 L -1132.3698949324546,-3706.2211409087517 L -1128.4461671559632,-3703.5181066330956 L -1124.7817503351002,-3700.993046883928 L -1122.8437660365962,-3699.624830744734 L -1121.0380004559581,-3679.584984815188 L -1158.324418555461,-3621.4696486592984 L -1162.841655542627,-3624.1057560669224 L -1168.3249817856245,-3615.169244019892 z M -779.2216790504905,-2884.226759565563 L -812.8817260231036,-2854.6560749808527 L -812.6058873386789,-2836.5853708929685 L -807.1821198465341,-2832.936503111031 L -836.4559831502944,-2806.860345547209 L -847.2010091856802,-2813.1120616436306 L -907.3710514108476,-2759.6902843621056 L -904.1491045327642,-2747.6622527425166 L -959.6593620707666,-2697.5677496412554 L -961.030947727736,-2700.048873345197 L -964.3605303247025,-2703.8092554605837 L -976.3786442034063,-2732.137027867489 L -978.3362715194487,-2731.4801290514074 L -981.3461578546322,-2739.6581052517013 L -795.7979449438362,-2924.204532753117 L -784.9909330031462,-2915.3489257838255 L -777.2137417094029,-2912.5238198438688 L -769.6212706779435,-2913.070247070412 L -762.3023429581102,-2918.0007795704046 L -750.9596277569294,-2929.7752087361787 L -737.5053683410512,-2917.637344102736 L -755.1237163887054,-2903.7032922485973 L -779.2216790504905,-2884.226759565563 z" /><polyline fill="none" stroke="#66cc99" stroke-width="65.88418415456479" points="3372.1278398740974,-1422.9983412196814 3357.285544584814,-1410.1107988609288" opacity="0.8" /></g></g></svg>