<svg xmlns="http://www.w3.org/2000/svg" xmlns:xlink="http://www.w3.org/1999/xlink" width="300" height="300" viewBox="-377246.58426997147 -375789.5021588188 729029.7802098496 752966.4941448667" preserveAspectRatio="xMinYMin meet"><g transform="matrix(1,0,0,-1,0,1387.489827229001)"><path fill-rule="evenodd" fill="#66cc99" stroke="#555555" stroke-width="5019.776627632445" opacity="0.6" d="M -29182.535074766838,-312957.2251613553 L -53140.268709077856,-347901.85422752745 L -56524.067416981874,-347650.87419458956 L -76982.07799146479,-345943.7031513195 L -84932.34047896756,-288498.0176316344 L -85293.88437517894,-285895.6546644848 L -86193.04140131065,-279203.9650872854 L -86091.31286988746,-276670.82203233684 L -85616.65930290481,-266043.54315193405 L -90009.31905244071,-266774.3070721405 L -90412.12607276897,-266829.18422778574 L -103079.00095495084,-268173.4787510353 L -113066.38718210263,-268927.2759276613 L -111997.16943937396,-265919.9031687272 L -112608.47162218977,-263495.1283744226 L -114094.06857178622,-259752.6648845655 L -116744.00512708204,-257962.99626919368 L -117564.93399098187,-256986.0669394779 L -121536.07451822565,-254329.25731909534 L -123244.37230298476,-251073.44933433906 L -125245.37143198722,-249263.41301475628 L -132347.1747991962,-246460.46154102948 L -135378.8057110979,-244434.72874391917 L -135773.2510818145,-244207.98206633187 L -144718.31918173228,-236855.06463025277 L -148213.89418452562,-236757.3633478937 L -154046.53642409568,-236589.14546588308 L -153883.77688174893,-229695.75821782125 L -152849.94453284965,-216207.37968537034 L -174367.94314637737,-216461.0854085247 L -176651.87384589142,-217436.34654514436 L -180433.2083885884,-219039.68972404127 L -188747.1790911885,-217446.21381375336 L -204168.4505951335,-214792.39115143765 L -204485.54409059748,-214749.15158430758 L -202166.1695164231,-196084.59879494613 L -201125.7649533869,-187675.2295390139 L -205023.87997802225,-179505.60721731023 L -207018.0533977581,-177414.30056288137 L -215249.3312589534,-175561.8545308341 L -218520.03486573033,-174805.77079803037 L -222297.76532519708,-173901.936022195 L -228380.16045518508,-173730.08559765166 L -236359.75474908357,-173093.25048008794 L -236912.11687956835,-172200.9481013615 L -236572.65699506918,-164784.9573573254 L -237889.15825649348,-160791.76934188986 L -238645.27266523562,-158372.49292413425 L -240912.26506514693,-157090.46766580013 L -244127.09836780213,-155452.87127231827 L -246978.90109961398,-152034.2165967958 L -248923.95169871527,-152745.85628528177 L -256704.63442113402,-155090.03981139502 L -257655.3104048063,-152812.56655585297 L -262686.38232021895,-143668.70068267552 L -263601.5330567365,-141949.15088830152 L -266541.4429454504,-134176.90183153615 L -271053.1317308929,-122198.62689820552 L -288622.90065220476,-131465.309402894 L -289157.9149957398,-130505.59227715782 L -306049.29943346407,-117438.5735810267 L -306174.35715591715,-116253.33130416831 L -308764.1578188343,-94336.96988904318 L -311206.80948604515,-86437.9827273832 L -332376.2581320674,-83083.82889688674 L -349358.9363386801,-80239.60212463935 L -349250.73655137094,-78665.12395089962 L -348745.7910687923,-71317.36790608524 L -348631.2225715883,-69650.21492240818 L -348605.76280710456,-69279.73504915516 L -348368.1451186253,-65822.02155905515 L -347729.50567010435,-56528.80668690197 L -347506.7210264371,-53286.93747789823 L -347322.1261731208,-50600.790168747044 L -347190.57904992666,-48686.571301609954 L -346865.94070264866,-43962.56948183224 L -346511.5828382399,-38806.10164506803 L -346430.95589665807,-37632.85202144991 L -340722.2820900474,-38859.451886910356 L -327579.2052951479,-41591.225458835725 L -324722.3190508121,-42210.035601917625 L -312139.95546759537,-44833.64909187828 L -311503.93374965346,-34547.10670012288 L -310892.7161701452,-24661.728001824904 L -299647.6865380989,-29654.219958979415 L -270299.20601433265,-42287.67976374953 L -265315.80865833076,-44721.680347193425 L -264901.35374495224,-36468.49492474349 L -264611.92032950325,-30594.97005070247 L -263955.65595401276,-16651.173882459563 L -263772.0137232616,-13158.50701391502 L -263274.7009413243,-3700.1821521915967 L -262593.7274826375,9251.160400037095 L -297272.93044818856,10234.22481156777 L -308715.15997704165,10556.44687948331 L -318575.9617633494,10834.618121661022 L -309186.0291610451,27270.558367867037 L -308422.7147934618,28525.75894260729 L -307932.9139950862,29363.85577563432 L -302035.89373151585,39639.31278126841 L -301105.9878111615,41505.47155413466 L -299979.97181243356,43173.8361607532 L -296501.79483457585,49290.77733785396 L -295868.8069291314,50369.296721999635 L -292891.9939380618,55526.005523833766 L -286300.98713957815,67357.09403362639 L -282331.8076206164,73701.67068524871 L -277217.2963284285,82836.788826028 L -270060.59471726685,95273.63737309295 L -264529.2536072386,104923.47031394702 L -258610.8177128282,115208.81910169554 L -257745.0632565334,116743.98223348222 L -250731.84867664461,128901.20004041874 L -247155.17755846973,135134.30744318932 L -242569.25973247678,143147.55783772454 L -237920.32583704338,151223.3061525424 L -228346.87937985302,167868.21484216055 L -224427.6928798086,174687.4552931104 L -222243.3017361395,178459.39190829435 L -217901.04392452736,186037.8991451536 L -201010.94338408206,215412.51203644872 L -199172.99395792207,218278.37698731056 L -190951.74260759258,232871.24000173845 L -184259.21677898793,244375.74547435474 L -159533.12650222896,287443.1613513479 L -127962.97380737057,342178.1674646503 L -123325.41817947321,342053.1651763263 L -114867.37836073956,341837.07308956864 L -109962.94118699284,341718.80461567466 L -91712.39803239079,341324.0478036312 L -73549.38372940566,341002.1425838887 L -73016.20358528079,340993.7623090725 L -72483.02248631352,340985.4430062783 L -70225.84320512664,340950.8994921998 L -68253.0505379647,340921.6032738602 L -64929.45394905391,340874.13554639235 L -61392.6511600914,340826.225265732 L -54532.012230697466,340740.9402527414 L -41592.636386471975,340607.56654544955 L -37060.206768361866,340569.3404769437 L -31994.50889827175,340531.8308074864 L -24618.040376089393,340487.052467969 L -21969.653877765297,340473.82256496354 L -11571.42630145396,340436.4254513444 L 9918.36810189613,340432.61637035676 L 15997.348588786675,340449.5088881145 L 23693.830813136585,340482.26474747807 L 26555.50720704962,340497.6837341277 L 39708.5365827074,340591.1411486577 L 40241.76298647437,340595.7125183383 L 40988.27906609147,340602.2148776202 L 41912.571160057734,340610.43132401106 L 45094.09821187505,340640.1141832391 L 45805.09465194684,340647.0443985281 L 46213.86113572591,340651.0778084618 L 51812.634486043644,340709.9295170887 L 52843.54738108773,340721.49897072907 L 56060.61436568181,340759.06824972 L 61037.113367681784,340821.5575021285 L 63987.51157542672,340861.1136405819 L 68619.96395994273,342566.14225593675 L 71005.73730487355,343436.9479884996 L 78793.24539749854,346283.9263237716 L 85178.80974826793,348623.2374816449 L 88917.40217414834,348971.515145818 L 90471.79151778943,348444.73742629413 L 92531.88330150765,349289.34405475645 L 93131.56368142665,348589.9806754622 L 95296.16144306997,346035.62805026985 L 96844.4386887964,344180.696494986 L 99907.01908223859,340564.4752324302 L 106852.08019719196,332366.08547269367 L 114340.85855565549,330656.17919751286 L 128428.03988495798,329784.66464236507 L 129515.27314240666,331083.1434139169 L 140856.37015690573,326800.9169942845 L 142820.9679794475,327324.65116518235 L 143566.0423890806,323974.5341719331 L 146652.30498280184,324627.24303453526 L 149085.05855336954,321114.50949408085 L 161584.93248004335,326511.78875222546 L 175958.00724847877,324059.1500329004 L 176702.49806431722,324211.0732022178 L 176754.8451884845,324243.8782752721 L 183214.23725305183,325792.38146193605 L 185424.63134508205,326343.78624285565 L 185796.5695835357,326420.5778353592 L 190329.26734515524,322981.06582609843 L 192874.0956991857,321072.9407218557 L 196438.0680066674,318373.0258242109 L 202724.4588354777,316566.42637572944 L 203812.52608172136,316242.0853196221 L 205980.7310052654,315377.1810683565 L 210828.66758026747,313487.06727012683 L 214751.43618434257,311931.0816959181 L 217049.0389065159,311076.81476892874 L 225703.71504956402,307799.90122393484 L 231080.9307974173,307906.6566432158 L 236458.20687256192,308019.38439589186 L 237623.1157517883,308047.3434334402 L 247212.86554785402,308263.6847732415 L 258001.5927266468,307914.7518430802 L 263685.292050104,305813.8407113797 L 269005.3440040751,303884.5512220992 L 271401.9508944623,302844.74063099857 L 275864.7871814382,300935.4776778104 L 278763.24823038623,299680.8145207221 L 280074.8523763659,299107.92861723196 L 284803.7118878228,297098.4590426103 L 291205.8062032115,293739.7168306421 L 301016.8130783167,290822.5688351509 L 302234.10463616,290404.40128235915 L 303761.1009800652,290223.5550836139 L 310980.9339380935,289361.32383921964 L 313145.8970559377,289101.5007870752 L 313664.9454813694,289167.07479787 L 323895.5480085867,290293.003827988 L 319530.79692744743,272071.33353756706 L 318454.944014377,267595.16792522086 L 299019.3058662054,187042.80819922828 L 295077.75814111053,170705.85288109983 L 294269.04699145415,166067.24634887968 L 289817.77092911943,148247.6812932217 L 281211.4031400143,112860.06802391008 L 276921.9030403588,95407.81256096826 L 276887.5604901319,86352.7145705946 L 276817.74555095733,83248.29297261046 L 276804.8734190968,67373.54234110715 L 276709.45190755645,64360.76273192601 L 276654.2764004541,55552.7208178895 L 277863.1209571373,46474.324769749175 L 279140.11306999606,37244.97529333116 L 282557.7638774232,11084.947599554776 L 283136.8940074787,6591.388784367571 L 283474.594610832,4006.299861362152 L 289452.4050620262,-3154.1984044406463 L 285008.6160898191,-7501.4542938852965 L 278061.03191504185,-14215.690842408987 L 276240.1484305122,-15990.189125114872 L 274818.77480045846,-17370.12518772923 L 256072.96089723217,-35592.131197394694 L 252498.69427443235,-40358.89319937035 L 249076.83993769315,-44836.132199128326 L 235666.65535223557,-62551.17762654481 L 234944.44560358187,-72033.65839728425 L 234197.67779728398,-81919.45648268779 L 221521.46247186302,-88341.56148509427 L 220512.88782958686,-88849.94513186582 L 213722.7251065089,-90161.51397241409 L 212728.46375352674,-91503.93421469192 L 170623.8689554666,-91570.4944025483 L 170238.91647161898,-92852.92652962981 L 157086.7012720548,-93275.27664372267 L 133615.95337824215,-93944.58019660019 L 112946.26894806999,-94692.00492396932 L 104098.74699735138,-82283.08882397952 L 98337.37168767705,-74195.36144811823 L 94728.47618985237,-75873.5441637304 L 84772.74498219801,-80475.3477884126 L 81925.4985231052,-81821.9313323317 L 73526.17407666722,-88263.87760343993 L 66452.63105130848,-93653.14071960644 L 47896.833784689064,-112520.96093788974 L 57398.2060193621,-135506.15431898282 L 51346.03899394265,-137612.23555355397 L 42352.931181708336,-140324.08555431332 L 37460.03486728201,-141599.6560673801 L 36011.14681183392,-141950.26303498982 L 26608.240429990114,-144266.0134921022 L 15922.808897069912,-147156.32536924563 L 15157.742067177673,-147375.25486311177 L 10703.248878178254,-148623.78771842294 L 9113.253014160637,-149060.0830684842 L 3889.9842165232826,-150551.6260817472 L 0.0,-151635.80205585793 L -5171.456410254626,-155036.09785089415 L -7198.775405688779,-156425.76614721864 L -13089.416863319553,-160250.2071094075 L -24865.416727168005,-185973.88345969032 L -29929.991401217405,-210163.93564238236 L -35701.672872359726,-237618.2809070295 L -34934.4694420966,-239416.86308587244 L -29362.992817283157,-265328.0828434337 L -21038.921875824897,-303570.6043595241 L -29182.535074766838,-312957.2251613553 z" /></g></svg>