<svg xmlns="http://www.w3.org/2000/svg" xmlns:xlink="http://www.w3.org/1999/xlink" width="300" height="300" viewBox="-289802.8961959213 -346241.55492360424 572043.7754154939 693921.2891038619" preserveAspectRatio="xMinYMin meet"><g transform="matrix(1,0,0,-1,0,1438.1792566534132)"><path fill-rule="evenodd" fill="#66cc99" stroke="#555555" stroke-width="4626.141927359079" opacity="0.6" d="M 96225.46045083253,-314192.4304420989 L 83194.6817485189,-312516.66661815357 L 82599.22324105148,-312431.51272038295 L 78573.95812118024,-318034.98179398756 L 73474.13259149664,-318185.84100912476 L 73109.25775089489,-318282.4355443784 L 69701.37177004344,-320540.76643827604 L 65553.8824892252,-319996.5672051034 L 42369.88785879144,-304909.60117943323 L 39820.792796603804,-306190.779875546 L 37713.25224125984,-304999.5316282066 L 35769.64206582365,-308651.6380652364 L 27675.086313813576,-312084.88652430865 L 24706.46513262853,-312682.7678184234 L 20750.423205425854,-312048.27449450764 L 18476.743132426498,-308012.54825095535 L 17949.156538394553,-307149.8693094514 L 20678.517553416015,-303623.88527564047 L 19324.313272195748,-301004.9159888942 L 17361.655999716615,-300825.17466976773 L 17575.198304553673,-295300.19507197815 L 18687.687301491544,-293692.40321110765 L 13312.364253129299,-283921.25496408046 L 1387.4740639293805,-280600.9725789647 L -8067.527551480608,-274947.5107294631 L -17612.302639599515,-274990.8261883898 L -28659.64550579316,-270383.5267273636 L -37792.89374848511,-267065.3103184666 L -39151.6717015411,-266532.6565707557 L -53591.50083416411,-283872.1050364745 L -65189.35914890157,-282996.2814584109 L -69284.88044306161,-282954.6651831774 L -86893.71731232034,-279166.1277120627 L -104778.1185224308,-282487.80837928655 L -114988.37376259558,-271574.87023038976 L -115505.88547502896,-271287.98253149266 L -121442.9788955973,-266735.5971632549 L -123175.0493678996,-265869.87535915145 L -134843.3553712838,-270273.13549916976 L -139635.99644222518,-268074.04688710265 L -152671.27918579627,-262103.83100519225 L -153316.0722526586,-261533.0537299148 L -160111.8279439591,-255442.52001121355 L -166428.76124407846,-253309.47552884204 L -178683.59212739798,-250517.7684410057 L -184412.29181887693,-247950.7393310926 L -189074.4803002806,-246243.24112367703 L -207280.92105819916,-241154.06401404497 L -216813.81022992515,-239919.85859410142 L -217878.52567463386,-237907.47165390372 L -217851.6808305424,-222800.94687781087 L -217858.54115868552,-216219.66994485506 L -219274.97486546828,-214751.2195165685 L -225914.1165118096,-216379.49001123436 L -229439.8285572871,-217245.6582140314 L -237775.69646161245,-210768.20590779756 L -239161.47826268233,-206144.05092471803 L -242341.00058520175,-203832.88597770396 L -242530.35423948424,-202867.76793062204 L -242024.2174444299,-189226.1144710865 L -241705.85927432837,-180645.5649536984 L -255878.40736874737,-173087.3142603835 L -260068.021868456,-170818.95562758553 L -264102.1077105931,-168647.00828034492 L -238379.9005079866,-126979.22908089483 L -237168.1073096631,-112182.86614930119 L -231619.32488177167,-43734.92001029343 L -225344.29612051285,38930.80134899466 L -222790.27155723848,85639.37990408021 L -177922.08299115874,104580.31428254535 L -170741.15771896535,107688.11031806623 L -169549.41022955708,108181.17788919357 L -166515.00475528408,109490.81006363916 L -166038.44410763297,109694.60092976352 L -148863.97573951812,119463.92716844872 L -123497.73635167489,133933.88977721997 L -112141.43548038305,140395.88533450814 L -111887.94904944558,154395.86169246465 L -111881.79495680031,154735.7503059108 L -111044.73315172344,200966.41219138095 L -110798.5628314654,214562.32204303463 L -87988.20846046749,214191.83787218784 L -78224.03473725184,214059.24175632646 L -72500.13200355145,213988.7561848999 L -69133.03360252896,213949.79411911446 L -48614.37334017957,213783.37658959985 L -29379.462684664028,213629.84866776897 L -11680.251542283939,213570.4789691064 L 19256.610838828197,213589.62727746472 L 31661.491144283777,256316.88179943778 L 31682.431426034003,256316.99092444027 L 33267.23790226518,268375.71590144525 L 34785.84091638369,279970.32116011175 L 34862.389720094434,281144.7156458734 L 35802.88057782379,287514.41669073724 L 36971.62769536799,296974.7534118791 L 37547.37153176312,301210.6207812779 L 38614.512781562385,306252.4750275606 L 40124.35098884737,312965.5191576666 L 40324.60153754191,313986.20048718725 L 40685.928915090124,315656.6343776318 L 41244.74695973686,318656.68290009553 L 42405.66157559128,321228.3933911475 L 68414.72765246015,321468.0852430915 L 85388.11957128157,321685.1845084432 L 104035.44766898506,321978.94569492945 L 121484.1652779029,277906.50087151333 L 139964.64911869043,231542.90807022472 L 175176.80803379227,149279.60439106636 L 165328.80916770894,144277.56163787443 L 186641.7251117416,75301.08802289703 L 190775.46907701276,61910.8593088936 L 234659.79220323017,53562.4418976938 L 256540.0907342444,17540.88582566741 L 237394.23806748548,1388.0381794681161 L 226511.4211781505,-2814.9375380143833 L 219072.19997920503,-7870.299846839174 L 203859.2878984834,-18180.976960948425 L 170233.01233022835,-40969.09996407383 L 185803.49895304212,-50583.12492978434 L 243395.5041236944,-86161.18534521606 L 242993.35381697182,-91897.29999985489 L 240725.57508856658,-124851.64884028456 L 232847.7482882653,-140165.57545078182 L 225842.5310512473,-156642.583594233 L 212085.20085475838,-179483.0061548733 L 198103.6287450172,-216816.12874804693 L 163592.42907139787,-311178.1618753537 L 161577.08643751487,-311042.26913782087 L 160775.91046660292,-311000.0299328876 L 157625.62301337087,-311199.032591293 L 155986.6578279395,-310527.6562908356 L 153424.20080103472,-309445.3854017938 L 145557.80646550446,-306134.3890271005 L 139381.00989430604,-307872.003484024 L 133223.84289425562,-309603.391868074 L 131476.45797958376,-310224.50204183045 L 121735.01993498797,-313681.66104351263 L 108735.7303716601,-315758.67070376826 L 96225.46045083253,-314192.4304420989 z" /></g></svg>