<svg xmlns="http://www.w3.org/2000/svg" xmlns:xlink="http://www.w3.org/1999/xlink" width="300" height="300" viewBox="-837156.497229439 -1101922.293180197 1455408.0532593022 2287537.507542718" preserveAspectRatio="xMinYMin meet"><g transform="matrix(1,0,0,-1,0,83692.92118232418)"><path fill-rule="evenodd" fill="#66cc99" stroke="#555555" stroke-width="15250.250050284789" opacity="0.6" d="M -576516.201032192,-1013072.7708445241 L -598625.5502197356,-1008785.4218416417 L -620703.0275553613,-1004336.8630658353 L -642747.4576974544,-999727.3313456243 L -664757.6668653495,-994957.0721207487 L -686732.4832985905,-990026.3393461384 L -708670.7369231728,-984935.3955642473 L -730571.2598093529,-979684.511802332 L -752432.885838968,-974273.9676496487 L -478441.2565743294,115737.56714603945 L -230807.21717565713,1100891.6029720502 L -224051.11888236488,1099219.7282246603 L -217282.91303546345,1097597.5633336708 L -210502.96538369634,1096025.19595965 L -203711.64231032558,1094502.7110721462 L -196909.3108133302,1093030.1909450942 L -190096.33848557854,1091607.7151523728 L -183273.09349496078,1090235.3605635017 L -176439.94456449358,1088913.2013394882 L -169597.26095239562,1087641.3089288208 L -162745.41243213307,1086419.7520636064 L -155884.76927243444,1085248.5967558578 L -149015.7022172864,1084127.9062939247 L -142138.5824658957,1083057.7412390753 L -135253.78165263095,1082038.1594222228 L -128361.67182693926,1081069.2159408 L -121462.62543324135,1080150.9631557825 L -114557.01527537563,1079283.450686978 L -107645.214558156,1078466.7254179812 L -100727.59677466722,1077700.8314820162 L -93804.53574776188,1076985.810267414 L -86876.40559444015,1076321.7004133821 L -79943.58070563417,1075708.5378079165 L -73006.43572597617,1075146.3555858626 L -66065.34553355347,1074635.1841271236 L -59120.68521964721,1074175.0510550204 L -52172.83006846781,1073765.9812347968 L -45222.155536871396,1073407.9967722779 L -38269.03723407147,1073101.1170126742 L -31313.850901340447,1072845.3585395368 L -24356.972391706448,1072640.7351738603 L -17398.77764964186,1072487.2579733382 L -10439.642690744726,1072384.9352317618 L -3479.94358142434,1072333.7724785754 L 3479.9435814243893,1072333.7724785754 L 10439.642690744775,1072384.9352317618 L 17398.77764964191,1072487.2579733382 L 24356.9723917065,1072640.7351738603 L 31313.85090134049,1072845.3585395368 L 38269.037234071366,1073101.1170126742 L 45222.15553687145,1073407.9967722779 L 52172.83006846771,1073765.9812347968 L 59120.685219647254,1074175.0510550204 L 66065.34553355353,1074635.1841271236 L 73006.43572597619,1075146.3555858626 L 79943.58070563422,1075708.5378079165 L 86876.40559444016,1076321.7004133821 L 93804.5357477618,1076985.810267414 L 100727.59677466725,1077700.8314820162 L 107645.214558156,1078466.7254179812 L 114557.01527537564,1079283.450686978 L 121462.62543324141,1080150.9631557825 L 128361.6718269393,1081069.2159408 L 135253.781652631,1082038.1594222228 L 142138.5824658958,1083057.7412390753 L 149015.7022172863,1084127.9062939247 L 155884.7692724345,1085248.5967558578 L 162745.41243213313,1086419.7520636064 L 169597.26095239565,1087641.3089288208 L 176439.94456449363,1088913.2013394882 L 183273.0934949608,1090235.3605635017 L 190096.33848557857,1091607.7151523728 L 196909.31081333026,1093030.1909450942 L 203711.6423103256,1094502.7110721462 L 210502.96538369637,1096025.19595965 L 217282.91303546345,1097597.5633336708 L 224051.1188823648,1099219.7282246603 L 230807.21717565713,1100891.6029720502 L 533527.9446393921,-103411.92134659941 L 455588.60669083986,-83004.0271239359 L 440786.7957221686,-86157.53637491706 L 425963.16293891374,-89206.82130530321 L 411118.4421393435,-92151.73096964032 L 396253.3683041664,-94992.1195617643 L 381368.6772830663,-97727.84647698794 L 366465.1060357275,-100358.77626604804 L 351543.3923175253,-102884.77869287124 L 110221.72466329971,-225918.89055521876 L 0.0,-282258.7442935348 L -238741.1906296476,-580830.3363721851 L -325754.78988219146,-688841.06957662 L -363967.4015693967,-736114.0571394804 L -373148.5723516862,-749770.6983446578 L -406979.37363841303,-799881.0146456849 L -485509.9790000026,-915934.3737219896 L -554376.1572300869,-1017198.681789726 L -576516.201032192,-1013072.7708445241 z" /></g></svg>