<svg xmlns="http://www.w3.org/2000/svg" xmlns:xlink="http://www.w3.org/1999/xlink" width="300" height="300" viewBox="-16779.234824934632 -42858.04470720288 33623.30773357063 85727.4313970835" preserveAspectRatio="xMinYMin meet"><g transform="matrix(1,0,0,-1,0,11.341982677753549)"><polyline fill="none" stroke="#66cc99" stroke-width="571.51620931389" points="2960.8697226995273,39694.296638136795 125.14820147546256,19211.17828234482 -6.379758254255081,18590.034973668266 -259.1004342433246,17928.7838743211 -616.8649643698026,17342.609084741118 -1064.8230276316576,16829.456727771354 -1475.4480971955172,16473.253887305615 -1963.096292360169,16152.735249993018 -2645.8289104334244,15847.61346924284 -3286.0470450538523,15676.783238098695 -3649.313663440708,15630.41554083919 -4503.965852228445,15650.255974244406 -5083.856223161981,15772.894105781083 -5643.107597881471,15982.09851381167 -6145.793558788978,16257.465410864419 -6680.394694420981,16658.003760508444 -7201.838090857406,17210.496183529685 -7494.9491056277675,17642.475696060235 -7744.512320142389,18142.651186988016 -7914.568743414245,18652.390610967774 -8025.157069013101,19247.545903419115 -8018.7210991274105,20189.172672761135 -7842.984507633421,21191.647307418498 -6848.612882371687,25711.37248553156 -6508.782496936777,26600.599876093256 -6108.5093170626205,27241.49710535468 -5606.365291426463,27796.051991784007 -5108.791351566407,28192.348321169156 -4429.027191828939,28581.815825318023 -3667.227975906242,28860.798123002503 -3089.410282875278,28979.513268522584 -1835.8395360247055,28984.41336895718 -1209.1473169641072,28859.759597698652 -540.2878744416295,28622.759271334966 356.08564643558003,28134.971400553142 7065.485393745846,23806.87173282062 7606.191702274525,23383.022724098148 7871.129771349808,23115.681254933752 8430.996099835234,22347.890396504386 11451.017898604332,16998.48321503081 11715.693321684928,16443.436650760952 11842.836060129377,16045.129900466272 11931.840537893591,15258.706836903084 11964.53709460049,10646.645602568127 11922.260756610935,9939.756516754882 11820.305003645542,9547.627732381537 11579.75903739368,9073.784383300577 11372.72093057852,8828.629419741192 11130.664051825817,8626.290143421964 8087.023480418962,6587.026934856972 4183.845210415521,4050.230213031243 3212.060300373033,3606.7963069905386 -4973.133228728328,475.741206067071 -5380.547774052147,254.22459664125705 -5802.902762624076,-96.5634902661421 -12997.526981040926,-7312.111256600311 -13405.672525931881,-7823.607361254931 -13510.56671822949,-8039.030809025334 -13604.1447731908,-8384.91384133972 -13600.68290182863,-9107.662569691198 -13489.488860452071,-9774.760922726588 -12053.799364562725,-16343.51669145785 -11859.774517134209,-16983.226510193937 -11448.276113865746,-17713.852928475455 -10695.456290566579,-18626.328719596426 -8530.464879087524,-21037.28899920232 -4369.799559556442,-25502.773387338828 -2365.830718379969,-27725.639612685536 -856.0677603185566,-29303.80328800228 1660.201304425082,-32067.044277493354 3113.615035953845,-33588.36863697831 5797.936043643769,-36543.276012346505 7026.8874550169185,-37804.09769848973 7479.949868148288,-38112.86636520992 7799.342828085038,-38261.16212775421 8493.78875790809,-38432.36972398768 9361.3592185572,-38431.04307127923 9975.257124682334,-38303.65425587591 10467.085693220017,-38119.57498459885 11077.710893258203,-37767.27972501655 11585.569649106934,-37334.9884277683 11871.763370401051,-36997.99475752148 12247.618763210092,-36370.96116182131 12513.081629582406,-35570.840580100135 13415.272785595753,-31583.791211559 13434.807765441656,-30618.12387295042 13308.445614694116,-30123.35240043667 13108.961573912611,-29661.34989178799 7358.385889216961,-17616.945931853083 6867.290162306314,-16703.13806859162 4300.1561867962555,-13241.189204862152 3892.465954150887,-12775.642292962955 3303.423914807953,-12349.509481728972 -1074.4842481253988,-9795.498414558435 -1451.1734273974027,-9617.104493923534 -1775.9164591878139,-9515.220265814067 -5134.714112897726,-9156.943107263985 -5677.944060120401,-9156.437528986778 -5992.466984736357,-9237.55690348352 -6356.295668666557,-9434.978615822674 -10786.903261848242,-12259.69358800411 -11184.360306766079,-12636.786641658638 -11443.636515979219,-13138.262407357563 -11495.662070884215,-13362.105514210576 -11494.234120456947,-14178.612385570452 -10936.238955156303,-17623.224667388426 -10818.977035662696,-18129.12876925114 -10710.524092046438,-18397.26799633476 -10381.076797758958,-18947.54411668343 -9915.856149539566,-19502.347022079754 -7287.176930404383,-22378.83283996532 3641.2978563066717,-34151.95597289872 6331.251874492686,-37161.90419205711 7842.072066482558,-38723.11772296372 8443.101442509493,-39206.892163700846 9070.533350368281,-39516.40322137985 9724.766654728272,-39682.95465545904 10780.768313036051,-39666.17747619813 11293.53124496338,-39543.06324100674 11723.285418295663,-39379.35609668601 12406.363932154605,-38960.615142823604 12742.485528082412,-38659.61723046943 13062.859678143543,-38282.293960856856 13460.18019773808,-37594.322022218825 13666.975623964632,-36854.324009834774 13668.982856892166,-36067.011590426046 13616.66666139167,-35783.074762385826 12155.26426303024,-30289.683552284667 11343.128663974838,-27413.59063475834 11113.92744495903,-26880.83941869741 10853.439838240616,-26467.352933622646 7410.6940276864025,-21898.962490333844 3641.173561103279,-16989.001348983395 3109.694817170738,-16574.030275852478 -927.151766907761,-14293.418952464626 -1421.3350401964199,-14085.850901927528 -2011.8191128707165,-13982.589393694823 -6064.071878329033,-13640.061417295821 -6662.480629511409,-13637.508568779947 -7178.51135233454,-13766.033760101931 -9976.323667531884,-14769.65929930227 -10601.578088820024,-15060.216219867141 -10983.296933392585,-15416.646318354582 -11216.697470730185,-15826.047235773272 -11299.8118290358,-16105.817046516235 -11296.232397918375,-16920.166998043194 -11209.239927551345,-17312.23737556888 -11014.33626366343,-17833.736287827407 -10787.71334012012,-18259.70553097531 -10427.273995162916,-18794.772968393212 -9566.868730896758,-19849.714713237052 -7828.999830898653,-21791.533734138106 1624.951945053733,-31998.51898041865" opacity="0.8" /></g></svg>