<svg xmlns="http://www.w3.org/2000/svg" xmlns:xlink="http://www.w3.org/1999/xlink" width="300" height="300" viewBox="-42623.06629981251 -45577.32440872204 84815.84860696789 91292.03813626699" preserveAspectRatio="xMinYMin meet"><g transform="matrix(1,0,0,-1,0,137.3893188229049)"><polyline fill="none" stroke="#66cc99" stroke-width="608.6135875751132" points="-39241.87970217299,-42196.13781108252 -30664.010150688395,-35515.94014245075 -29775.545359940264,-34767.715574311595 -28990.548721275336,-33990.12766398689 -28131.583577199093,-32912.699305256145 -27485.234878771753,-31862.280367458516 -27034.4833230131,-30914.83825111365 -26747.565659084594,-30165.876174281264 -26456.474371004515,-29184.971074160603 -26279.86260513405,-28356.390786879067 -26140.109451387034,-27181.228795456795 -26062.9033044277,-25033.912166233044 -26002.251591248434,-17514.884459839326 -25924.89090997439,-16148.609013891195 -25788.662656875425,-15031.533816234905 -22551.234949589954,4550.367954688789 -21813.243268999984,8559.249327383086 -21056.507091832635,12298.168890437375 -20912.849798266747,12729.405475279544 -20633.707545304125,13285.25038005504 -20228.32349115285,13879.059646792932 -19508.973183739174,14772.04320528375 -13126.19798219821,21886.602128015293 -12621.60104820795,22428.959196429452 -12186.297512832796,22816.227550339292 -11225.69992934131,23436.79244645637 -10083.091590478953,24050.556355357556 -6805.156832374207,25628.352931638197 -5721.944551288397,26116.14180742138 -5231.29910820876,26293.819250108114 -4874.99842016606,26369.855916151897 -3918.4352096191014,26355.507847009434 -3491.413136972294,26297.612930406736 -2282.352974528695,26023.3857286382 -1545.1676483061217,25726.73995109709 -946.2708879772318,25400.877869020966 -259.52786996892013,24912.205342322995 455.54716441639624,24278.691551147156 1124.693384955647,23614.460076513198 13759.767627171066,9995.553124636726 18460.949278957996,4980.004657058899 19102.398915725873,4372.522027047622 19671.543601488742,4006.747664090082 20169.72789747047,3815.0350893961304 20584.642858034236,3730.5558192825347 21631.466835676587,3759.1586531353023 22247.479089700806,3954.85913336377 22816.275643935052,4287.857695129203 23239.691377788433,4676.319711330209 23600.34073936462,5196.887796630884 23851.50516565906,5869.719009140275 24014.36466399865,6781.753333527351 24136.81196459703,8014.095964730058 24298.973602117992,10416.51544398477 24669.926460308165,16395.990730137684 24655.161896073983,17384.51922105093 24547.39634857824,17853.432361621628 24411.527721205362,18198.958522935125 24098.92226598005,18782.970522230164 23459.043355263384,19788.11849553219 10585.394488663707,38969.171148169735 8912.60683335936,41353.4338527768 8582.51769546611,41704.12672567072 8092.850401152371,42054.61493550159 7819.771480215834,42191.66400321113 7320.155384485591,42333.52712990542 6419.1358935269445,42327.37747753728 5955.8912572369945,42189.46553652162 5465.955936842612,41910.34859668178 4948.792569575974,41454.40534945489 4273.2871400009535,40729.24172166757 2895.4374540868444,39113.507132836814 -460.1333088531221,34994.76233717058 -957.1293755545512,34288.91497746838 -1192.4279841858868,33727.54498514813 -1275.0109311973779,33350.92913056186 -1275.220643982558,32388.987917116927 -1084.6230390137491,31152.34144842522 -460.6524190366396,28398.60020394793 277.4973376079613,25726.542672558702 649.3645582106896,24774.81636714852 1186.6347581616333,23818.142373330793 1879.0488000101805,22886.84165803638 2591.2464841486444,22053.628411411188 10629.702993725103,13413.877248453731 14556.817367255253,9131.565397180662 15114.664757258566,8583.996295770321 15446.742795512318,8335.47376849042 15763.120976893171,8158.181142403985 16219.337312012183,7986.379541990716 16615.518643975764,7921.323124582138 17529.82103440796,7923.9806020425085 18124.90956308743,8088.6515002677215 18698.76372897315,8406.001030745503 19075.762150508337,8727.853803634287 19447.136662634417,9171.861279206982 19912.78517658971,9908.127015342827 20508.861613122444,11043.68142891716 21420.220385177847,12993.046051352238 23548.48591160435,18108.9056690976 24116.312958963626,19582.111393458865 25964.038345913676,24802.050914930736 27553.999080339818,29100.163054422443 27763.644457756873,29535.93312753497 27973.827410029462,29852.666791174026 28215.887624774605,30138.50612055968 28568.94456732086,30445.600340349512 29012.17152924148,30701.402976187856 29558.924300335562,30880.639751573257 30466.848437383098,30890.386773672093 30688.863851690665,30855.91918805508 31882.190123392167,30562.00760375607 34099.35363330556,29902.66672520487 35081.64399250796,29582.731356402342 35511.24825982263,29366.46468082214 35754.89452172342,29184.718382713607 36019.79289967334,28906.40831667695 36563.02028544692,28160.898158710188 38410.03273260899,25010.199934448025 38705.883380250365,24323.74276276894 38805.68684473418,23651.526512919812 38811.59570951585,22699.532307108613 38366.16565216394,14181.57295326125 38315.11488692485,10335.803302109738 38138.85531768119,9677.318298748689 37776.60858726848,9027.991865174727 37289.98083725904,8484.434498536779 36784.77673798577,8114.7973471854275 36328.124234277064,7937.097382827871 36004.45102406815,7878.170017267121 34078.48933494542,7706.574203747117 32744.213740811192,7631.353926542393 30939.942301798077,7673.935620299054 29396.410792869556,7846.558383739427 26770.12558971026,8315.353037511471 25648.26876827713,8478.043345817952 22648.875306950395,8725.277689022096 14242.237228447148,9589.541361621661" opacity="0.8" /></g></svg>