<svg xmlns="http://www.w3.org/2000/svg" xmlns:xlink="http://www.w3.org/1999/xlink" width="300" height="300" viewBox="-41742.08743492997 -102078.271848861 83664.40614331022 204248.7608911855" preserveAspectRatio="xMinYMin meet"><g transform="matrix(1,0,0,-1,0,92.2171934634971)"><polyline fill="none" stroke="#66cc99" stroke-width="1361.6584059412367" points="23393.133394078523,94605.72012042874 22485.42582227467,82646.85580109038 21012.458415547862,64446.95824378097 18086.092822546434,27148.27126787981 17939.134419894595,26164.932635935536 17745.200821269347,25356.3302570786 17512.170879034376,24679.119074299135 16744.834916812742,22881.888531729135 16418.092074730444,21817.34365366709 16241.981010237248,20780.260269825412 16196.16579918078,19833.431629907736 16312.780076296936,17961.070624926888 16740.59093062329,14082.094609634922 16891.508831503255,12308.049190710368 17741.687718234996,-6370.1171104724 18681.728951244466,-21741.809733712023 19283.766784945725,-29954.677543176273 19462.261639166027,-31184.95246189301 19770.63102476003,-32632.78229817751 21419.714707658677,-38757.95104739998 23915.612062394863,-48678.26020640428 24146.54810101235,-49816.78262202416 24302.482482161762,-51105.056285963256 24355.960089767872,-52734.225748637786 24322.046552852866,-55517.96000494533 24182.781880540642,-56952.80783330802 23887.327562004637,-58994.6822144628 23718.626525814198,-59945.20945009001 23453.880056668724,-61009.17252303339 22116.570488452697,-65331.844873496724 21853.679203740936,-65943.13741914992 21248.770066547906,-66943.27071396928 18723.662453007102,-70385.25322498265 18332.880280911668,-70753.57023793652 17915.343461302455,-71034.00717738816 17407.563937157483,-71242.24205130093 16878.270524302818,-71331.53057103064 16226.944699783042,-71327.9743356099 14638.035940388836,-71176.48214590017 8219.373929974285,-70385.77838509802 7223.815866525455,-70205.90158690659 6048.474367752917,-69800.961670335 2410.571586830265,-68295.63442158214 2066.477417130423,-68099.20265607616 1569.983883955583,-67713.13952390695 886.0690930225699,-67013.27946252881 -77.0253975149728,-65854.73689522804 -2547.9786024167747,-62606.35156772445 -12147.698021559963,-49859.69940608219 -15215.751895239182,-45705.974864975215 -16489.888985928515,-44148.462131363616 -18917.101742893687,-41423.8250808136 -19103.075646132747,-41125.171383832494 -19325.764006126472,-40558.802725337744 -19408.442242930534,-39908.60687274177 -19359.205744892228,-39374.14717083672 -19235.575655870063,-38876.542725376086 -18976.69984402954,-38299.317980438616 -18640.622642009504,-37789.71811590035 -18231.126528656776,-37339.27243346854 -17815.09243065551,-36988.30847170957 -17296.866802973273,-36658.96619508322 -15805.963761274605,-35986.256727046304 -9669.935759804319,-33555.26905298895 -8929.134824622008,-33379.483684016646 -8275.934291631072,-33314.20501872697 -7468.5901621973335,-33355.8559179256 -6846.451070050573,-33473.51889764016 -6273.944446103793,-33657.63348186667 -5730.846752010217,-33901.85013583343 -5170.518110117694,-34243.111770314244 -4658.171833420347,-34631.45085919185 729.5813681690179,-39479.921606270036 1429.6494381341083,-40155.537884639 2058.031368140893,-40845.240553999574 8384.466857954432,-48303.98760977437 8859.47621967135,-48918.82553047591 9386.433899803524,-49752.269880860316 9804.899464897479,-50516.346558360485 12337.153050959208,-55384.67034604435 12714.132273927575,-56387.42648371597 13166.26578454599,-58051.82854846033 15693.038313117511,-67949.16264557783 15803.031290684157,-68554.14932194287 15824.616153585292,-68935.55537274745 15809.245849439887,-69358.34071271973 15707.892877905799,-69866.58494075162 15594.152480318218,-70191.5847701749 15342.615470970279,-70676.12033466938 14845.028442220579,-71393.25952775692 13016.373944044957,-73829.31943127733 12577.415997469512,-74272.64325213364 12398.886545145546,-74398.14452762945 11970.128289051023,-74595.4707040331 11532.870925121832,-74666.1513588883 11170.584473412884,-74631.16557353217 10687.856952626118,-74473.51446152903 5367.5525539653745,-71835.96416368854 4746.558787499601,-71419.37994882689 4238.283189134849,-70953.27175711047 3644.2595382595687,-70265.54020458151 2547.4166518294105,-68862.29417058919 -11786.77227855555,-49834.917018918364 -13313.652900979567,-47695.74754893761 -14125.860637661179,-46712.39170160479 -14547.760713584132,-46416.468603255766 -15037.611090777264,-46239.16352187167 -15870.727457838815,-46076.87415223935 -17658.423200709327,-45849.94051123786 -19142.092435712202,-45733.41353567851 -21155.13882565254,-45648.3410064819 -24589.020825692107,-45626.17750211962 -28827.020121854417,-45408.53132466995 -29569.10975584057,-45451.04919501618 -30410.099047132946,-45711.75130634324 -31411.769297133458,-46159.789486673675 -32295.552189036865,-46709.9801954405 -32999.49045854004,-47337.245579821014 -33441.20972808934,-47894.549677393385 -33712.62578830154,-48348.374155365025 -33904.760175467956,-48771.55592949219 -34097.69876384199,-49442.58419544215 -34158.37390212235,-49856.51614124503 -34177.31851303421,-50461.61843268543 -34106.573591154316,-51077.525443430146 -34003.105890266095,-51491.86555030953 -33842.3899953355,-51951.49677951299 -33516.00240681436,-52680.50474525877 -30837.64535219244,-57688.51277516867 -29649.325149403878,-59997.74160591614 -21098.02208480252,-77735.04677876896 -19998.30070317322,-80343.20144176036 -17084.94936234303,-87736.94789165464 -16792.266890844792,-88676.74321344869 -16695.56957002899,-89409.33132293259 -16696.965782773437,-89968.75749172522 -16795.009438352987,-90654.65225545579 -17025.21917591063,-91383.30797253762 -17254.878574810875,-91879.22075271234 -17746.49798068507,-92620.78867996378 -18069.16527314775,-92981.00764600986 -18635.03010793152,-93478.7988698534 -19209.88188175945,-93849.5469597787 -19919.98817963954,-94181.05542145498 -20672.72525882204,-94408.9200888784 -21301.50978359626,-94502.2830823539 -21937.704724210256,-94513.50292696524 -22569.799805727936,-94444.16781564431 -23419.193460137187,-94218.86089743812 -23981.54244259282,-93973.7928899574 -24412.735207610454,-93723.72643206993 -24857.83747554369,-93401.69123384028 -25258.51021785731,-93038.16008991527 -25509.05907329457,-92712.67433118088 -25673.750025018988,-92361.13197012615 -25764.404338605364,-91970.82262771447 -25780.472621112352,-91780.95195116437 -25724.220752861293,-91190.01919625717 -25579.06427498479,-90730.27486289767 -25286.84760787393,-90206.26254702837 -24927.602574127544,-89775.92644050882 -24594.321659339927,-89476.49775203445 -24266.745437254398,-89243.74968682212 -23778.324029590924,-88981.04464419736 -23219.63297587272,-88773.54324785074 -22560.81935393239,-88630.98306843822 -21635.285002519282,-88581.45929962494 -20629.541320903172,-88660.92317656484 -14268.625989518523,-89486.14836863484 -5541.178892431629,-90546.7256844633 2447.1941127697955,-91697.93675556232 3247.647168262213,-91776.55333394911 4200.743111128459,-91773.35077870861 5118.913643830828,-91650.65530605716 11580.54283400264,-90249.11307138066 23268.43088084765,-87858.88420108534 34357.549786484495,-85532.65741348643" opacity="0.8" /></g></svg>