<svg xmlns="http://www.w3.org/2000/svg" xmlns:xlink="http://www.w3.org/1999/xlink" width="300" height="300" viewBox="-41659.75180021722 -102150.01446988704 83499.45704836166 204392.32369636657" preserveAspectRatio="xMinYMin meet"><g transform="matrix(1,0,0,-1,0,92.29475659248419)"><polyline fill="none" stroke="#66cc99" stroke-width="1362.6154913091104" points="23488.714002146997,94672.22316365114 22571.315321072492,82581.04127054884 21098.58886310034,64381.11923152272 18172.71674968569,27082.38506422584 18025.77136553102,26099.044297906872 17831.848485915853,25290.439199879507 17598.82753419964,24613.224808137482 16831.51545744726,22815.983787121404 16504.786737018992,21751.43439256019 16328.689402159289,20714.348488447806 16282.886704010112,19767.519067323 16399.525687244717,17895.159258102725 16827.38769471634,14016.188197811836 16978.328999944795,12242.144462631466 17828.75445734307,-6436.013550474854 18768.998619833375,-21807.69574653312 19371.144883444467,-30020.55650783392 19549.655972631015,-31250.82919465572 19858.044455222233,-32698.65510242614 21507.2089145512,-38823.80264054441 24003.237175573573,-48744.07962036775 24234.188246865655,-49882.5990657832 24390.13964625654,-51170.870759069556 24443.638785848136,-52800.039625417405 24409.762048608398,-55583.774508953786 24270.51635144412,-57018.62426545538 23975.089040020837,-59060.50267038135 23806.400577132757,-60011.03218867962 23541.668185212617,-61074.998818241926 22204.415812677686,-65397.68905698618 21941.532618157315,-66008.98510454789 21336.63672385012,-67009.12643687846 18811.574688164153,-70451.14244832275 18420.797396138743,-70819.46463700719 18003.264296398294,-71099.90710183841 17495.487541482344,-71308.14868991499 16966.19532744059,-71397.44420308783 16314.869480012116,-71393.8965687164 14725.958779165798,-71242.4253531896 8307.286575955735,-70451.80627343632 7311.726178023499,-70271.94260147911 6136.379383945869,-69867.01817194911 2498.4569009768325,-68361.73883261255 2154.3601561249648,-68165.31159513102 1657.8615547421948,-67779.25499164751 973.937568181251,-67079.40391512009 10.827850913886023,-65920.87398993484 -2460.1680401574654,-62672.521067090325 -12060.054717326435,-49925.9945378334 -15128.163014403808,-45772.310056861344 -16402.32049149602,-44214.81396088264 -18829.56887910669,-41490.208607544715 -19015.54669344123,-41191.5573306813 -19238.242481192767,-40625.1915518556 -19320.929259738932,-39974.99673001514 -19271.699793210093,-39440.536333818454 -19148.076257823534,-38942.930218644244 -18889.208058890345,-38365.70201797023 -18553.13758805661,-37856.09768796385 -18143.64743529556,-37405.646579343855 -17727.61799083102,-37054.67711397561 -17209.396742277888,-36725.32799120548 -15718.502687602953,-36052.598849696005 -9582.507263101847,-33621.53019520539 -8841.708714584156,-33445.73505637973 -8188.5091051183335,-33380.44778457834 -7381.164506507356,-33422.08805733617 -6759.02392595492,-33539.74285599461 -6186.514933386959,-33723.84991866549 -5643.414075906691,-33968.05944367991 -5083.08099366678,-34309.31373106349 -4570.729651283588,-34697.646108720226 817.0869394576259,-39546.04630973954 1517.1638536007597,-40221.65341940552 2145.5548211812347,-40911.34786479392 8472.088171424875,-48370.01208388443 8947.105610132901,-48984.8437827621 9474.074248911482,-49818.28124058576 9892.549866349163,-50582.35245066277 12424.867533507004,-55450.64314275948 12801.859969328554,-56453.394366265624 13254.015423768375,-58117.790561695896 15780.91849699399,-68015.09179543146 15890.91945866568,-68620.07704462379 15912.50935709675,-69001.48282600602 15897.144636397144,-69424.26838595152 15795.798380132253,-69932.51397236556 15682.062278472411,-70257.5153162651 15430.53167672639,-70742.0542205408 14932.954135475738,-71459.20001015434 13104.33186153595,-73895.28413929016 12665.379781144966,-74338.6137686561 12486.85199111523,-74464.11740462221 12058.096353207262,-74661.44924637295 11620.839935997648,-74732.13567442124 11258.553034025463,-74697.15466922823 10775.823448070143,-74539.5099227001 5455.484434931777,-71902.02972221686 4834.485197351506,-71485.45368161626 4326.20347143195,-71019.35217510315 3732.170774847803,-70331.62842915762 2635.309430905294,-68928.39680086359 -11699.12932623971,-49901.20739882824 -13226.037987045518,-47762.05786632672 -14038.258600721736,-46778.712631838884 -14460.162537581396,-46482.79506182794 -14950.01520959077,-46305.49641147193 -15783.13364706762,-46143.217989253564 -17570.832235854446,-45916.30784476492 -19054.502887549912,-45799.80037148413 -21067.55023875528,-45714.75430318125 -24501.432261702517,-45692.63593108859 -28739.43408501809,-45475.04541423145 -29481.523102424188,-45517.57303436446 -30322.508904631926,-45778.28621037789 -31324.173194287087,-46226.33757845512 -32207.948795316184,-46776.539933137974 -32911.87877737777,-47403.81460654729 -33353.59069868106,-47961.12454442792 -33625.0007821509,-48414.95261879191 -33817.12960093583,-48838.13694595145 -34010.0593682391,-49509.16779297942 -34070.72906949538,-49923.10056477207 -34089.66573738883,-50528.203147603395 -34018.91273692752,-51144.10927263164 -33915.43960507304,-51558.44804988688 -33754.71768847505,-52018.07720077431 -33428.32055343062,-52747.08093106628 -30749.897922404558,-57755.05410985327 -29561.547464598847,-60064.26746636897 -21010.01169820426,-77801.46099916668 -19910.256054513447,-80409.60126768201 -16996.807533391417,-87803.30952814076 -16704.112703951014,-88743.10100964343 -16607.405748199817,-89475.68785355223 -16608.794602715243,-90035.11404493517 -16706.82923600246,-90721.0101027623 -16937.02938837749,-91449.66885174808 -17166.682263726205,-91945.58465475014 -17658.29191475302,-92687.1590503615 -17980.95446896977,-93047.38226085305 -18546.812756304887,-93545.18092713306 -19121.65965408388,-93915.9365766568 -19831.761592439565,-94247.4543755307 -20584.495675435897,-94475.3289396437 -21213.278972705117,-94568.70019939136 -21849.473765767823,-94579.92840705866 -22481.569758567766,-94510.6016042688 -23330.966373930794,-94285.30584982283 -23893.31857668993,-94040.24523267403 -24324.514627433065,-93790.18444101031 -24769.62112641773,-93468.15509127332 -25170.298644675084,-93104.62921148427 -25420.85177615241,-92779.14674402802 -25585.547346309017,-92427.60654581281 -25676.206787793217,-92037.29839309884 -25692.277564909346,-91847.42792689869 -25636.03346110629,-91256.49443013573 -25490.883024634222,-90796.74818702143 -25198.673244585098,-90272.73202829451 -24839.43386798091,-89842.39119828091 -24506.156890400758,-89542.95812804477 -24178.583729528636,-89310.20575627392 -23690.165778424427,-89047.49429275987 -23131.477456791003,-88839.98555198846 -22472.665714676354,-88697.41671219078 -21547.13202296137,-88647.88077704194 -20541.38730617044,-88727.33143297628 -14180.461176881274,-89552.47297305627 -5453.000181669912,-90612.9354086944 2535.3879492281344,-91764.04122196168 3335.8420375813744,-91842.64724744689 4288.937933958493,-91839.43212517236 5207.106844484004,-91716.72454411484 11668.717507097872,-90315.09705477205 23356.57388354467,-87924.71380091718 34269.61918531604,-85634.8459958549" opacity="0.8" /></g></svg>