<svg xmlns="http://www.w3.org/2000/svg" xmlns:xlink="http://www.w3.org/1999/xlink" width="300" height="300" viewBox="-41747.37827086695 -102149.70201914354 83674.98972912547 204391.67833677543" preserveAspectRatio="xMinYMin meet"><g transform="matrix(1,0,0,-1,0,92.27429848833708)"><polyline fill="none" stroke="#66cc99" stroke-width="1362.6111889118363" points="23402.977306423425,94671.91415701057 22485.419268604724,82580.74435589598 21012.452943244007,64380.841728383595 18086.089248047454,27082.14612612224 17939.130903877125,26098.80729656844 17745.197367194847,25290.20475443424 17512.167490090662,24612.993433871085 16744.83172650455,22815.76252586961 16418.08897577979,21751.217437553918 16241.977972567962,20714.13385442165 16196.162795598886,19767.30503703891 16312.777101888101,17894.943690728 16740.58798607315,14015.9669917279 16891.505910118845,12241.921267357746 17741.685196972627,-6436.2479523866 18681.726766907275,-21807.942539142572 19283.764788325847,-30020.81123577069 19462.25966300685,-31251.086275189955 19770.629063818997,-32698.916247266923 21419.712796069532,-38824.085520164845 23915.61031168857,-48744.395395757914 24146.546377740728,-49882.91788491417 24302.48079822493,-51171.191633465976 24355.95846603361,-52800.361204766836 24322.04504031154,-55584.0956415815 24182.780432427415,-57018.94356275688 23887.326209908853,-59060.818073893344 23718.625219445785,-60011.34536886487 23453.878804904336,-61075.308509268994 22116.569461199124,-65397.98112320085 21853.678210070106,-66009.27370601596 21248.769134362392,-67009.40706598051 18723.66173453484,-70451.38979784376 18332.879588207776,-70819.70683621048 17915.342792386815,-71100.1437981023 17407.563292976123,-71308.37869386893 16878.269902102078,-71397.66723118114 16226.944101486502,-71394.11101260081 14638.035397106736,-71242.61885589633 8219.37361448973,-70451.91518074075 7223.815587173456,-70272.03838772139 6048.474129936031,-69867.09846763898 2410.5714862479376,-68361.7711821066 2066.477330256489,-68165.3394095846 1569.9838169847653,-67779.2762624869 886.0690542336343,-67079.41617218366 -77.02539400028971,-65920.8735537074 -2547.9784728962277,-62672.48806443058 -12147.697155233722,-49925.83501370688 -15215.750708184858,-45772.11009668548 -16489.887658005893,-44214.59720796827 -18917.100136223387,-41489.95986472723 -19103.074014440277,-41191.30613678024 -19325.76233770352,-40624.93742296185 -19408.440546941198,-39974.7415114011 -19359.204036447507,-39440.28176407468 -19235.57394282697,-38942.67727825147 -18976.698136285027,-38365.45248940518 -18640.620949104225,-37855.852588713366 -18231.124859617656,-37405.40687704489 -17815.09078955549,-37054.442894804386 -17296.865200360873,-36725.100602006096 -15805.9622795209,-36052.391109928656 -9669.934815063794,-33621.40332555542 -8929.133949702513,-33445.61795016758 -8275.933479833951,-33380.339287269926 -7468.589430094851,-33421.99020049915 -6846.450400238495,-33539.65319870686 -6273.943834175902,-33723.76780679544 -5730.846195324282,-33967.98448963348 -5170.517610724725,-34309.246161948904 -4658.171386447695,-34697.58529215213 729.5813038971821,-39546.05650196677 1429.6493137546192,-40221.672838300656 2058.0311913902456,-40911.37556556382 8384.466238945652,-48370.12316512597 8859.475574382543,-48984.96112448495 9386.433228751084,-49818.40552746676 9804.89877600691,-50582.48225281429 12337.152280867864,-55450.80631939368 12714.131500806341,-56453.56251142165 13166.265019146864,-58117.96466593239 15693.037649777505,-68015.29920235481 15803.030637981887,-68620.28590126199 15824.615509639134,-69001.69196715794 15809.245216800375,-69424.47732456542 15707.892262075684,-69932.72157523294 15594.151877041124,-70257.72142011013 15342.614889292732,-70742.25700927677 14845.027896397556,-71459.39624095519 13016.373516025733,-73895.45626938716 12577.415592770043,-74338.78011350648 12398.88614866929,-74464.28139653806 11970.127910045692,-74661.60758744816 11532.87056125591,-74732.28825263193 11170.584120350506,-74697.30247264757 10687.85661213032,-74539.65136395558 5367.552360362518,-71902.10104381226 4746.558613137769,-71485.51681873252 4238.2830302892635,-71019.40861331407 3644.2593976739195,-70331.67703831803 2547.4165478447007,-68928.43095396594 -11786.771437494008,-49901.05263155226 -13313.651905052719,-47761.88297520684 -14125.859558571025,-46778.52703606969 -14547.759595321713,-46482.60390556231 -15037.609930564999,-46305.29879916474 -15870.726229206306,-46143.00939680049 -17658.421827255184,-45916.075691197635 -19142.090943300977,-45799.548663754664 -21155.137173459236,-45714.47606432008 -24589.018904597167,-45692.312435071726 -28827.017859790692,-45474.66606310416 -29569.107437628987,-45517.18390280457 -30410.096675856563,-45777.88599494878 -31411.766870558233,-46225.92416145963 -32295.549722952095,-46776.11486828622 -32999.48797217585,-47403.38026414529 -33441.20723855743,-47960.68438039066 -33712.62330327177,-48414.508877641456 -33904.757699436064,-48837.6906725858 -34097.69631063427,-49508.718976820724 -34158.37146734961,-49922.65094897542 -34177.31611024564,-50527.753282176214 -34106.57122718087,-51143.660339646645 -34003.10355615074,-51558.00048059912 -33842.38769729057,-52017.63174969639 -33516.00017024496,-52746.63978170478 -30837.643542486403,-57754.64826057121 -29649.32351926992,-60063.8772788574 -21098.021522562387,-77801.18351585336 -19998.300253187263,-80409.33827847097 -17084.94917836412,-87803.0849363444 -16792.266735015924,-88742.88027536267 -16695.569434467587,-89475.4683937589 -16696.965661990933,-90034.89456679739 -16795.00933509862,-90720.78933250927 -17025.219090877526,-91449.44504748657 -17254.878502173407,-91945.35782371568 -17746.497926804226,-92686.92574004797 -18069.165228587295,-93047.14469794791 -18635.030076655785,-93544.9359064055 -19209.88186079237,-93915.68397965045 -19919.98816835518,-94247.19241964137 -20672.7252545795,-94475.0570630087 -21301.509782389094,-94568.42003564295 -21937.704723379673,-94579.63985852223 -22569.799802425885,-94510.30472497072 -23419.19344840941,-94284.99777584538 -23981.542421321148,-94039.9297471467 -24412.735176328042,-93789.86327251654 -24857.837431059143,-93467.8280564863 -25258.510158159577,-93104.29689596305 -25509.05899988957,-92778.81112634776 -25673.74993687606,-92427.26875754341 -25764.404234250862,-92036.95941000922 -25780.472508950574,-91847.08873201882 -25724.220616891063,-91256.15597658337 -25579.064121164465,-90796.41164653076 -25286.847434822375,-90272.39933905545 -24927.602386533552,-89842.06324370572 -24594.32146257715,-89542.6345659494 -24266.74523415257,-89309.88651147917 -23778.32382066133,-89047.18148513683 -23219.63276419619,-88839.68010766714 -22560.819143139935,-88697.11995075003 -21635.284798641937,-88647.59621375946 -20629.541129065507,-88727.06012499199 -14268.625875356236,-89552.28549940028 -5541.178857363303,-90612.86295930757 2447.194101737922,-91764.07405615652 3247.6471540264147,-91842.69063129305 4200.743092694733,-91839.48807043154 5118.913620376115,-91716.79259047516 11580.54275530492,-90315.25026263617 23268.430635008626,-87925.02105014688 34357.54929763721,-85598.7937296401" opacity="0.8" /></g></svg>