<svg xmlns="http://www.w3.org/2000/svg" xmlns:xlink="http://www.w3.org/1999/xlink" width="300" height="300" viewBox="-7759.783925508387 -23139.801642506638 15484.987628065333 46282.44296123881" preserveAspectRatio="xMinYMin meet"><g transform="matrix(1,0,0,-1,0,2.8396762255360954)"><polyline fill="none" stroke="#66cc99" stroke-width="308.5496197415921" points="-739.9907779997103,20879.96904626731 -589.7952719714118,20909.221974743974 -605.3206864472335,21017.397948320002 69.98070540012209,21249.91365863438 741.1450647591963,21428.476764612216 906.8650423315788,21387.776584804626 1031.1827619182868,21214.719037551404 1372.4023439590019,20230.244117170467 1507.9464706493068,20023.636939298205 2084.9610568968783,19635.127600919637 2930.5193693506912,19190.297482427934 3313.4182361075273,19055.912578482472 3584.6875760358744,18900.774181502366 3792.2438854986694,18626.538569534376 4191.7603460233,17679.463665308824 4394.133319050253,17327.594466565322 4716.746427058621,17067.80697962795 5416.691317302246,16757.914821889783 5587.897224898006,16585.004118334276 5800.74696660123,16249.244393228597 5904.733882298346,15943.920682064061 5859.6597078973045,14559.336638408906 5694.225488820188,13948.21809714863 5678.884924743554,13734.400859261254 5951.955934017594,12825.206572790921 6011.039148436989,12328.297538554762 5973.983917234162,12131.540174070631 5877.836451138489,11917.292582981538 5271.774519582918,11005.49256719925 4617.965135476258,10297.684526201852 3175.5195547100907,9012.847905457398 2802.8533417148683,8624.392984064827 2414.3522013636807,8091.78344193762 1785.8936736288813,7096.836074921264 1444.0342743684632,6655.9380292917085 1163.7135641011207,6386.078464362252 475.21384190983133,5905.921780156265 -729.330421451514,5310.624042537168 -1391.4232864793482,4467.027404574114 -1518.4671351345708,4244.374568117282 -1641.0562195001419,3393.010221190268 -1876.3293230891115,2199.677757795264 -2171.760550740868,1321.3825324713453 -2858.962987837326,-1024.9937814352618 -3530.9123229036936,-3020.050464721291 -3623.8079222949837,-3385.1193082067934 -3609.3352280572217,-3656.2996155215187 -3346.741711064762,-4270.499830129329 -3160.023005858036,-4539.793665737212 -1376.975629778465,-5793.259616551729 -452.1732760748031,-6716.749638870567 -105.94693135601092,-7165.235896370402 318.15513535959457,-7882.450001022403 642.0467204041016,-8335.118291831175 663.4374380315155,-8495.591097028824 609.7440654567549,-8605.255215843583 458.77117782350933,-8696.895656058978 289.4285643344657,-8681.980951726917 -196.78852342201824,-8024.553910921331 -186.7814127080794,-7821.371675829442 -82.6697808276933,-7704.296090215345 78.69675383217701,-7668.663696218309 240.06557908433805,-7734.833699510299 374.871502575372,-7931.365636100657 369.5367018292653,-8050.428379595525 297.3476630381734,-8162.420286741166 123.77661859931865,-8236.797584306483 -164.73790446761902,-8210.913419956858 -533.380458746619,-8060.768539528182 -1110.331985690632,-7750.087017872105 -1323.9703608856985,-7501.562795897015 -1357.8784957096505,-7240.911354415029 -1227.7211082169895,-7087.45397345888 -1088.832603101954,-7077.129182725356 -988.3066617514521,-7129.000286023617 -363.75712831680096,-7648.291123598184 182.81538858175358,-8024.985771013275 417.6347734752247,-8236.783504205336 529.8502115954315,-8397.24938775781 542.0642007687064,-8615.442807429592 406.71547930714127,-8798.706482377665 214.62851146236207,-8842.459464560312 42.26752746021549,-8773.269259686162 -330.37960562425747,-8438.677546108729 -1137.0075970371577,-7568.899709674196 -1227.7965112560664,-7434.374601068021 -1238.4387297442875,-7242.75062649714 -1174.3139796392697,-7139.231668146331 -1072.809234577504,-7087.485519269508 -894.6200202396344,-7134.106249606309 94.3191902604264,-8050.439677921756 338.99780672247,-8223.50210058742 542.0583404590665,-8554.358690912257 651.4184563154924,-8819.04493758658 706.2878638447607,-9339.374481248291 679.590681939195,-9525.735802100595 604.6505869887635,-9658.955762785616 375.54509027144394,-9821.866279832233 225.35565718411564,-9851.89859607747 42.27480050314724,-9745.523618084542 11.030894878667493,-9592.813770648947 83.92773966555318,-9394.290090845583 193.2699445216517,-9287.649189764912 344.2656992844993,-9241.5701355533 471.14855355754963,-9256.573162570214 567.3428739090014,-9308.33046264033 679.5844565774391,-9473.969683696643 693.1703077606805,-9638.584272154576 631.5244961588905,-9800.101715135594 407.08176007209244,-10079.659141045184 129.16705520063215,-10317.796166255088 -20.488657994535547,-10343.680625482399 -160.8240392377919,-10285.096468021064 -202.4836118083281,-10213.830543541339 -180.8257585024817,-10064.141091868034 47.48296904225164,-9852.420547969556 552.5398718876381,-9261.914960204083 755.5460799056714,-8813.94162869828 922.1163271273856,-8600.12253510513 1149.662435486315,-8500.689698558892 1312.5657812267882,-8528.780506743235 1468.7872645807054,-8671.271665587892 1507.7471273223268,-8857.792228571781 1363.6097894750596,-9422.07989910888 946.914231355476,-10234.892648614965 631.6552318035388,-10970.014050841592 332.36757942568937,-11958.768852843486 -228.65425152526709,-13481.810369957664 -710.5618717906453,-15002.55915060399 -1417.552173964339,-16897.21561008473 -2148.158882494297,-18653.12333980804 -2600.972166931794,-19609.122220532237 -2571.15344410457,-19844.063119483282 -2483.3308135663274,-19924.942130738837 -2320.793355353382,-19930.705244614193 -2124.555412463307,-19759.43986044792 -1985.2611205637486,-19485.135342247217 -1960.6450143224622,-19355.64481025085 -1979.797167653847,-19169.36988807706 -2060.0181410289333,-18957.10407667733 -2752.79515431138,-17914.7753311138 -2857.047438510882,-17828.27562423376 -3087.1444063155227,-17760.859886663995 -3352.436410521696,-17812.6468081284 -3783.1105331016965,-18091.73533311346 -4745.636670621504,-18855.151392628595 -5575.483494099814,-19419.411779987757 -5882.827525361098,-19684.310803848064 -5988.008789864084,-19841.48022140686 -6045.619371388431,-20055.208856796853 -6030.142547449302,-20218.112820790804 -5941.668601392082,-20421.81558639941 -5739.316492315589,-20709.406524171558 -5300.669580232503,-21175.71903715644 -5150.792369464901,-21248.328285508895 -4961.592854291437,-21267.736530844333 -4695.529056997968,-21160.72367054031 -3832.9973737863825,-20628.193885719957 -2306.5035227481276,-19562.661244539504 -2362.280188320751,-19340.22073980243 -2541.910225578215,-19226.087063713843 -2774.320423203397,-19273.860696199357 -3296.904876469445,-19541.465045198573 -4003.8831049268692,-19975.83603648847 -4855.498333191895,-20363.407718723352 -5023.511983541138,-20483.787414413393 -5123.487172542849,-20663.408741461943 -5175.293561810092,-21013.034177460617 -5043.753309256783,-21320.89557078723 -4841.716386973903,-21425.637088386684 -4754.639400458499,-21403.96959674735 -4324.7813693592725,-20967.935631511427 -2252.83100985861,-19564.23581467756 -2211.054755806739,-19447.17682747738 -2279.6000979937417,-19226.1987744417 -2414.350101477607,-19126.408696138773 -2669.9250220886543,-19116.11344138028 -3018.3841816272857,-19287.971230691186 -3752.112374975797,-19774.12464934189 -4788.390903487835,-20071.682473849974 -5117.744176502209,-20233.764105858412 -5498.220582415774,-20569.88021387445 -5578.65087155596,-20683.684588546585 -5634.330351315493,-20895.52088765719 -5605.8443143055665,-21108.1306893959 -5535.530419307357,-21236.663252002916 -5365.136900793985,-21393.071119227123 -5274.8082394978765,-21420.1600189851 -5140.222965801262,-21403.632730144738 -4992.954020344767,-21328.7916020278 -3447.296407122577,-20348.91072951163" opacity="0.8" /></g></svg>