<svg xmlns="http://www.w3.org/2000/svg" xmlns:xlink="http://www.w3.org/1999/xlink" width="300" height="300" viewBox="-64390.734830729685 -37668.28286696772 129010.1185353621 75730.23468502212" preserveAspectRatio="xMinYMin meet"><g transform="matrix(1,0,0,-1,0,393.6689510866854)"><polyline fill="none" stroke="#66cc99" stroke-width="860.0674569024139" points="-59612.58229238294,21307.172179532947 -59519.31449784219,22388.15896399671 -59432.07147200447,22723.321399000622 -59259.286100860525,23105.724303993076 -57460.5095467886,26347.39992079702 -57301.01976951432,26387.7690802386 -57298.85806669159,26574.240057769846 -57090.80817724376,27001.809484075453 -55345.83369817943,30100.580276925513 -55283.13350468597,30519.49362076754 -55111.51055691823,30517.575487181446 -54693.75734558602,31226.708928719647 -54637.29792860208,31382.6193992227 -54390.56167066408,31483.15872401641 -54387.077402873874,31799.4721773834 -54317.24192244567,31945.91409261877 -53854.72495992191,32470.63272147713 -53263.23748486977,32932.87149216196 -52937.25603518567,33063.2788198835 -52483.00618365442,33112.99525755721 -52481.76885014141,33229.36883357833 -52240.99584301514,33283.79927970766 -51157.818948029395,33277.37544537022 -50469.99879844844,33046.15610770507 -50041.52785533791,32822.74961540324 -49835.29340119965,32688.21803027044 -49742.12643737428,32309.973580033955 -49368.45909268203,32306.222830415936 -49119.99325016566,32074.858088411744 -48977.04599342641,31834.018257338736 -48653.275571475126,31744.82303443956 -48657.35889799598,31330.43358345382 -47804.811936405415,29596.442786952826 -47668.34941079185,29238.284085508698 -47488.71820418577,28475.04287484178 -47392.42904493056,27375.88564714415 -47425.13154923837,24784.046265519413 -47347.27173570774,21512.964441938435 -47326.82975176908,21381.620671653516 -47188.65848734546,21236.374749872833 -47193.176082672006,20762.678785008986 -47053.09018507434,20175.538920712876 -46892.97257011047,20051.332448379377 -46896.346703050884,19695.218964974603 -46805.6291899993,19383.62890598277 -46768.596220135434,18739.54126909951 -46591.95457768083,18737.87564366544 -46542.378239310776,18601.77210556806 -46310.24386510268,18522.840636407178 -46315.52528779296,17958.23922952741 -45459.63442368814,15541.48342944826 -44380.08888885067,12869.050790433988 -44319.726674188016,12809.974054788108 -43796.94018744135,11537.726671182858 -43379.964752255415,10636.761736889206 -43292.91501556081,10243.514029382155 -43202.522895604845,10232.278975362884 -43086.40455970659,10018.880442626936 -42971.48785334167,9665.629851140351 -41748.93713114509,6843.12887892712 -41510.74357677313,6005.7432137726 -41466.33941564204,5699.742737081092 -41418.42640083729,4902.203495775656 -41423.74240954911,2673.6645684502455 -41635.13984386281,-6365.997920461374 -41672.25441076153,-10175.781702279946 -41347.74837858356,-23510.832645388757 -41250.282340064245,-26091.21509237084 -41136.40495613335,-27112.584737275796 -40784.310440824214,-28379.350857025544 -40298.38660475589,-29395.04310563493 -39757.765663600345,-30249.936325625404 -38982.258170034795,-31082.046421788174 -38859.43599408784,-31127.98017932686 -38203.75345658922,-31704.447706226118 -37633.45576353828,-32071.355080794812 -37329.332427839465,-32182.40913315268 -36874.26283840591,-32426.556974008152 -36065.867795655926,-32694.114667043945 -35399.14461327587,-32849.08981443697 -34897.58319347958,-32888.872242914746 -33229.61894646931,-32890.13032862097 -32116.549302886637,-32653.695344415322 -31358.834515064656,-32367.403526166436 -31204.471480631062,-32270.990425477656 -31056.21694102526,-32241.95720320717 -28310.622090338216,-30988.10316845984 -27741.72773542977,-30773.744148745467 -27312.43008261306,-30542.243853302938 -26319.27012334894,-30154.689979689523 -25600.544700643943,-29797.482917867168 -25170.965258004944,-29642.632955483467 -25031.71729542818,-29545.69470005745 -24886.579122931653,-29519.743894266263 -24468.28433323783,-29339.65591066512 -23894.234983043272,-29041.92368094952 -23607.560764347894,-28961.79185033934 -23469.86989293205,-28853.23481292638 -23044.01805331568,-28704.659567588667 -22327.504054315556,-28361.216856280866 -22183.557450096057,-28336.73629907474 -20906.408674732786,-27740.619418538183 -20765.02245124495,-27711.252971921367 -20343.309697636952,-27489.137897710265 -18642.37337831071,-26780.97395035713 -18366.300315888628,-26626.605164590634 -18085.067686511138,-26534.396347853966 -17939.025395721546,-26438.6666009764 -17097.51712180051,-26074.8939681651 -16094.459546659364,-25681.374188692942 -14332.190304929536,-25127.33278761716 -12565.057398897452,-24629.659142457404 -2628.199988321394,-21896.33203527444 -2476.995930592675,-21702.86010628614 -2040.478643778888,-21703.05765971849 -1741.4009906818465,-21642.05014053783 -1153.7439760561188,-21448.671233552675 -1003.6958358663287,-21433.941421994736 2979.70649813422,-20312.030605452357 3711.581613281747,-20070.389923466344 4683.685432956895,-19592.603135427522 4935.199168576355,-19373.343287223273 5059.504649264874,-19318.140661304107 5059.481307592805,-19271.33867703847 5647.746485007783,-18791.9361716774 5760.0450935236895,-18737.247566289865 6066.641255843108,-18307.567633283565 6158.534021677076,-18255.22917668817 6341.632101293457,-18037.273115278294 6997.677774672064,-16722.285288833555 7062.2736301902905,-16653.30303548868 7180.3767900755765,-16306.088379991745 7304.06622114351,-16103.89676830052 8214.306418928963,-13924.11235380585 8595.446068412204,-13190.006769677502 9867.750458369575,-10320.002943733145 10467.602370216835,-9305.165719421844 10733.106027837242,-8928.801004339912 10921.113890644927,-8752.276501199594 11219.112338462804,-8361.223982774076 11318.323606807786,-8269.660898256561 11759.4285029363,-8176.609158355527 11758.63019750035,-7838.710206130527 11861.226106392607,-7733.228817509448 12956.360806061144,-6934.435745252691 13461.441711133766,-6668.8405624107445 13713.717125619662,-6461.0355738315275 13845.724994245045,-6424.151707731882 13966.1275295369,-6299.756588899274 14346.799298492158,-6055.995020461494 14476.384271400202,-6013.403439648456 14853.135656331755,-5723.426775298125 14986.457494692473,-5685.558929882266 15233.297301606948,-5487.972605503656 15364.822580123568,-5451.913049963242 15743.23400917577,-5149.690484524628 16131.942754844675,-4950.313196771636 16258.530423595003,-4826.8779378358995 16757.608807399996,-4498.886355155019 17272.969918800023,-4232.946937121929 17399.664585563252,-4110.690602706899 17910.808378339632,-3772.6983123469868 18040.127211222403,-3722.5898180541385 18801.75058543595,-3212.134279742788 18933.1591050657,-3167.8651315916322 19694.179361348717,-2624.985719057405 19826.20584759517,-2591.7409514216765 20576.63645132318,-2060.336038254663 20700.399750561297,-2019.8501940563851 20823.226043591207,-1898.7304227581294 21069.931348914277,-1768.1917784916584 21553.369831121065,-1695.3262935100583 21552.39659504278,-1470.8651796491115 21674.779439333226,-1358.6183273480383 21919.892829081295,-1250.5770011426364 22286.490747661792,-970.3503940127725 22904.5492994992,-619.618467133143 23638.796179309753,-111.90840873667021 23764.32265373474,168.84155924171958 24133.706431966155,170.62184757875866 24873.03612760455,658.1660664506547 25123.15230139001,776.5788990974147 25243.53470315301,903.4085704666576 25989.546456952517,1041.935280578521 25987.920645989667,1352.7275660138166 27350.587776157125,2240.0428345554055 27595.40079152315,2348.364555855491 28203.661049962582,2789.321622734746 28578.536284637994,2995.7309254827624 28695.90711552632,3102.9439416376104 28828.26940778515,3144.891890730658 29311.759609969202,3489.0009781294634 29931.713030129198,3871.706519342703 30055.739005750256,3906.039741255896 30183.198858012976,4013.0904571607703 30315.883341708886,4045.151842598363 30830.845884824615,4333.571643736818 31643.097735513198,4644.306252865218 32330.680659651283,4850.241416345851 33177.57998237841,5037.132119132569 41404.11409839345,5974.375944848965 42059.68832047071,5984.895608886354 42059.17036338829,6046.017151342035 42202.98500240312,6069.167324520922 43521.91019627126,6220.422508741953 44047.66223710712,6241.551055466613 44047.30289241437,6282.039630509312 44696.524094689375,6364.510881729514 48502.17979427485,6779.437299680057 49685.386564518536,6799.085855602632 54492.59058606799,6630.539538277249 55797.38337709166,6566.00482235343 56318.70206159885,6499.369214765578 57283.16261062779,6168.506550671771 57830.10472952976,5853.237386434767 58389.104818415355,5355.476643340986 58701.85439937026,4946.551829234285 59010.965424534304,4396.352737610469 59199.168429687394,3922.0027821217705 59341.91632875199,3359.741622251089 59363.923046603035,2392.1475932473218 59330.3551620321,2142.1415107755533 59246.34250994212,1767.5517032440105 59033.35984822039,1206.4061528970512 58659.27129041735,595.7937666931398 58255.63642864617,129.22207131598768 57972.671177733115,-105.04152694628728 57461.54173032534,-439.4938776720732 57006.99108722866,-636.3986866339424 56535.69372843391,-781.6493835480034 56294.27956999753,-820.6514896524403 55294.7282500264,-831.8725618527395 54441.601540559575,-649.276746833194 53865.52355356507,-376.1667335852934 53437.95772583061,-95.87012581328383 52957.930508303245,307.6245844008507 52788.29047238065,540.1384126803082 52699.79323532527,595.5771392072614 52377.79797711274,1068.753099689838 52148.15389062154,1307.6495540482879 51914.85434477107,1669.9803405113992 51751.9905123274,1834.0482001337568 51035.900946684014,2808.9823338103342 50793.91620517782,3072.5924609191643 47668.28547770906,7140.965963653074 47306.4391127949,7886.304400977147 47115.85045052656,8668.94984401274 47107.01124966738,9599.58107807323 47146.760991709125,9931.493990565841 47281.63705117609,10409.360296156368 47685.68967862837,11297.757082730324 48093.73302725418,11821.019438807158 48486.84530828104,12187.467370625534 48915.23869897072,12231.73693621783 48912.822738301365,12476.567316624682 49616.756587620366,12835.822824855562 50124.40971157763,12985.978837346378 50774.13336963723,13070.555786084871 51289.98048452878,13070.773330753043 51811.783588356884,12999.791256564966 52436.04993839063,12828.585465756822 52555.05003770918,12726.239561292705 53009.57803504744,12574.370353277616 53819.089367809494,11931.068535639257 54083.63753779907,11649.553284701717 54929.07806701126,10532.207678782004 55076.56148952568,10396.305903713235 56611.53717206157,8375.992533595101 56835.06776274997,8271.747227645223 56836.8479751857,8116.357652969983 57225.81503355935,7573.095083684285 57299.68894271991,7525.943242285767 57681.24360238157,6987.465089310249 58295.56358948592,6210.168093463166 58372.77774126214,6160.481031881218 58449.20332983435,6013.309217132573 58831.04277965664,5533.890649826559 58904.25150823988,5483.81888796573 59569.27593140132,4427.10865081003 59820.94756093933,3566.8314125303214 59841.23116628567,2328.977004514439 59667.281033825,1606.819851529409 59309.429932494284,832.7405259856922 58696.74682597003,76.6527735723712 58329.39063582898,-228.21591846246437 57709.15041830842,-357.7118619663594 57711.87109178272,-592.0014331734626 57488.57645412402,-711.7499063987963 56907.91488390377,-901.7276286447019 56419.64373902598,-974.6376693695629 55430.75188751608,-980.5844956189025 55183.14072318978,-947.0781269949488 54342.67074878032,-680.9228673793348 53670.028407098216,-326.5658876056863 53356.91566351763,-55.299120613261 53259.21612802775,-20.25826915089936 53172.45669336109,108.49100300053806 53074.460264426394,156.02213998105927 52899.98437904119,352.85235595254005 52412.28344983965,1025.1711944382323 52176.8078624339,1279.0274763082875 51860.33088539829,1747.114227510169 51387.1459669912,2312.021445604276 50993.40210370046,2879.860250809638" opacity="0.8" /></g></svg>