<svg xmlns="http://www.w3.org/2000/svg" xmlns:xlink="http://www.w3.org/1999/xlink" width="300" height="300" viewBox="-88464.05960016484 -69117.83820199677 175105.9631526085 139345.52262680023" preserveAspectRatio="xMinYMin meet"><g transform="matrix(1,0,0,-1,0,1109.8462228067074)"><polyline fill="none" stroke="#66cc99" stroke-width="1167.3730876840568" points="17309.163625699628,7222.7252482153735 17900.159270189994,7678.735347905058 17899.877144948478,7755.150713779151 18376.826826579818,8047.317608393907 18728.18734373579,8332.827989388403 18727.987197474115,8384.635030793574 18842.890349895515,8477.029074607086 19197.357830315323,8671.414215948324 19314.283081729398,8845.694078794746 19429.078213037075,8889.930508275147 19549.945232458904,9030.03874881776 20604.101547239352,9775.518143011646 20718.08118872494,9865.28651776304 20723.023215779474,9911.157729747243 20958.67185103577,10080.277735175008 21476.373357361706,10352.56120142476 22148.766425485628,10621.622575306968 22846.159011398846,10771.477685970554 23262.883397208476,10797.810365788973 23411.80924826499,10657.004967981959 24678.140812741243,10663.289070444715 25607.05514094291,10357.345784051433 26096.6054817978,10084.855470312914 26983.97539823915,9432.526847398276 26984.48593440959,9340.82900704526 27361.59130485831,8991.423911780861 27778.153591336195,8479.85497392314 27853.74928783671,8306.471969289369 28315.17295522327,7626.484717938396 28315.5597202154,7560.258757245874 28845.17178538088,6848.944774220926 29147.509459049466,6699.127170235718 29149.618590106882,6348.225445372197 29223.256561752925,6220.702314329811 29597.94976640962,5682.614847366397 30049.760220892287,5329.125116389592 30052.046345781142,4960.0922850326615 30201.946953348543,4676.078264172446 30422.48308772992,4404.2544717240025 30422.834470339636,4348.217524510491 31451.567985081056,2775.491785190932 31724.91555239766,2680.82145871852 31727.681665482887,2257.65370705049 32130.27407318735,1302.543418597478 32252.976063106933,653.4254267549223 32241.077897597683,-434.62055285100115 32099.671862583913,-1076.7660074858431 31873.244838300674,-1685.6172942597398 31281.066079561224,-2712.323300822813 30963.592883285597,-3014.9273877696664 30718.37397556353,-3366.443983449461 30472.826336640366,-3624.264594849571 30392.37535750023,-3777.7732433101482 30070.884247699003,-4069.8949842270004 29444.817735235792,-4840.47759892389 29367.664525647233,-4914.856156810797 29064.172837355258,-5013.73261221527 29065.937859501642,-5308.93732518677 28992.52147584277,-5444.160984610857 28697.77299093356,-5808.560504315449 28555.136614169605,-5897.472591277641 28550.321260198725,-5980.39238993876 28260.357731123466,-6267.0258530903275 27970.747309395207,-6620.988897931065 27899.084648851895,-6762.574905312425 27222.639677611976,-7500.773214642184 26906.731038130405,-7922.167422066894 26515.314115601617,-8288.432998392209 26356.678671798913,-8518.540435119086 26038.62631101024,-8841.196438181725 26039.062565734974,-8922.703452836744 25889.96822886884,-9015.1971596363 25890.401977381152,-9096.704162877206 25509.105327356123,-9457.997953512737 25509.48557741103,-9530.525340264387 25361.402355672508,-9624.551502815642 24987.503274778435,-10064.252137560054 24908.019901425807,-10207.355492292194 24695.08211558987,-10391.781077026151 24470.05493712492,-10701.512128643424 24179.644946041684,-11003.441376504148 24179.902315779887,-11055.246588679984 23889.35138753105,-11336.436247000382 23461.973921339697,-11872.120962599092 23109.528230832293,-12243.70413350271 22831.208812781635,-12331.015799190625 22832.358372720355,-12576.140487926608 21803.53877144451,-13770.75790721868 21803.7475226745,-13817.38247445429 21671.532805499464,-13942.30725999136 21600.125575995942,-14074.384620162986 21337.815112878518,-14309.876964874475 21338.149887994685,-14386.289402663544 21204.24585277597,-14468.38234046496 20878.901202816538,-14878.278026388261 20808.867754131283,-14994.795719020642 20747.93564651324,-15308.82685317264 20482.318314431133,-15309.950920882677 20223.28208528026,-15616.687816680254 20161.30935114955,-15761.655679449763 19898.87969998391,-16007.258078230821 19446.142443348108,-16578.25869877429 18998.984585719936,-17055.16719247805 18864.93858076451,-17129.683702984137 18865.40150746563,-17249.266591965024 18212.6499598297,-17815.998871317734 17418.32465558085,-18599.52459436663 17268.69746136356,-18671.375766524252 17124.663771791344,-18865.46341945075 16181.472782466375,-19668.47329247127 16104.167286665968,-19740.04783187908 16104.352365222605,-19796.083248865718 15886.230970145012,-19942.97595182457 15881.099173788138,-19999.9784309702 15775.342536190796,-20031.404876529556 15775.518574401476,-20085.817401046268 15372.204736408019,-20409.74794776798 13112.023176651614,-22479.310318980526 13035.810707188979,-22551.00528567472 13035.974047191614,-22612.134609891553 12891.331817389277,-22683.836977477084 12891.479882154747,-22739.872166648107 12597.20382503182,-22959.68897150221 12235.585711904183,-23035.89889190657 12236.326217822343,-23331.18431970643 12024.267969716513,-23470.54824322469 11955.409622290845,-23781.459481087033 11740.476682652474,-23781.98132583063 11456.1468394884,-23879.445558608775 11451.355481228029,-24042.46887246949 11386.764002029913,-24110.311434613144 11168.872521915431,-24245.507063746503 10888.521466873313,-24553.16932591563 10743.835007152302,-24645.18410334699 10536.538843247785,-24707.97419944781 10536.80724676697,-24832.30458684009 10255.344612945304,-25138.550871058273 9896.736569498491,-25411.09207897213 8698.787180417556,-26564.17969289962 8370.822851254305,-26848.180097169818 8222.411129668671,-26919.289021307395 8222.587339915086,-27023.933361576 8017.641676737539,-27157.929151704822 7948.519014069787,-27223.05648444952 7948.610222100069,-27279.09126169633 7803.787523128741,-27371.018326055182 7518.905153773573,-27661.223429057496 7465.147963782006,-28031.705663990982 7121.606711893494,-28032.218672835228 6789.067094166108,-28283.9422008935 6588.60444994414,-28518.97558052882 6324.7171681288655,-28697.616695543013 5264.124625821454,-29717.686328561853 4937.136905476423,-29959.433865398776 4804.1020050733305,-30135.69963853771 4472.1818267583885,-30380.701538362788 4472.233110878032,-30436.735970826765 4282.3251467360205,-30612.780020114827 3954.364661390179,-30701.12287034134 3954.51794764223,-30890.55188139874 3755.088949612427,-31053.54565551017 3755.1168126120415,-31089.808257403205 2060.975292696037,-32650.10578567112 1794.4447565909957,-32738.276890200403 1794.5037020024765,-32898.86778637008 -439.58888253600804,-34924.689695022134 -501.83326128624844,-35094.6847053812 -636.6629844362689,-35094.669013430124 -1155.3615504962575,-35614.16016373778 -1559.9992625189138,-35945.156367944735 -1624.0552408611284,-36058.92972921276 -1762.7944468876328,-36141.76669069675 -1980.2960582465503,-36383.085920632664 -2421.373055968299,-36729.277310327176 -2803.6989905451214,-37130.71923316624 -3268.196012625872,-37508.59273619178 -3577.954827995261,-37834.734503415944 -3769.5845605462696,-37874.56522642427 -3769.680905085507,-37999.646031130214 -3887.7261085417563,-38124.5944311472 -4129.4157073613,-38337.82426940726 -4285.162975578653,-38419.19352135329 -4290.4147686812785,-38490.50416391316 -4778.607343044676,-38892.47337488625 -4944.875995919527,-39085.87792425378 -5111.040777075989,-39167.21025850495 -5448.747238516592,-39482.67002952699 -5448.792595022895,-39523.42144211444 -5971.607328753755,-40059.91910185306 -6271.4262833856055,-40696.71634211359 -6368.11943930588,-41136.913138367345 -6369.082714652394,-41877.68709769846 -6108.69510517926,-42950.32718628421 -5899.919333434245,-43465.583571015486 -5594.005836445732,-43965.14253212932 -5410.064249860555,-44070.07568612714 -5410.287302478431,-44272.10361250447 -5266.098477845153,-44362.8279669732 -5266.2349564164515,-44489.829201100874 -4550.534743945804,-44941.22355194803 -4446.921393784671,-45120.03545038366 -4024.2323503431194,-45120.40073719369 -3476.426806295686,-45180.392155398105 -2866.4237430845915,-45157.13064539403 -2150.840618327783,-45077.549248847 -1604.4358483335477,-44935.907568770715 -873.3479750324451,-44611.72562278384 224.5831350639284,-44044.73860523802 229.76835413759727,-43830.795714041196 624.5899354379043,-43830.761292870404 1349.5519175893642,-43414.98941968546 2322.931739912481,-42923.53971041512 2540.992379247814,-42750.23927007132 2992.7443699130285,-42561.510178061006 3449.604807911096,-42301.421170064306 3672.78729635164,-42122.972529626335 4254.791641293043,-41859.259143388364 5183.585597507239,-41298.89790290351 5541.218308350584,-41127.558095167726 5764.271506787639,-40949.358980733545 6128.245625073722,-40784.961972236255 6713.667777237745,-40413.28782260656 7424.340742062866,-40050.59302181122 7547.409873561936,-39933.41714083778 7902.303266522125,-39785.69434952316 8617.027146614757,-39340.582138033824 10160.680808542795,-38514.47403289118 11001.488327089164,-37975.718561142894 11370.7508554025,-37833.19327818683 12601.775514411738,-37130.83622993418 13092.538479753815,-37068.93800738411 13091.952163348631,-36849.81209320913 13711.081578188656,-36486.52967352703 13716.16884956067,-36450.857494124044 14583.48419505624,-36006.38038164702 16449.98640729952,-34949.88556773269 16693.205613394908,-34801.3350044949 16698.25192977858,-34760.56562460297 17804.44796664324,-34167.05179339222 18043.836404134778,-34005.582851654806 18049.016170768078,-33964.1207569054 18172.986666554723,-33919.8874562912 19035.963910775627,-33188.156156450685 19726.87975664913,-32273.598584756484 20188.567973919464,-31110.267242322443 20302.150231869073,-30764.158098483338 20377.00138099664,-30324.97835135473 20434.715211232782,-29328.397888768814 20407.06419242199,-25123.761071389792 20289.4191592997,-24212.39884133137 20187.67208751554,-23703.664190709722 20068.623920882997,-23367.68163402267 19800.550281606782,-22726.135043678398 19387.850025821826,-21966.257274520725 18537.326066778787,-20731.419457535885 18277.96264202068,-20430.28741023317 15308.019394577736,-16436.47714888031 15302.645433104275,-16370.269217822712 14073.776984193588,-14799.85967589042 13202.91085534821,-13594.965304383892 10231.098040746687,-9669.35654186307 9818.297858230151,-9038.345114600328 9205.997393833,-7894.625648922704 8879.785497054312,-7007.704441151807 8544.52690926726,-5766.593092403573 8184.968654163468,-3197.608706511048 7171.115271309397,4833.7985320515645 7090.841423541401,5763.275587435113 7094.402648846867,6944.4882047807505 7309.231545617214,8746.497721196716 7487.198906885325,9411.114678731501 8165.529783702095,11479.334952532243 8515.150305036183,12701.736412556624 8669.937400208579,13029.263670534594 9504.508633117033,15667.852540636215 9955.090098404911,16667.96256135543 10803.539058492493,18147.231028030128 11113.429168396167,18422.28995329215 11544.825740611705,18925.839926446544 12023.731305112424,19377.73845922388 14390.182948420146,21172.453003516363 14400.146848843933,21269.27808633778 14906.693930834668,21571.388775115847 15538.530322685114,22055.888137136153 15538.247216328824,22143.961702288612 15918.927190269158,22379.54765444265 17078.93356944773,23242.3211932949 20521.42789628987,25917.219322227353 20645.618083740763,26028.015188291167 20645.41877877092,26074.642365629017 21787.06299655319,26895.821429892796 22801.883335279606,27761.48697875101 23317.290056238628,28100.18978049951 24586.90343008703,29079.552088130455 24831.531766160886,29279.492860149043 24836.387136594796,29330.463625033426 25471.915146313062,29760.598038451473 25845.713403930844,30069.38303625925 25850.584477028508,30115.260407337504 26226.661618355003,30344.905446921843 26864.877213566397,30823.854155347744 27114.037470942607,31095.261489851284 27248.354344017946,31148.432088182188 27883.60444025835,31598.918650524975 28505.463117043255,32119.353497542466 28510.417545109307,32171.192379138854 29013.624493662468,32474.688622739595 30154.018761330746,33354.93597395239 30269.966908610408,33456.43232160107 30279.964773254225,33539.39071113543 30408.200345114394,33590.88481791633 30906.85160304953,33971.05765421614 30906.557731028715,34016.90746701573 31290.460646230767,34240.093360123974 31665.005191657754,34526.19762879062 31664.402961143165,34617.89719622307 32305.226139021113,35044.658530064466 32556.183445920116,35253.586646018884 32555.79858724489,35310.57503279668 32926.12002911674,35507.723117916925 32930.60449003713,35599.4574943635 34317.988769946984,36586.96517044177 34322.734971746024,36680.25726930485 34829.161998258685,36979.208775700055 36095.289522504456,37950.38467212596 36225.61193324818,38088.91926114675 36598.7029073748,38349.754707380765 36598.07320111507,38432.64656451059 36977.98070443803,38644.86175843252 39003.547964161604,40240.19656555037 40282.34493976096,41193.247951409096 40522.249117569285,41388.860794159926 40527.027933359415,41444.943055469404 40913.46281815367,41695.17650993052 43693.79873423733,43838.68369863162 43822.804650327234,43944.774447613636 43822.01596705864,44031.37832812348 44198.035612257045,44231.87277318054 44208.363132366736,44283.77888161258 44333.46758913046,44341.74959528094 45093.74682002453,44970.37802713707 46370.12843305428,45919.953317711064 46369.293566276494,46006.556824198575 46880.22211291813,46332.4819692371 47259.16162739079,46628.75327976469 47521.10471369311,46895.57372959106 48534.46238741479,47599.97142394767 49934.97100366255,48686.473061399935 50434.03379382719,49094.1756977906 50443.929965220406,49150.322849764416 50820.76653198542,49385.201205065096 50820.16401054796,49442.18808855981 51447.30139685368,49940.4704527021 51962.873980258824,50251.70902950477 52721.38621475202,50866.26048545964 52970.21912355458,51113.55125428796 53277.71394019951,51315.30595985084 53340.05888193794,51412.45505455761 53724.42290118674,51621.22391936472 54223.08848436216,52008.9431248389 54222.16850587318,52090.451063475535 54602.95716738371,52307.45457993662 57103.31514810202,54305.415310821 57471.85534340444,54619.65351820331 57471.42850884228,54655.312978946335 57975.26486788122,54997.6365551227 58229.403143991396,55199.41511729425 58357.47214529873,55356.75474463369 59240.63343017551,55996.410953034916 59743.315145399785,56410.23872759505 59747.91512999194,56461.24567194197 59873.7371496661,56520.499059203845 60876.11508027747,57280.43031288692 61758.66768808148,58045.76693117524 62397.436809906605,58459.38677249106 63404.939231826305,59260.1654502724 63404.322942824,59306.789693443214 64934.75407178181,60436.08292841891 67730.58782545324,62635.4161298863 67729.92903624734,62682.03979384204 68541.62300009606,63128.8198835236 69135.34987716287,63380.87610885167 69740.60418757492,63576.17829542752 70357.55839368136,63704.370113484365 72552.46811934517,63742.278382114266 72859.90692077274,63695.12745096772 73328.76849701164,63578.95822615915 74633.59563816592,63123.974049306606 75181.85171192909,62839.76280830912 75193.91367649932,62757.04702195861 75714.65786333276,62500.98426971168 76210.1975211594,62140.944855908005 76211.67986311196,62047.700000324265 77128.22873464816,61290.300606886885 77139.994024984,61228.310740037436 77657.84475103609,60635.862988950765 77934.45484597162,60381.01092458098 78379.06318907136,59715.16489825079 78380.22857254533,59643.85036274123 78686.14400615724,59174.99992932192 78760.17246006949,58959.19120727354 79201.26251431946,58082.89916020471 79409.44721850645,57520.764960052045 79791.73715586997,56204.061371097945 79794.14837126882,56059.01556912572 79998.96719630362,55125.58398726334 80139.53141379968,53920.346406040764 80156.49750975447,52432.72121710076 79937.61822143105,50998.94248287982 79590.63143077704,49796.22666359732 79291.84293530273,49101.44175096112 79287.94513586578,49019.85332648862 79010.66727966952,48662.24723865586 79014.15936499894,48449.77213586336 78706.26113855398,48037.101848138365 78630.55620543899,47780.323678297296 78471.83560051963,47580.82984520633 78141.27341530657,46989.926343286425 77058.52837431662,45474.98011582431 76765.06158449547,45121.82778564747 76473.95782747844,44869.77209473909 76464.88466507358,44760.815115547535 76167.60115441873,44409.194530723966 75853.6317993008,44124.17198614562 75417.83895720395,44005.05531089733 75422.6561674131,43697.69274917242 74669.3734532293,42872.44612216718 74450.60234073878,42760.24523424008 74452.54408913276,42634.70974386875 74022.89520835219,42235.75632869251 73688.84093119852,41883.211096337254 73689.47527553249,41841.76875817616 72465.30161996582,40714.089685084095 71461.38920623313,39720.04877781187 71462.77272419677,39626.802961069036 71014.77732618661,39200.47885818058 70684.20542794108,38960.378785126006 70238.74593811834,38520.78074926317 69793.83826420137,38400.23672656431 69799.7870917931,37989.60802473781 69680.90545138676,37937.454648275394 68471.92870945332,36757.93169133404 68021.68260110194,36628.756489158215 68026.13293696733,36313.44479088581 65718.25686408885,34000.93445860837 65288.66813437257,33487.326663809436 65181.81908316844,33436.22673902222 64960.3418907989,33173.39403270576 64525.49777825646,32800.71811579268 63642.07808375797,31917.741678684943 63435.25515376931,31695.934350382817 63430.876946507975,31639.832239474767 63106.997611006416,31380.57801679268 61692.214336426805,29981.812741859492 61693.060876650205,29915.589494689473 61481.07397875936,29683.612689054644 61152.91439707504,29443.522895678856 60822.78568352242,29125.0212000044 60393.455438733545,28666.183754643105 60394.22020310897,28605.054460738575 60074.43447237156,28387.07852826219 58673.393704725735,26989.135470286827 58674.63158366585,26887.253010087436 57600.60176255594,25916.48940374933 57601.81674036198,25814.606752413292 57058.27375833397,25346.85576606427 56632.72673685685,25242.71458720118 56636.119635806455,24953.29831571734 56532.45278187539,24844.142614216456 56528.522651929474,24742.19986709951 56001.0550477317,24282.70348355741 55682.13484529982,23947.767717437302 55682.72186341446,23896.82624212147 55579.972201052224,23780.448524249503 55261.281394667116,23560.825065499583 55257.264535000104,23463.977616872045 55048.55485006026,23339.33906133146 53989.48785383796,22272.74940520485 53463.20661529874,22176.31629015886 53468.936318084285,21658.265706102968 53152.94572607751,21438.123392744503 52628.08890630735,20918.500152990262 47522.69347279988,15846.653002068986 47523.593769995714,15754.957456911477 47217.24335502394,15546.876687234326 46699.50696485271,14992.924250028487 46500.28135179501,14892.308014304921 46501.779962558816,14736.28729511291 45885.61982439026,14210.752490124876 44780.11772164863,13062.741265274366 44490.602452967425,12939.355871581849 44493.03591334784,12674.45696635 43928.2123235199,12098.702481869148 43562.92945120734,11596.130417064012 42820.0137936175,10799.841735752538 42459.16300307847,10353.435415811715 42459.69864407022,10292.30485618621 42176.12195120077,10034.407553631916 42176.66300413341,9972.240870320738 41717.01337951185,9424.867685591227 41438.15271122589,9188.728805719975 41165.8516919717,8885.91430151431 40888.754535839624,8520.903923482227 40889.235212362524,8463.917784523472 40612.61435922468,8141.843081545896 40338.68670428804,7915.308604737179 40339.54879682084,7811.697433037626 40062.09109092233,7581.95466921938 39705.67578712309,7161.26884603488 39701.24388906858,7074.625071628012 39328.75659502539,6725.159975052382 37687.97893019789,4811.870229428057 37600.84955972803,4373.065184708961 37331.308439012806,4370.983708136775 37147.53156169875,4186.17050311922 35979.5747304631,2822.2313376063066 35977.85210112486,2757.1126242426153 35620.01663945242,2473.1535569584635 35621.2979043978,2298.5687221618045 34994.78090789976,1663.6768828987708 34811.14040367037,1433.1049960596115 34811.542225498655,1377.0686230746248 34234.017841961395,729.2883682763788 34188.13246905347,603.1480948788886 34141.91776225731,602.8229080501391 32947.60600400221,-745.9071408049118 32773.573071615385,-858.2989577301198 32774.5355681199,-1000.9368959869415 32513.147409477053,-1298.171206698796 32207.141014976853,-1606.8258106339513 31825.87289223645,-1732.5548902154128 31827.996438126014,-2056.684851607753 30739.538495249755,-3361.1293956044424 30417.852784855033,-3614.4201789702365 30418.776936191603,-3762.065810864545 29695.326578285047,-4556.258086911288 29531.842067656045,-4791.596140528236 29064.234786101086,-5024.093706986542 29065.907401369048,-5303.8431203859245 28829.216699850163,-5621.276805155412 28528.83898408517,-5933.892015646968 28529.14296468762,-5985.69742018803 28149.414570758912,-6363.771650061793 27923.37844594116,-6683.429652142927 27469.95912235366,-7152.275623976011 27253.545786703096,-7494.728657363155 27026.858507103392,-7584.756261085945 27027.549415936264,-7709.089117311429 26951.006110288832,-7802.075596401307 26440.488392311763,-8023.157353104013 26442.54412668529,-8401.336348076587 26157.644082849052,-8692.994906414904 25588.58581974602,-9436.857910249 25377.292425489908,-9619.028945492037 25298.401959996805,-9754.396150055558 24596.54041356753,-10524.732245438032 24174.69753850975,-11075.995031539298 23757.51071103222,-11513.223402492018 23757.712990947726,-11554.667550063006 23551.226293114916,-11788.195357240436 23268.707809813335,-12069.740065476422 22985.274794119247,-12164.510641359275 22986.421144189946,-12407.30413753544 22638.119793434464,-12798.173890430102 22638.481101977322,-12875.881560773492 22500.836063246916,-12964.590194382376 20896.11702199601,-14867.065921729514 20896.335560251056,-14918.007499880701 20762.43114913143,-15005.182381468105 20341.051218658904,-15511.290634306728 20341.22138264444,-15552.04388040832 19567.63007306424,-16396.45225495492 19359.090405437848,-16661.494483564973 19359.27255520502,-16707.341824398653 19144.765879670387,-16962.814268812886 19006.92127069686,-17046.242935329883 18710.815469058834,-17435.931077957874 17752.030258261922,-18309.850654616977 17598.46002274633,-18390.01527480009 17598.40099142622,-18455.46305209389 17356.32355066247,-18604.839950213136 17356.541204276677,-18665.969584337407 17121.345524711815,-18845.702677331945 17037.118839995946,-18957.46570450327 16882.341604200323,-19039.51129045779 16808.81476419587,-19173.164165281607 16727.85631377522,-19208.152208218857 16573.394939202575,-19386.976444110405 15800.10887145773,-20031.41102250435 14903.16517532496,-20884.961923122108 14614.293248008522,-21115.07364671622 14615.605209739138,-21552.90875744116 14114.86575764979,-21554.383506990038 13971.60463912018,-21679.127982937505 13971.78270396072,-21741.293470988036 13828.350879722571,-21809.048682336714 13753.001465947431,-21917.361413483708 13403.86361713074,-22198.77069040861 13201.026141395309,-22438.48979532168 12995.22791374364,-22572.8716029615 12385.697115030991,-23189.466725459184 12256.522260972486,-23250.92257314137 11719.72045167707,-23756.56057510841 11316.32666761451,-23825.549562822453 11317.113941439087,-24165.041030602846 11110.482828822463,-24312.986372819578 10435.985479886638,-24977.573950694405 10303.07724806888,-25055.563106962385 10297.87449279793,-25112.559067017977 10098.232968503715,-25242.57380894924 9695.398243527023,-25666.201407005436 8288.808217367436,-26908.815904610645 7363.602196502517,-27801.33133220009 7167.768768844534,-27932.341834464947 6714.659948066355,-28403.19447872617 6526.479430622419,-28534.34118422443 6143.722079282632,-28911.798359479348 6143.766926146754,-28947.456728272227 5631.532894807818,-29391.257192973386 5442.963961033258,-29632.531932362934 4989.883294726355,-30013.428997304916 4989.940519846775,-30069.4634595933 4926.652624532887,-30130.39722758414 4669.009351466668,-30337.218063331948 4532.588867017421,-30395.928008544815 4532.655259393578,-30467.50356994663 4348.061133315268,-30625.327561754086 4215.875322535548,-30801.92163261742 4016.145834257147,-30944.55021394354 3755.220303723384,-31224.497882424927 3561.0730964388385,-31349.31747734032 3555.9320736698733,-31405.355556018236 3431.617823491411,-31476.760848937345 2716.4291473730877,-32126.5693912832 2716.4579353732856,-32178.372972227276 2588.5557727909527,-32245.787053999342 2261.0121031841763,-32577.751414638053 1938.4303250287537,-32836.6486264707 1872.4208145764019,-32944.684670420174 1478.573455640407,-33265.74223124324 1354.2069354555865,-33428.786470571365 -983.7541002964994,-35541.06886585154 -1298.5654075936418,-35846.63410086416 -1298.576408611084,-35888.07661335833 -1705.3127563786898,-36194.71257469616 -2203.2896825071816,-36265.91559003244 -2203.4892308562635,-36709.00443164199 -2285.9333301251304,-36789.088634690605 -2632.886651856399,-37027.20812294328 -3316.305757623429,-37627.707124744076 -4093.1381890123544,-38393.88814885102 -4881.354302710218,-39030.25371453099 -4886.739055267989,-39076.870825380254 -5324.1552162640655,-39462.43137747416 -5757.72310862938,-39795.98172812163 -6259.694225774801,-39873.93305543585 -6260.302459128134,-40349.65321483872 -6399.26885750377,-40453.07878764841 -6404.723813713426,-40541.13606307572 -6645.425355547547,-40841.27023710763 -6902.732811593205,-41535.067957362946 -6951.110114793432,-41752.56983743151 -6947.311649881271,-42840.42491202249 -6894.223281126432,-43078.790392513765 -6580.929396133546,-43846.75725915763 -6217.929534854037,-44361.71266693204 -5721.039542867967,-44960.71777257055 -5384.683087772853,-45287.45124811762 -5010.779264242168,-45531.31678795168 -4509.861566093239,-45754.206035806754 -4116.58533505859,-45834.32694835649 -3086.6585028802865,-45833.35695267698 -2347.815864696259,-45613.09059917681 -1147.1911739204245,-45022.63152485661 -944.5125748159104,-44859.66692821268 -357.32212100052135,-44559.21137958859 120.68257877518411,-44223.28673319315 609.0226026686008,-43973.39170427844 1398.5447880983004,-43468.93626224728 1798.4607931267676,-43275.23833322492 3080.0963946750244,-42481.766834566886 3371.7458980615875,-42362.602122005315 3371.7108350348676,-42311.66320463973 3475.2631575281175,-42284.653614102346 5157.203042464805,-41321.89152102166 5252.92564699268,-41215.940049292876 5653.261206519959,-41034.18551634685 5945.835675018203,-40821.79398526177 6448.366797751741,-40566.98007923414 7067.712446123135,-40509.57412780204 7067.263191112463,-40198.327336834605 7377.567888891497,-40015.006215747606 8046.651047417884,-39677.75274331064 8269.537828021077,-39493.9996223674 8854.258006410488,-39237.07124395603 9083.464880652476,-39050.16117547206 9783.598357938312,-38719.475222248635 10607.723641032819,-38246.567748696274 10618.013432422269,-38205.793763043686 11571.643400157393,-37714.61144663332 11690.420891066378,-37604.50665807569 12410.002782474226,-37260.83421627468 14626.163527493949,-36006.25296601524 14625.96218450013,-35938.90921215646 14995.391547346999,-35789.97841977566 17935.20898886397,-34114.33857144009 18183.29886734599,-33904.56701868764 18643.650749696382,-33622.66144661997 18745.930110549125,-33526.34702288629 18745.75136560267,-33479.72428304954 19062.04148199002,-33228.80692055648 19346.030636248473,-32907.54344227783 19345.764149962244,-32840.19942178525 19753.106838385003,-32344.792446619922 20261.04144763794,-31132.138402937657 20357.955049637727,-30727.490312946687 20452.75408368752,-29856.955450939724 20412.239383134685,-25123.739432353723 20279.558421267677,-24045.196136306182 19879.86786920765,-22806.960161751584 19166.67235869022,-21598.53754364992 18392.61897426042,-20642.214756575777 18189.861303985985,-20256.119369152064 17581.81087443864,-19505.704817749775 17399.651485025443,-19159.953117056102 17137.549094455946,-18918.17330662873 14676.79918430338,-15626.193860848369 14665.861877228152,-15522.61549601889 14410.85415959934,-15272.637135652547 13671.051330457129,-14226.86972466064 13625.951662384612,-14111.339763743868 13539.792288944627,-14057.615721122691 12488.017497944515,-12659.511053974842 12322.228385044515,-12420.503976226728 12316.899122981113,-12354.292261763489 11702.636992605812,-11608.938995302236 11617.839201395282,-11418.66889591737 11356.508840786953,-11143.505180924029 10302.634709474874,-9762.629245738408 9956.728749538495,-9276.371992642375 9951.28522874419,-9209.035163379482 9693.15146418666,-8952.166147600266 9233.403715908918,-8360.829617856467 8638.11020719109,-7709.164914798417 8234.361427418124,-7331.679602440639 8228.899993841776,-7238.437559249313 7693.635874837587,-6836.519950099664 6922.671281652003,-6147.359413664605 5809.869426289302,-5249.716867393126 5808.0376207993,-5195.581353187013 5356.986005579125,-4797.189842657735 4803.985925774169,-4410.255550885448 4798.782399153799,-4359.317656299875 2808.715374225418,-2730.6963557092627 2133.618743689332,-2145.1932291101166 2133.582327089847,-2109.55908918503 1690.5219717211862,-1783.6708349704923 -2767.616453838426,1976.4446113786362 -3098.7089133560567,2277.6432622642287 -3103.968945266306,2329.4536243761177 -3548.381938880393,2614.696746418814 -4104.737903663326,3108.338504952772 -4114.985215635153,3159.290793863602 -4553.226354898136,3454.809901607597 -4562.29192854877,3506.107439469607 -4674.809120118251,3600.053668983831 -5903.791192034169,4577.371928295763 -6140.065946808137,4842.572740243606 -6859.36060764392,5397.571829072099 -8369.160093421191,6669.6965916960235 -8944.682578313023,6766.222299724907 -8944.051879593893,7108.15008628086 -9308.739918083424,7354.05838678616 -9942.296103740427,7679.976296203958 -9947.455827739454,7742.15587479184 -11142.080730064929,8178.1089983929205 -11564.258679900626,8199.460168352976 -11564.018650154292,8300.082938644564 -17577.24678497042,9121.17740012605 -18771.835517044954,9120.475974410372 -19364.227610632155,9024.371487812688 -20089.17780527652,8835.632669330302 -20098.437954586978,8797.937630935825 -20523.398733733702,8656.124024490902 -20962.884395999547,8557.065585957294 -21682.67734524654,8303.696063113517 -21688.103001349293,8272.635573667134 -22115.916238319962,8169.916346042375 -22116.125400864275,8124.067265803805 -22265.27343839456,8073.201053361959 -22991.07385125718,7883.60404422411 -22991.267119106124,7842.849348676743 -23861.19490009882,7597.424538986433 -24288.142958289256,7424.9515131693115 -25150.588086013115,7318.651921157654 -25151.276914122456,7185.854201243112 -26152.861068111368,6839.980462255788 -27605.14172261942,6420.095159805637 -27741.90452524413,6345.14935769319 -28599.313574368814,6242.455150818197 -28605.52571676428,6085.944775749151 -29464.7441183976,5865.5502276130155 -31041.68628551586,5345.560387692132 -31902.054761372136,5121.890740210447 -32468.14270228225,5074.097330927713 -32468.956972470576,4952.43952331826 -32903.82967219318,4797.267815002381 -34453.35697418362,4370.0708684458805 -34742.29172877086,4249.863332941372 -35167.52903184096,4165.543323716632 -36010.69874976973,3917.8662521540714 -36571.85409007572,3886.315468901476 -36572.83417190201,3756.2833676536643 -37820.14745071761,3391.527500644174 -39873.06799647456,2699.476537091867 -40143.3723699435,2656.1993880659575 -40144.02439097221,2577.369109803871 -40534.55567711793,2435.2913047468965 -40539.95693601209,2404.7692294090075 -41276.10104980275,2379.6293235013472 -41279.21357757405,2013.6263392355677 -41729.88551524389,1676.1458265068163 -41834.21773024449,1156.5377914982644 -42215.413689278226,1159.837493874149 -43254.566950376386,-183.22736175155984 -44753.15228617585,-1879.3421739552198 -45037.414986762175,-1982.7505826609236 -45040.012413362514,-2262.9260124535317 -45403.9586082438,-2621.2505007226073 -45496.26344793566,-3157.299175295203 -45861.90083851416,-3153.8619902289206 -46408.641010704276,-3801.462757009402 -46409.23464858716,-3863.6276989251783 -46509.15267132658,-3981.228402879376 -46778.265779057285,-4207.20900735265 -47053.349556444155,-4302.040650275363 -47056.30851111872,-4607.6842281660765 -47149.0071059925,-4721.7152027614875 -47518.003114164785,-5049.69867449392 -47978.11788732254,-5576.824570170968 -48070.37350685485,-5686.697842265535 -48071.34670509648,-5785.125020294475 -48620.042762496574,-6039.145001558588 -48629.17450933206,-6422.007483522518 -48999.44219191323,-6853.484806254892 -49272.1059302389,-7068.326974155511 -49459.54517174701,-7289.029666776151 -49460.47767021554,-7380.7218545416035 -49734.12750973651,-7643.8833212757245 -49740.067231575216,-7705.9932025830785 -49831.068415243135,-7815.069158931202 -50194.38645519946,-8038.083510193082 -50196.462402684854,-8239.25314351013 -50480.412387630655,-8506.58424450751 -50567.18325678393,-8673.543719039273 -51313.01362135046,-9450.293212118118 -51684.62839960864,-9950.719263073872 -51957.351907508615,-10185.185835370352 -52704.639230958644,-11068.262718576101 -52792.390012241856,-11232.841018870819 -53162.732508487104,-11590.522395933622 -53899.94102713004,-12443.392731561538 -54272.85967745166,-12553.488441839689 -54276.41303777295,-12872.24617481516 -54371.54895468497,-12977.220210921942 -54634.83364679517,-13066.924617759201 -54638.4916988595,-13392.934107090268 -54988.364582867864,-13740.519009544896 -55481.530989454404,-14422.6884059044 -55482.11125394788,-14473.62717578653 -55791.68195907624,-14898.032162727412 -56092.292108064685,-15434.63930139879 -56564.97422947078,-16106.708620728872 -56640.6826976029,-16308.574250251648 -56875.39455698055,-16587.075661736188 -57175.24308083209,-17042.074584335405 -57481.61425002625,-17169.114943966324 -57485.90158349334,-17532.589511051934 -58264.88399902101,-18715.45989162291 -58654.9178060377,-19414.000241587284 -58886.2581462747,-19660.670739066878 -58887.55006726101,-19767.640174012166 -59591.500927686124,-20775.575404155927 -60130.53493632765,-21617.067987856957 -60210.57578569017,-21804.146152074747 -60599.717182597014,-22329.589271864785 -60756.40960208576,-22450.1678480274 -60758.81697804647,-22643.470549452086 -60990.68935996084,-22923.884428497247 -61380.26307744282,-23517.04375636478 -61463.698787610876,-23720.98302839435 -61929.302734753415,-24341.981033138378 -62156.20294725831,-24719.717287242263 -62468.31481690931,-24842.836471229515 -62472.55559325434,-25174.18468367469 -62548.3121703286,-25292.547011850373 -62853.479385590486,-25424.02035756028 -62858.4060952959,-25806.649824466494 -63325.79211318731,-26536.291617216964 -63477.77626897573,-26757.094910697786 -63861.000176199996,-26852.692899428373 -63868.72776328521,-27443.554875752845 -64102.777572589126,-27712.569468003087 -64407.17394179243,-28174.84149525946 -64485.87697508497,-28296.416529616905 -64487.31711665441,-28403.40306838927 -64803.48231479363,-28811.852568412647 -64804.42833324663,-28883.163043716355 -65195.67322411193,-29376.70037852405 -65740.6714062841,-30322.587220303434 -65973.966096353,-30583.752468418035 -66279.24724255915,-30692.304815245894 -66284.32318873133,-31066.552101372985 -67057.6009815886,-32257.95955673333 -67059.09318286274,-32366.73672124992 -67438.87306083315,-32851.79246156749 -68689.76156639971,-34800.85327046337 -68690.76306519301,-34872.16198739389 -68921.83269892992,-35148.84894930917 -69151.55195879728,-35548.329944904 -69379.58402144378,-35826.24743741211 -70273.89271614671,-37165.6798250597 -71267.17355312579,-38669.29750826585 -71404.01917086901,-38900.440100916836 -71404.92586738829,-38962.59671824361 -71545.45871469217,-39079.70357919939 -72031.51494604372,-39847.28107416 -72173.45617829032,-39966.62681346642 -72175.8710727403,-40130.445453494336 -72307.30327989558,-40240.584558154 -73207.07679939747,-41650.73112727029 -73475.62612102726,-41746.440383260095 -73481.20137651496,-42118.07998955493 -73547.0618873659,-42234.43686190288 -73752.74575915889,-42440.2172494841 -73754.67525929857,-42538.796249360836 -74163.71793917229,-43086.96724420051 -74438.40421405803,-43580.15886432241 -74917.6958751294,-44225.98086662111 -75189.30540433028,-44654.84976167836 -75190.24312708697,-44715.96882813895 -75327.06029003204,-44825.945816803825 -75401.19371469734,-45021.24452180541 -75664.40004643153,-45131.165799729024 -75667.47192590397,-45330.14749054053 -76215.27623312574,-46148.429691071935 -76424.68301131827,-46556.352181906375 -76773.54199576289,-46968.64653378599 -77248.41050657083,-47689.69430135697 -77249.69423006532,-47771.18520397283 -77452.91411880584,-47994.1212867222 -78543.53320400995,-49624.26875258318 -78807.80979201871,-50086.301181281626 -79150.90848976631,-50537.72327102221 -80019.35148508938,-51854.06332356537 -80218.63566309714,-52191.35997227296 -80356.48657629816,-52662.88693531762 -80481.39178993453,-52660.8406245761 -80678.55435011869,-52874.24682068267 -81080.0378476152,-53515.228984119465 -81080.97873954095,-53572.20192210099 -81211.27556299375,-53678.84458577238 -81585.9450148555,-54309.86796694101 -81739.21114160928,-54418.0148214988 -81742.60225492429,-54621.73522559281 -81922.44282059156,-55216.08046447826 -81965.14823605593,-55474.40586721838 -81978.65355747563,-56283.67278077227 -81892.80085505804,-56758.8833821956 -81782.60893205272,-57114.56290152746 -81633.03148101569,-57430.57053022308 -81156.67726724646,-58155.903201936315 -80638.54116886736,-58594.42993333448 -80639.22101568943,-58635.86426084178 -80082.53889291665,-59017.97507918193 -79146.65700499229,-59830.95423335007 -78769.60138972486,-60059.7776527593 -78489.55792502878,-60283.656200349695 -78393.91477444497,-60376.62017258535 -78394.658044719,-60423.23389181155 -78113.65995108742,-60580.0164908618 -76031.02286833843,-62247.649681403986 -75747.96751860279,-62369.44293657577 -75748.6734480966,-62415.279884080264 -75033.25506537121,-62604.887910523765 -73863.76737569076,-62632.432159307566 -69621.09836979448,-62490.54983421821 -69024.53732706081,-62351.22895557763 -68049.94791883664,-62027.82266994295 -68046.0827091842,-61748.47796884217 -67597.6768951524,-61754.661980133504 -66466.19520348145,-60995.78424084836 -66125.14389705042,-60837.37190246921 -66124.52743440244,-60791.53342539851 -65782.81997930659,-60582.1655525704 -65615.33122409844,-60533.46282584731 -65121.35390475515,-60239.479868801456 -65043.74503160772,-60182.83191832126 -65043.196814799616,-60141.39580296761 -64881.676086076135,-60091.72594759136 -64800.17379045008,-59999.20799586254 -64643.072154074696,-59945.24143036488 -64642.46939487316,-59899.40264540841 -64412.691920298836,-59902.40875075431 -64410.84156332053,-59761.19027314435 -64103.315768024084,-59614.978044998956 -63875.88253466616,-59476.42698474178 -63875.353055192965,-59435.681261364916 -63723.55733709351,-59386.71071106355 -63570.6448705742,-59251.1506874044 -63281.95888203556,-59117.94027970105 -63276.44753295996,-59071.56018993248 -62768.64577891022,-58803.33692168427 -61133.61503734785,-57758.9427329621 -60010.880275715484,-57130.93146074047 -59890.139150348026,-57055.993820958036 -59884.29093959529,-57015.83065625152 -59765.91461767026,-56975.82888927705 -58464.576109342124,-56141.90292434002 -57298.02806908076,-55472.09636602365 -55971.9216595929,-54611.64387851167 -52680.95306172597,-52632.89159274659 -52477.75504450635,-52407.12869239068 -52394.19652514674,-52255.22161071709 -52196.16284240626,-52099.17170564304 -52351.252758066585,-52090.91920656004 -52397.517210391794,-52118.91349531085 -52398.59548877088,-52219.91770407777 -52478.79502151348,-52127.392752012325 -52394.19652514674,-52255.22161071709 -52532.78825982597,-52047.80551239255 -52402.281807103485,-52237.94570497564 -52507.38512660678,-52013.35761087903" opacity="0.8" /></g></svg>