<svg xmlns="http://www.w3.org/2000/svg" xmlns:xlink="http://www.w3.org/1999/xlink" width="300" height="300" viewBox="-213110.7417901154 -500985.79461683356 422050.8090326628 1002902.1250504262" preserveAspectRatio="xMinYMin meet"><g transform="matrix(1,0,0,-1,0,930.5358167591039)"><polyline fill="none" stroke="#66cc99" stroke-width="6686.0141670028415" points="47306.1596591209,49618.0627309526 45296.413514330656,47905.936125456035 43651.63502959977,46644.11382459639 43542.858761685835,46516.27397599216 43321.63813309438,46380.57096474174 41620.59438066514,45002.93124384257 38307.93393675714,42700.44626293943 33660.106833471145,39282.79592200408 32983.85131418254,38737.80684595198 32552.83644726165,38290.08210897719 32093.779475928764,37699.52518902165 29590.328057861632,34159.72625256396 23386.582191565394,25803.409135764185 13356.74436468837,12160.337485397098 12830.056142118905,11087.970975804048 12730.645920650097,11087.705760847337 12631.77441367196,10883.128451814602 12417.24842746657,10882.567602354557 1392.5085253588759,-4083.846210901747 486.07136962621007,-6213.937482330581 -184.36645388738256,-6213.95851863081 -732.2269106567519,-6627.542880849933 -1375.0978275729974,-6947.368448032904 -1869.277160190225,-8256.153008105897 -4487.843609753323,-10882.702776898017 -5045.0547205299445,-12614.232438445411 -5456.055390422803,-12613.78418002111 -5593.5683555490505,-13054.971865240768 -6621.164010989766,-13053.668346698232 -10730.826818587448,-17316.217767012717 -10962.52203897624,-17945.63008508389 -11126.285558051117,-17945.254801594125 -11290.611473548977,-18184.957141798022 -11569.608163333089,-18184.295492402467 -20462.69365437934,-27337.92165005807 -21065.495803552087,-28125.47281861262 -23760.681920944226,-28112.965198649756 -23775.129646934533,-31049.639822549543 -24245.438741250044,-31771.693302077878 -24810.267255643983,-32765.64066917923 -25313.763121367298,-33825.37250363461 -25506.270732749414,-34304.45679434039 -25787.313274874625,-35196.59688245575 -25599.61904258629,-36418.50739671839 -25648.72135439455,-45698.12087129755 -25008.091234950607,-47233.63097826158 -22697.281584658125,-50658.82953147546 -20386.937063778798,-52730.104381403995 -18797.90447663556,-53698.2046732216 -17825.125889077553,-54144.62891349973 -16943.4792827805,-54454.20790182237 -13152.9091462469,-54669.164284753555 -10661.880416560061,-54675.272277588345 -9487.191540355097,-54322.58760570529 -8600.594108204084,-53980.77001734754 -6817.662351938537,-53018.28559345692 -5331.774240201348,-51872.84952515043 -3250.8406463713877,-49350.09119759433 -2662.8925438936653,-48200.95779040959 -2435.3901379989047,-47631.46417797854 -2090.650681615951,-46511.17214220607 -2088.2826892778994,-41019.9966273872 -2135.806062008087,-40843.38692543602 -2883.5735522969744,-38351.699593619735 -2982.247701311854,-38351.639798289376 -3080.844696872803,-38230.38856255203 -3154.848457152947,-38230.340888237144 -3741.1732393965135,-37274.67380820944 -5097.331176640444,-35610.98039655336 -6111.649924416893,-34648.763041371545 -6896.454621208805,-34014.398076192556 -7209.044052452359,-33789.621624695596 -8917.183492086317,-32754.733682816233 -9233.542094822318,-32592.387106946004 -11749.769541541704,-31662.40431579612 -12673.016103660526,-31452.313546424128 -14610.91501332838,-31326.08387648328 -20481.70284340287,-31304.769185348654 -21801.656352283877,-31539.043820229017 -22937.267552143574,-31835.125793822972 -25071.67005372272,-32651.975743933646 -26883.81551190899,-33652.98109204382 -27734.52742804264,-34236.00907887718 -29303.45870900086,-35534.25421981788 -30118.05536453576,-36335.32807972441 -31392.96085400366,-37747.97139699886 -35863.51913069885,-43006.76216771808 -37854.4539745262,-45209.40893948279 -40923.36735460115,-48438.001146814524 -46707.498481052295,-54351.064949254665 -49557.231273469,-55984.053044535394 -49657.146713429414,-57375.930770880404 -51634.28312360126,-59398.21201006711 -54617.663562685855,-62686.24462211826 -54898.24676424471,-62752.335942691265 -63553.06717168408,-71642.56852160263 -63931.69235072067,-72535.94955949686 -64394.421868454374,-72591.14349643435 -64729.63897181694,-72852.79271913637 -74716.55741884779,-83128.54436408622 -77075.51328972068,-84818.10727609435 -77079.53583755695,-85073.12443369566 -76863.64378857611,-85331.60521785462 -82785.42437929867,-91429.75806912663 -84736.60612430355,-94562.68143404301 -84862.77784296346,-94923.80401837268 -85119.47415019889,-95945.15507477392 -85218.22390520872,-98792.37783028308 -84606.6939035645,-98929.9253194857 -84644.1514711677,-101099.48646409345 -83685.79850618224,-103078.5884353676 -82506.1295291647,-104613.3673393881 -80787.97048179894,-106160.54198510635 -79457.52899935235,-107005.81129920835 -78962.95512772728,-107263.06300526657 -68614.6710509421,-107371.87877516498 -65604.99040997491,-106482.10304044589 -65544.4011021617,-106372.47579171795 -63954.111427241114,-105933.88135842222 -59681.395790509625,-105160.47497447509 -54812.44527585233,-104533.55566802801 -50606.805486128724,-103934.78660169292 -46938.8512543281,-103326.20925055265 -39915.74517846094,-102029.07214570633 -32493.517464678767,-100583.17381617618 -30761.179099560813,-99197.50044183171 -23865.99911472547,-99235.9296924947 -22999.860129571938,-99323.15465225563 -21536.31907615738,-99629.68354302936 -21006.175819542408,-99795.3813968002 -17001.707241381897,-102190.36311456292 -15659.438880810621,-103807.38964261347 -14958.848026504855,-105051.29258184099 -15193.142810236286,-106682.08524379913 -15214.233995676583,-113495.6893411665 -15660.051513288125,-114193.74009437015 -16414.78733504676,-115105.25871121274 -20491.2100592112,-119029.50695447797 -27226.018484113367,-125980.1731144776 -28860.44724903447,-127528.49548165574 -31114.021185616002,-129549.63536014363 -33090.10606967054,-131250.56734116055 -40560.03079916264,-137491.44112134134 -42951.41459195775,-139543.99149360726 -44879.27463633764,-141640.45128380833 -45577.49310651117,-142661.51876876954 -46387.94098763248,-144025.99252414476 -47087.57626708519,-146127.82704013507 -47236.16239868163,-146698.18874023337 -44547.59910211927,-148485.59531148477 -44643.00138264933,-159086.45836270164 -42097.64788348092,-161994.25657676047 -41218.57022889265,-162769.9270819134 -40438.72394832274,-163328.77626476693 -39963.62760461307,-162081.9780071373 -22320.652518574494,-162192.67030560487 -19196.434883923946,-157993.1596021218 -18355.058199540985,-153526.7011827388 -18321.301243216807,-144413.8065797078 -21052.246063287515,-138930.25774479992 -22168.682303941274,-137475.4946755386 -23752.72043325396,-135798.7109442118 -24976.727448424524,-134735.8732100096 -27029.307295541643,-133300.66918898947 -28251.719260658567,-132635.2282220265 -31447.156429546973,-133345.9694180366 -38679.800384414026,-133294.5795030359 -39739.28618330484,-134218.0339123881 -40164.4720346396,-134661.18716616926 -41215.330279628106,-135908.45589127377 -44192.9412498584,-139711.72946567618 -49428.59283038806,-142382.83858115767 -49454.93548960835,-145017.66722297278 -50207.59221591361,-145679.82067137596 -51276.93567637204,-146842.87699265874 -51914.70956327032,-147147.0380431008 -55473.99318287499,-150083.27096649297 -56587.53983108656,-150568.65612798845 -56756.43797632619,-151167.29485973294 -90223.64052180314,-179279.241669666 -90838.5403758353,-180967.59452200937 -92595.14033282187,-181278.67004901622 -94636.00486988726,-182986.1547672863 -96912.95791015319,-183724.34170156834 -96936.31569140578,-184925.8790088024 -100247.86247196715,-189605.1798741071 -102450.3143921502,-189560.4571040563 -110765.54509463048,-196557.15300797863 -113361.9876123918,-198191.3197303999 -113374.92666937043,-198761.98464510698 -153828.43631561418,-232755.3764228715 -157031.61010764958,-235772.96150112673 -158194.7897004577,-237359.41720861744 -158459.19065743478,-238098.594621436 -158875.66104331077,-251344.00513402064 -158290.8912526181,-252912.52105283164 -156534.77660226438,-256245.1201219046 -155644.60079839075,-257525.63081129434 -154425.84402318622,-258995.39316734005 -152296.26713505786,-261049.15963743208 -149886.3727950685,-262759.1601303632 -148364.170466858,-263577.5130168424 -145384.76989143534,-264834.63296992664 -142819.17097422061,-265254.5954054241 -130920.1155254063,-265576.01563632983 -128985.41929362164,-264984.97607634513 -128104.69690808303,-264644.0344078853 -126464.97711582738,-263865.45014946494 -125542.59971127167,-263348.74957435124 -123950.88660888416,-262281.687869023 -122259.66852901899,-260886.50884091787 -114165.48619262889,-253853.01495430994 -110153.22327788075,-250303.9234190259 -107086.77877666922,-247671.89745051906 -104438.75406104352,-246201.57546606424 -103041.73913664561,-246588.33461084904 -93232.02503684231,-246779.03460386163 -89116.87126195006,-250045.3060460505 -86915.36424939116,-255354.103777603 -87054.8841954927,-263471.6158737877 -87840.66289964879,-264965.1878896476 -88050.56942855274,-265293.14744913124 -90739.76406685665,-268087.2752981428 -91354.92378766676,-268504.80712420976 -92159.67384417295,-268953.3033318428 -94706.4988556814,-269846.17813539365 -95303.35564628305,-269789.0832025989 -99113.40596251632,-269716.050661414 -101418.27403713966,-268854.2148552789 -102609.62563270798,-268161.1428485081 -103605.0494709169,-267412.12427083973 -105387.08780671898,-265494.0724175119 -105322.67598902615,-264214.25382104894 -104984.40244844246,-247944.17701600367 -103975.31950708845,-246351.2491384291 -101362.15799819696,-242797.94573617078 -100058.93685714752,-240852.05958735434 -99406.71764885332,-239954.24333934416 -96289.87671778242,-236908.83487434834 -96244.20490280613,-236698.78934261497 -93954.37066051256,-234908.44316253776 -87809.66624377134,-230780.49180005302 -78284.80435798352,-224273.2868586489 -78050.22098846936,-224236.1112154234 -59071.67542057405,-224495.00765782845 -59199.33639965894,-235356.85581762352 -59957.01834601237,-236046.9159428296 -64353.32778046169,-239538.78961181926 -66383.1391174664,-241384.99428242203 -70695.36654814819,-245624.67766958816 -72781.62556869526,-247556.30516672888 -76525.75272597879,-250782.34256542096 -89031.26403494322,-260993.6205905217 -130919.64252553432,-295333.68324489635 -133552.96262645588,-297832.55515638983 -133806.41844486434,-299720.05823179067 -134264.07590195053,-317167.84748124145 -132663.43749246007,-319320.5299261488 -130823.10377549681,-321058.6631866647 -128170.11595624358,-322126.34530665074 -113887.32246094198,-322463.71580857417 -112770.54838764087,-321866.2738772421 -112075.0126304285,-321440.90171325405 -110744.86419080257,-320472.39330316836 -108068.01810183351,-317751.6009464218 -110234.83087578886,-315662.05126909056 -109807.43245067619,-295821.85379326635 -111399.21231169846,-294402.33403235424 -112820.5402793959,-293385.65462350816 -114557.31625749801,-292403.231954699 -115534.10566480507,-292972.87995385483 -123943.95784649238,-292775.2146154895 -125112.54317415923,-293379.18982999824 -125981.58206229407,-293888.29292337026 -133041.36317849898,-298090.43567046424 -135073.06919838104,-299354.6733980402 -138178.50124509586,-301465.844980655 -141511.62807012306,-304004.5997389782 -144372.58410378324,-306310.76556994 -162560.21090666892,-321272.9787374882 -164497.28798867067,-322274.09875760635 -164516.51178781496,-322872.88689912227 -171374.8061240221,-328473.85662013566 -174338.73063444236,-331011.0953768439 -174639.48353713335,-331342.6196836423 -175966.2186400996,-333551.8217697642 -174962.32626994344,-338109.3249223818 -175164.44075247372,-344046.5802885034 -173807.5234110806,-344092.5929920561 -172844.22918921686,-345006.5543853367 -171204.62278461922,-346124.55819059024 -167799.81544724922,-347340.2879582478 -167269.79473129677,-347425.9906724478 -165358.44968062168,-347526.36390973727 -163465.54742198947,-347352.2246348346 -161175.57324720392,-346909.33666444744 -156543.48417195157,-346140.1004597122 -155356.2387358398,-346015.6818771447 -155172.62891930877,-345885.2359042885 -153873.02179529556,-345665.7368255849 -151404.0440712273,-346413.0969832529 -145595.9765594398,-346580.6364541662 -144200.84049637942,-347168.0092413928 -143393.3464131,-347575.83946571033 -142643.65683485987,-347995.9377795259 -141060.1242953357,-349081.8066912559 -140639.2142334078,-349423.35925353185 -137951.93428655041,-352478.7640412626 -137561.67302555437,-353874.1047409189 -137177.96725838844,-353884.3288698539 -136883.71696859252,-356020.1099376926 -137111.6847322493,-364609.5588390978 -137584.65892758893,-365575.8411539476 -138296.94453864725,-366729.34768652613 -140043.86543214598,-368775.2893387156 -140571.43715825438,-369247.5126619395 -141721.68197707078,-370113.76318569464 -142530.14588927868,-370621.2850359934 -143533.98721599553,-371144.087506388 -144877.6610265908,-371680.1340342024 -145422.55989402274,-371846.2473143065 -147713.2950466593,-371969.53657170624 -152433.62413634028,-371832.6069808739 -154508.10722602715,-371006.3548687858 -155729.4870764863,-370317.1440698137 -156247.71770294366,-369975.249616965 -156968.32531281875,-369429.7785892874 -157806.79544265597,-368693.95406429545 -159502.60949551695,-366781.1692757611 -160754.58559213858,-364797.41337865195 -161291.5831755378,-363686.6284958573 -161723.5740332357,-362587.3541583637 -162184.22494988632,-361154.2331607876 -162360.23464349323,-360469.42993650504 -162860.11293509507,-357026.134767281 -162867.60057797344,-355573.9508944771 -162782.52028282903,-354399.5075565163 -162667.64931407053,-353614.0513331555 -162417.50300334516,-352461.20969147224 -161927.5042325767,-346751.5031285062 -161958.92427600326,-346750.51478685817 -159210.97626224984,-346836.22791418975 -157724.37617121826,-345603.6989208663 -156937.70531959838,-345106.7046962947 -155048.50548133414,-344225.0871201799 -152929.42005104554,-343645.4529555332 -151801.95975726374,-343471.806768892 -145784.11280541058,-342888.3251189792 -143450.7172498053,-342574.2422532834 -139944.39833469162,-341935.5928093731 -132065.49232825194,-340248.0339234418 -125429.02237011975,-338949.9404989742 -86023.54283014497,-331817.24075606145 -84432.49853519016,-333399.3929992322 -60938.54816123253,-333731.9416836395 -60308.65282011753,-334708.62364690175 -59826.37068125273,-335678.57450331055 -59543.04498198513,-336423.23835968133 -59242.043537156795,-337484.3298530483 -58959.53066596295,-341095.8197583206 -58918.03254239313,-344078.70226261555 -58579.54794885648,-351141.3936632047 -58221.87499716269,-356717.72046143335 -58145.278286528504,-358434.2641209267 -58063.05222972673,-361078.62659794046 -58013.77664274596,-366368.1756427416 -58092.92049850874,-388529.5556007765 -58151.7357466168,-441625.80084083433 -57274.942269932224,-453063.07394917234 -56633.343531334765,-454230.9135821774 -55353.15219621426,-455890.92069822183 -54551.48113714756,-456676.4756978765 -50311.51680989015,-459060.7466879775 -47845.7548709256,-459536.86614618445 -42352.92463345173,-459936.27422877296 -22537.616300665002,-461653.0499487178 3391.00465707709,-463841.27146681777 6959.66207897841,-462266.1851021535 25519.384003324485,-462208.9255639833 29154.14091158805,-455915.08482424996 29257.93449674013,-454510.60228358814 28439.911383490075,-447090.813430642 28518.603828220013,-445502.51109329786 28853.82216039588,-441708.3510007204 28898.277658590618,-439493.2275321214 28851.788541562117,-437826.88251846476 28329.327098055426,-428624.3884268912 28203.228295111174,-424232.84171698283 27524.384615569885,-361787.8533394376 27642.86533295616,-360004.2994755765 27555.39669716582,-343671.96341551177 33217.68718096205,-336386.11110586755 35153.64244628586,-335589.17423527257 36929.96102398405,-335132.1063854203 40429.10690289297,-334665.0134970964 45480.25267256731,-334503.60825815756 51200.05140054841,-334449.7734732506 53132.786259691464,-334496.67608899885 79652.65069425132,-334153.8461200525 95334.70040891044,-334069.01389085385 98476.77061806673,-334061.57549771084 101463.88913551392,-334267.8698665091 104025.82949948483,-334958.30023557344 105424.19117650155,-335577.73152164463 107246.93986367286,-336721.1808500879 108246.93722537406,-337551.646020449 109884.16528651277,-340346.70365981245 110164.3712102877,-353458.55609737535 109205.50231115015,-354666.77800142014 108415.89261185788,-355427.7030577518 108058.62128081685,-355715.5800574252 105674.58612028048,-355831.251434038 105659.76001104925,-355107.6750435956 95911.25958371942,-355298.2040385435 95337.313141976,-354879.6135026305 93919.50601518134,-353642.4656980358 93522.1643713881,-353233.2388808754 92716.7117097234,-352288.7396492146 92061.4482030498,-351388.0867367334 91969.15546914299,-350991.16243081115 91701.23413589675,-335981.01090002304 93757.22934639566,-334236.889278862 95406.0694362517,-333341.87012681895 96191.14070287763,-333036.76872703154 96587.40329585366,-333226.3638420441 109048.62682033457,-332976.8351922464 113550.83242718951,-333215.34395940223 120397.14748746078,-333375.5243798792 128980.27993215882,-333503.6567325464 131187.918648803,-333221.19663559645 147839.67829795583,-332768.74013638246 148704.74278960083,-332353.22746993694 150845.68982027867,-329735.65499239037 150482.79089443246,-317391.0421838569 149072.25764539637,-316031.7928850371 146450.8690810659,-313388.81637669273 138036.70561048115,-304571.7852696369 134724.93312456433,-301265.3592542978 97418.72359495459,-264896.4300454754 96015.00579957079,-263556.732199955 95157.27671269423,-262832.9862816492 94230.14229827847,-262155.0931647125 93604.31625419793,-261762.01424906703 88505.4068459069,-259897.74231420935 88020.34580187341,-259828.3768560759 83226.29260633243,-259909.47746979434 81827.69473424491,-260234.66499809324 80932.43917982535,-260514.34503753833 79908.95968822851,-260907.1750369446 79247.01222606207,-261213.30099840768 78100.62656400687,-261843.3047328918 76838.29205314988,-262705.46009594476 75608.40411878214,-263754.5029390214 74902.01442064601,-264470.03195504594 73400.03020321048,-266322.364825429 73077.24020951861,-266816.75304930686 73258.26614023186,-267497.7604682137 73520.5014496112,-285642.8619048438 74092.06916979984,-286512.80412888766 74676.77258466564,-287303.2646581321 75768.77408855906,-288593.99112687074 76259.68885396793,-289106.5546828626 77693.40047597556,-290416.07399414724 81435.88974464875,-292800.6647891588 83056.55780163035,-293478.355611673 84726.0915276786,-293287.64250764146 94934.02473863434,-293107.65667128377 96167.95873009098,-292477.5488248778 99940.26805528035,-289375.0650956788 101039.63662670284,-287909.91172279144 102365.93030181539,-285353.3203417934 102554.71445612144,-284903.39629550645 103593.44762509227,-281027.9777844032 103457.71633116415,-274368.6523070622 103056.17198172095,-272958.60284979164 102716.29603448945,-272062.52036564075 102256.90343219988,-271056.5863814424 101473.9335771289,-269684.63015681936 101126.4384240157,-269171.5045198095 100352.68334330697,-268201.1322056197 99269.51136191431,-267065.49929707823 96974.5791297866,-265029.4680224075 95941.45570293932,-264187.89274998073 93288.33529926761,-262174.0881067588 72478.00590686241,-247410.2051871399 71339.95365058446,-245047.02337672707 68962.10473375978,-245080.07705354615 67748.02028712168,-244377.1251975294 43757.4903808353,-231184.22285247967 40559.53508659392,-229331.4466720164 40537.332758096316,-228898.4310178948 40837.2176880773,-228064.30845149103 40747.899672706684,-217063.71600211557 43027.78382530028,-214961.48426760998 43117.044574584266,-213261.17326667896 47526.13380183331,-213221.32561890967 49043.036284055735,-213134.0663324193 50344.033123493966,-213236.1228225512 53597.6729533992,-214166.88734272312 54382.59595404021,-214433.57564079654 57499.90831312267,-214995.4439793953 60212.59018912125,-215072.6770124919 74935.40542876667,-214838.02712198684 91098.68642473467,-214710.66257575867 117326.81643969446,-214233.22041589738 124703.44738319305,-214178.95639325958 130524.33839294208,-215485.61881522584 131469.302269183,-216005.56155647803 130710.05240433729,-216331.66131810079 131262.6747249855,-237546.43083641698 130364.20967330162,-237263.5398016622 121853.70405326314,-237476.5328130805 120601.49588635121,-236684.93097953012 118852.84135297236,-235195.47709601946 115708.47049105758,-230910.39014868223 115337.74640109821,-230213.58111832268 114964.46802907142,-229319.06195701822 114651.3875615552,-215618.6436606921 115386.26113173498,-214641.8940308679 117916.61362886585,-212573.94026744817 118902.49805499367,-212363.7913043932 130519.25630172553,-212074.8387958296 153349.02240636354,-214620.32500402236 161221.70765399095,-214717.165344058 161236.4071874473,-215174.52637899554 171223.84819624704,-214843.57852618577 171795.5440925316,-211842.29777231094 171249.4009089048,-195904.6296192216 169384.64349281858,-194753.06205532403 168628.46367816025,-194223.00869706608 166954.3886862412,-192981.12219183298 165799.12820467376,-192022.5021219228 159953.39281292143,-186812.23154037073 149629.69482489044,-177791.55228728417 117199.40319545893,-149293.80760515423 113352.12553243474,-146222.65073866447 111060.03291975943,-144693.08990340243 103765.77222710363,-140152.11349628112 96324.40423463649,-135595.2739387472 94009.78381141058,-134510.8260216454 93370.81668871109,-134293.78317537703 92835.18895836022,-134564.29968648346 82390.6109829219,-134749.68150810315 78367.31993178398,-136657.66439405343 78372.76879308769,-137001.01558067673 77063.92408816791,-138169.11568870486 76522.0148821825,-138748.69182892158 75528.6786855335,-140015.30937036622 75278.59530370905,-140387.68644772572 74138.17008587575,-142487.07198506332 73940.25676194638,-142946.94310081739 73345.44825613889,-144679.89053456983 73018.64520560556,-146088.77041860242 74855.88904050787,-146878.1948215716 75037.95505689178,-158913.819547533 75611.66578069056,-159925.147001962 76459.03069599565,-161225.6471739263 79737.16658490442,-164808.196134864 81654.34001365217,-166235.87827019603 83676.13404952231,-165636.3505035728 99941.59209893181,-165335.70470205002 101675.25186761678,-163401.89413368152 102453.96936870003,-162309.48713206447 102021.89390282203,-158548.90993620385 101729.86608326406,-144351.15639879717 100347.08071302893,-142714.83690211643 99705.0799111241,-142048.71957614706 97065.5801737866,-139799.74245589503 93089.86162702154,-136979.7989075476 80714.46408451287,-127985.43253219684 73644.08619515138,-122791.89514507627 59768.325540306934,-112834.13524813125 58016.559683046595,-111370.93426130079 57920.91806552891,-111372.06276374248 57823.82234480443,-111249.6483190639 57572.527061775494,-111252.59965598397 56742.03968916738,-110643.72129426127 55608.942085141316,-109627.77398820988 57563.56216112569,-109572.0542786584 57393.50195295038,-95063.16358262245 60112.75957980811,-93282.60340099839 62945.58295397016,-91733.59784720995 64108.660983516245,-91157.6241914659 66040.69069889019,-90326.01079570463 68728.96305210989,-89427.83154785655 71540.48178671279,-88752.3579126161 74622.15577591429,-88180.28983227481 80450.00433122166,-87368.99476438611 82296.17668889846,-87245.34306870743 82507.8500314591,-87062.81044485672 90052.22531815986,-85908.2063304116 91518.46623869543,-85749.45779013568 91905.45429950186,-85623.45106024959 112748.35808187972,-82387.95708362087 138003.68354639833,-78286.21237799822 142052.48946733994,-77168.7237796232 144229.7835952568,-76103.51897427901 145774.85502130492,-75071.57741381942 147350.08717034804,-73564.55221928163 148746.0191304191,-71548.60921816339 149815.9320184998,-68657.42432778236 149526.59180019665,-63074.1986703712 148317.9528973972,-60630.30013548161 145610.16575714343,-60573.085171291525 145509.84954234064,-57223.40139601001 141115.93775244243,-52338.09542949864 138352.39179567836,-49388.55567346983 137709.21516281657,-48585.93300580275 130489.8960228381,-40682.066183847426 102438.43249343954,-9716.474677804332 98199.39605251061,-6161.212659373231 97596.73982222575,-5837.519857980662 96425.23870396493,-5305.268300147799 93904.40442953382,-4669.394573961914 86820.84829449952,-4802.572477594566 85690.68787126734,-5199.489274485624 83727.96516851174,-6240.899020437839 81965.24054082349,-7672.3567462904975 80871.96156598722,-8905.230180345545 79709.48887128496,-10738.92134371425 80762.36446659986,-11448.509907170775 81027.81130738165,-27267.642534683248 81668.21668200154,-28195.97341405116 83115.23611336568,-29928.1158343309 85735.29192803029,-32121.379728128686 88157.8897919963,-32249.236920674863 101333.51301685098,-31990.978040085763 102748.51672376125,-30833.050227490166 103829.72603715566,-29688.60305764483 105206.72847866623,-27710.52273293471 105888.71647700241,-26324.07565441266 105764.94802707726,-25490.786928051708 105469.45034286761,-12004.521629784489 104820.35270560007,-10699.062584004629 104240.72274037341,-9672.568153871915 103169.10004075414,-7996.765297764317 101844.38864575305,-6242.974045079785 101146.47222999345,-5441.075925750585 97878.77318392695,-2036.3598676524052 93801.97260846956,2343.82366049212 89411.57893646834,6941.994346687477 89404.13143571213,7053.544124216061 88111.18125080472,8417.46274984671 66832.48672663077,30645.3478569374 57367.4319167926,40710.729637716686 56384.06323978053,41628.719262940074 53690.28767241959,44677.0868904693 51720.07609050236,46811.181825141444 49076.878253650306,49879.546720859216 48070.34004586256,51380.82352027921 47357.80916429237,52667.21596613474 46615.755742934496,54280.706498196974 46265.197309979565,55196.78817133355 45734.38679211181,56875.33576658795 45345.15261283027,58557.401864891326 45213.67405770072,59307.04988558476 45416.53092246832,61334.247484140935 45294.44616453913,74076.43456664 45341.69771548461,79515.55472740078 45469.541009481065,86425.82139879183 45555.24237293885,88811.51174895758 45704.11693124913,95930.65455002671 45923.39731559222,96232.54216585447 45861.327574570496,102592.19226630875 50181.687104470955,288198.3815425283 53415.01297639747,372280.3102423611 56490.90313121136,456306.5610876 57122.22800264696,457123.2687905002 67461.08129571045,464752.13977306266 68713.78640545941,464771.80728357687 70612.98224858694,464018.6537473623 71384.43515455454,463494.4581536895 72513.69191515855,462291.88110056374 72952.19033820856,461597.5141932881 73517.19156751975,459925.002537748 73511.94174419485,458847.3238685802 72637.54888118156,456069.20942318975 71834.12803754478,455060.2422368513 70815.20105583219,453436.02371841844 70539.6700580454,452565.5728939569 70415.85687859468,451457.1405402271 70542.8401351153,447623.0692637488 69906.08014766112,444901.5093826991 69181.41423181287,443862.8066487627 68103.42293270203,442929.1969815729 66792.43754293167,442239.1489383 65401.45797124116,441796.95095268707 64031.25495072403,441202.88007158675 62299.421433329924,439490.56598548905 61715.71536117706,438144.9466154414 61561.5884167533,435931.2506328025 61577.570850461416,434797.86646570475 61841.44020690148,428695.75363498693 61556.328273886946,428534.4832442494 61587.22013779337,426339.90702957445 61306.14300128418,425618.6896473032 60613.54760384699,424478.1148435558 59938.5760200277,423706.24689305364 59217.745918806206,423080.604259891 58559.30334609464,422638.2017157024 57642.39006956401,422171.2065392014 56748.69723188755,421859.47190160246 55819.81035692959,421658.7836511335 54203.115859600046,421624.84720365016 53873.31645763894,421644.5483923542 52963.84594917781,421821.42560927774 51983.43362768905,422152.1895641377 51145.55325925528,422572.85494500905 50312.62796744008,423149.38762555254 49554.07001562745,423856.4943145647 49029.377205629025,424507.5836426987 57620.78719706044,424743.65571141505 57211.44595609072,455836.6030408709 57667.153512706805,456350.4471930304 59038.834105672984,457499.6866652921 59976.732305550024,458090.2323977783 63600.255999196415,458973.81695151015 64717.74492746961,458990.3272895953 67277.38180032604,458681.0392668423 70972.24096419373,456186.1829702618 71294.66080935278,455787.76460856805 72176.2969242612,454259.09767773823 72465.80003379006,453510.00488404545 72643.71801749368,452666.79559444333 72663.35534315887,451491.1937555482 72241.07610597563,448310.05924179807 71298.03814145905,437465.2224474936 71039.48379165359,431719.90694742574 70650.42000812765,430426.60207709495 70238.90699634615,429549.44792291865 69752.53589642125,428759.6011036577 69276.52226964264,428134.872892562 68572.3531012295,427384.2709325328 67945.93567989714,426847.024247484 67136.44966833199,426270.5073512801 66369.3937616337,425842.64166144293 65522.582169273475,425470.76454638195 64596.1980997519,425176.4299643682 63560.048280334864,424979.1388794622 62430.402724986365,424977.7120834785 59212.64568986864,425475.5436121824 58311.372944477305,425878.2572123382 57447.972418927086,426387.49745847756 56727.38042526934,426926.0496497681 55904.72217607493,427703.8471662415 54834.71530280674,429128.5841566947 54402.6426909142,429909.86414523004 54052.494421689735,430755.93777443934 53704.331216850296,432058.358988222 53622.12854930054,432596.0208351344 53604.96154376935,434058.29473419784 53717.680597226885,437369.7224947504 53920.77215734764,448350.47898653575 56947.228596450725,456119.74341678794 57575.52031433998,456564.648903347 58916.572777038054,457227.3790226346 60033.71141550455,457583.0497203951 60199.543387585676,457182.45662274945 65075.84153743031,457252.76461943664 65898.36148848437,456885.5211522022 66741.96549028794,456378.3308279206 67540.83623288047,455753.3104824952 68768.65888406025,454371.3899050013 69235.952459427,453653.64791800163 69667.40507706735,452769.509260421 69976.5917829282,451892.67911652965 70183.31065780504,450966.3062960292 70303.60756741428,449953.4283870662 71068.9370449713,437192.42592623964 71322.3405949902,429643.6330674172 71325.4791607602,428373.568795073 71148.13233142771,427767.142866021 70661.16634553226,426781.1783829475 70104.11437875192,426056.876893349 69015.00260426482,425167.3354707838 68221.02250413565,424776.6007224169 67534.12934613742,424597.55781332013 66357.4424814158,424594.6526570686 63299.728397703846,425013.8624695293 61911.58166659352,425455.5135143125 57927.89761227872,427123.17081534397 56752.479929335,427901.38840642374 56005.31290779355,428539.86503367516 55320.40619885622,429282.53119924595 54577.955821339456,430380.4320680484 53998.92064653701,431600.5602874842 53650.824348387214,433030.3533928319 53632.50931840932,434464.5782719204 54008.55195060245,450794.05851263483 54127.2286318305,451700.66308042035 54524.68135968911,452982.02189048665 54867.91260294904,453708.6831378539 55567.61567738018,454759.8089240219 56517.53572034147,455728.539336165 57236.92457857519,456298.8684371267 60706.88232703984,457655.4174835031 62072.70046546706,457666.9824363121 64938.49828826015,457197.4298202442 66654.96300337736,456271.6967864783 67336.13050643445,455755.70326378406 68505.05530118397,454490.9273779785 68953.056646648,453847.20689206885 69456.46940505404,452879.9789462451 69903.40457504442,451563.44515948533 70052.28926594698,450700.4890863394 70070.41352920026,449574.8210715423 69923.90820746183,437433.18477867165 69641.44389533454,432124.1312176358 69402.20074760841,431304.6375464694 69025.84692985247,430441.4252368551 68348.07164646739,429359.70374816953 67665.75956321706,428564.9183924415 66675.4756183872,427701.79887735395 65494.48184994443,426965.1801860192 64648.53926512709,426590.0330206465 63373.16753919657,426219.39421740343 62486.45785200688,426079.17533581855 61249.41856670572,426063.39235239016 60603.99960841059,426108.85248634935 59709.034085996784,426280.9475332834 58820.5251707918,426553.69970390113 57900.40613139715,426959.6906643911 57054.858531718746,427464.5562832195 56297.46662833928,428051.0453393202 55667.8237586564,428664.7979791311 55046.89200197305,429432.1627758833 54417.64300075036,430464.6671902483 53808.42018515116,432080.6220016055 53619.65089412291,432928.364635994 53573.54118138464,433467.52393869986 53561.15928452729,434880.9819441233 53662.20723237884,437503.8401853941 53952.87128762593,449769.2921227393 54120.97799765915,451682.31756978267 54466.17610248874,452857.20328112494 55278.3412865964,454564.85580415215 55799.697897255464,455478.3198143612 56966.2919530567,457122.4093627266 57564.79789723335,457807.3207733452 58084.76519325053,458286.18567463866 58215.741892174934,458331.09187298594 71303.32127097908,458526.23930175044 71560.77059721203,458312.3137338831 74449.14141977667,453840.74430121505 74717.23413744455,452951.9254451234 75004.28352667157,451191.39192083164 75020.22421554898,450046.846448329 71977.7860410112,408104.74287412094 69134.82775409715,369434.3729771453 64874.30102927345,312470.51496453735 64788.67452377354,310680.2823288253 64824.72721626056,310499.9327287891 64874.135542719814,308136.4507824028 65564.32750196541,297583.03177508805 75014.24314251963,140291.4993524796 75126.1369677739,139123.46528858348 75356.66303171053,137916.3829456109 75614.34699806888,137001.2503301025 75954.02221033564,136056.0317999507 76510.0952650686,134781.8780026076 79541.03221538909,128274.07408872846 84897.58357262258,116403.16280042351 87298.27931730232,110903.98083739076 87670.00139295137,109935.08516762289 87953.01825424974,109056.51514249611 88292.54104223118,107712.97127338941 88463.00495825612,106791.35156220404 89502.35846058054,99306.98535155822 90105.58924387083,94633.43360378366 91244.55529091376,84672.07705228686 91529.51445327645,83453.64964972474 91785.95413032701,82819.5521177761 92313.35014281563,81904.99174612683 92851.86074809532,81245.29865405615 93490.13451221747,80649.98829452124 94302.91715493536,80099.80990036724 95028.4479724696,79755.06494188013 95910.8618589585,79491.8973687485 96381.85673973351,79419.56592418047 97853.2522752376,79449.82754680306 98339.63772387183,79558.6539967112 99179.03324082048,79881.29749305922 99841.34322635678,80278.5117474409 100535.38649605597,80875.65220270304 100977.85151562185,81411.36147779503 101346.40330276164,82022.16737394474 101629.97358156546,82743.57970958219 101746.113797914,83335.56777257708 101721.70580782836,84467.4213160515 101575.76603277422,85021.19983651284 101402.13763032206,85426.21454973517 101182.9503692419,85794.49159842092 100918.21029459892,86126.03734078052 100513.70005003027,86490.38108145462 100238.63262504141,86670.28080479398 99847.5878846511,86854.2334647515 99307.76398269327,86996.19869458918 98334.25006356211,86947.12886663413 97923.70661157991,86798.2944447468 97509.44791000288,86571.48103229202 96696.40016556809,85971.15312968755 91806.01030359884,82061.36027297156 86679.00302958778,77688.38552271204 85990.74810864149,77155.03016993609 84292.66591018451,76247.58240144321 83188.32457994093,75583.7589732801 78612.64525746067,72351.7652885974 75575.51428169526,70369.55216508755 74477.26276073793,69832.59462297929 70805.7830248687,68399.4617560916 69700.58026648,67752.17096944331 68764.29359308309,67059.01697633504 68446.85849208928,66993.19907023545 68449.41163638548,66816.59547138197 66202.03509511467,64945.51268976233 61988.77889268905,61540.10508447064 61788.844946495,61491.51713351704 61790.309750163484,61379.146864157796 61336.747743266125,61004.39789764016 60441.14007199874,60278.73139754891 60227.7627905833,60179.847663820095 60228.688000689064,60107.011698895796 60113.090229716116,60008.91462491447 47389.309198728806,49692.54352330647" opacity="0.8" /></g></svg>