<svg xmlns="http://www.w3.org/2000/svg" xmlns:xlink="http://www.w3.org/1999/xlink" width="300" height="300" viewBox="-49882.79481972978 -46083.564366604 99807.52359929266 92201.20786785118" preserveAspectRatio="xMinYMin meet"><g transform="matrix(1,0,0,-1,0,34.079134643179714)"><polyline fill="none" stroke="#66cc99" stroke-width="665.3834906619511" points="41279.18153839604,14369.529793900456 41387.33970685032,14032.717060839594 41475.670157471555,13700.376861434595 41523.032127167586,13441.823663490726 41551.299123557204,13197.277994738492 41575.808068642786,12949.725480002578 41592.181823370964,12706.244353212407 41598.419206968116,12406.856190222374 41632.87245679442,11280.506794495856 41658.2093396328,11019.877508546517 41691.203112189876,10676.913977800248 41739.22533776565,10271.929730913964 41765.18289102174,10027.598481800265 41822.255906701175,9763.98457042968 41884.400138059464,9515.576681001745 41936.91607094716,9282.31978178711 41983.591831447826,9033.854596289035 42019.97844407538,8770.164357569909 42042.99395484833,8539.125274734384 42065.06758463452,8172.954750004228 42089.58807052725,7928.065137282536 42113.23939440965,7734.496597937982 42173.2499058517,7466.57294970127 42224.911576314145,7258.699651220979 42282.59986655623,7043.533212560039 42393.7906064182,6724.036841191553 42472.093768664134,6507.619385086279 42567.190901517475,6327.403901804298 42669.113241949664,6133.913120412521 42823.06166715465,5819.905234340257 42926.40176364685,5612.23335164221 43019.43228109922,5419.820296020758 43116.8979762947,5207.028517656954 43212.93674547538,5013.963622986885 43354.3165409002,4705.568254328896 43454.113268840185,4493.675390716388 43550.08783905536,4295.292416016635 43663.05329333999,4082.676778245264 43764.23335301825,3891.077930492762 43879.583365794766,3664.6175064050003 43971.881302779104,3469.8819714704005 44090.188439598234,3231.7960753333095 44215.87026766338,2989.749974576773 44336.448734077916,2742.6968396761663 44461.537011860295,2482.250020771441 44574.71965790945,2223.9742757131617 44736.12986863723,1934.0781668616726 44872.23611710498,1681.7722711918038 45012.94497428895,1393.4601183369991 45152.1695634673,1115.0095384502174 45291.3808516776,841.5489899561215 45420.12561796349,573.1469139072648 45545.32925827923,296.41819703158967 45676.38613505032,33.68199625188655 45827.44186693577,-242.16198546669293 45954.830368854215,-527.7449863197272 46066.15672271117,-836.7819651031434 46182.58133228363,-1300.8763279365703 46228.153831440926,-1975.9881811589437 46222.627031938406,-2255.3534911011034 46160.311791596105,-3437.2723319455745 46062.700786838985,-3762.7970583371934 45773.59955471879,-4594.690868608272 45672.153963396006,-4911.248390781078 45616.73600466181,-5094.154493363273 45394.84042786853,-5942.3902257624595 45341.718105554595,-6144.573159769282 45249.48325593546,-6542.230529279926 45098.29525816559,-7141.094160141469 45018.89937746453,-7435.940009103429 44956.994698385606,-7673.627634758144 44869.798405946465,-8030.02473492446 44797.76407190473,-8303.777752131715 44715.40966178724,-8613.818999508716 44633.14661080966,-8923.637410302217 44564.00651392888,-9172.990197798214 44437.93196158955,-9625.089249868757 44367.3318233837,-9899.38728416073 44312.790156164694,-10315.729367609814 44288.166864285515,-10630.415333088951 44260.590400484376,-10958.192876836822 44235.9649633462,-11273.100092294555 44195.70760831943,-11752.124493242784 44135.63498878194,-12072.04808179411 43952.47531767235,-12311.535107969286 43681.76263594988,-12464.566261122924 43353.94572057113,-12561.390001960048 42999.32796630776,-12619.62089944676 42660.22960984411,-12682.88053669275 42331.41020264674,-12723.478051734279 42012.91297165054,-12752.388172511162 41528.07818133208,-12792.437189902068 41193.9420568314,-12812.07069849939 40917.527110262265,-12823.3918130685 40570.88385393966,-12841.611358493828 40264.24108381424,-12908.671465800651 39967.53799843669,-13046.741361625162 39718.998277328974,-13214.894341118288 39472.71696462748,-13393.564346760115 39217.547393280656,-13582.236270679405 38953.61807157023,-13790.33111850543 38564.34271413639,-14102.05081107482 38329.07066804157,-14280.435731446862 38023.02287344322,-14509.824128025926 37803.183643169396,-14671.407486509786 37485.320930618494,-14909.910313910317 37235.98843446476,-15096.410806639777 37011.813249429644,-15272.624686899995 36705.68383733152,-15493.552417179768 36454.811358635576,-15661.528781163004 36032.56683218902,-15890.019858027916 35765.348908899694,-16044.620596163433 35366.842280505276,-16309.701096161325 35095.94889271746,-16472.943387611405 34823.57987775523,-16631.749757300106 34542.30714330811,-16797.671090805983 34272.83384470466,-16957.563498745945 33870.5611952948,-17217.72443266928 33578.25516730504,-17399.173229646734 33363.44957184337,-17533.606619080947 33020.89193590291,-17741.460834557834 32775.76082902605,-17886.50254310439 32463.355414218484,-18069.089147986986 32170.972351207918,-18239.30555525506 31905.184800734824,-18389.707917514086 31603.092252222596,-18560.71291655044 31354.25726419944,-18711.608553233662 31088.48261228683,-18874.62785868788 30807.1191652432,-19047.992357818977 30586.349742876035,-19187.930688785786 30280.586070889367,-19379.194638129127 30019.919036884272,-19542.28540141734 29738.522346512127,-19715.622886286546 29498.478689249154,-19873.547766019226 29166.142889185478,-20077.376480791452 28042.822883105946,-20809.83087371966 27771.759373137997,-20991.07355218984 27540.552426249425,-21136.851922751557 27222.871128915325,-21335.487511340543 26968.805965615426,-21498.712236372252 26660.675929842517,-21685.115703164534 26368.946168917984,-21880.56145502995 23898.47701707627,-24312.727804269933 23523.474128817223,-24772.752206915233 23309.344242087933,-25031.357503569987 23137.424462305884,-25253.514420798478 22944.78928765952,-25500.761950624223 22735.13706179352,-25780.296419892446 22341.583099577027,-26278.33716428091 21589.957972839624,-27213.453648666004 21231.70924772287,-27655.5202327311 21068.511860142033,-27863.882914185688 20740.108144704438,-28411.068440458082 20574.107744133617,-29113.01836105297 20449.841081649833,-29562.16430057774 20303.46414668963,-30133.387676350034 20171.073185868492,-30610.587721346023 20055.595868048313,-31054.169849773196 19916.671766098523,-31636.01399287434 19810.162974914027,-32113.162271605488 19713.317429693587,-32625.872808700642 19637.889697590308,-33123.24812945871 19563.239173919945,-33624.83308136609 20004.518304175053,-34800.3218770569 20104.593025503797,-35274.9938257963 20180.37921580179,-35791.16319868125 20284.321449438125,-36301.51686645238 20403.067827303174,-36830.90701809312 20526.95052562714,-37348.42579852277 20646.42710458728,-37840.235349871546 20790.328786133672,-38352.39285976492 20937.21614189969,-38844.0366394927 21069.330351970617,-39323.73476281482 21216.180728338742,-39782.67562397155 21327.423787071806,-40257.31037900899 20653.683508777725,-40996.32913420068 20089.893123670077,-41554.660714635975 19912.336243638973,-41735.53686742264 19555.724903305796,-42083.982180631174 19123.330260819468,-42386.98941848205 18596.25852913785,-42324.02936835914 18411.47480962156,-42207.61803946136 17954.353349442277,-41832.93902455313 17512.787568445823,-41508.87130342758 17023.204888921242,-41213.89924651838 16536.588752270876,-40936.968457808485 16033.71858435923,-40689.08008051465 15212.18349829193,-40385.85171695519 14693.878679540492,-40178.49199067881 14474.332117210217,-40087.443542534565 13887.915816098743,-39840.67447746194 13374.789165442799,-39616.95360361945 12815.01975683325,-39356.90644229473 12260.44378826375,-39115.00364094244 11747.47660723589,-38888.10441623849 11187.7314377078,-38675.526937571216 10931.336475033353,-38584.445644882326 10413.217427890699,-38402.27040320972 10177.428898148173,-38316.251473510994 9617.817461077668,-38078.32348879014 9073.78312207883,-37858.86556515561 8550.59746158045,-37698.66583932423 8006.632473687892,-37521.38685616546 7534.560430633078,-37364.42844221481 7033.668249767023,-37220.65843786862 6573.368464266114,-36890.62753439621 6370.01993888302,-36365.57402273343 6206.8105791677,-35874.41190745776 6143.6808392646735,-35667.83623468303 5912.157453183371,-34843.62403901002 5850.564940086375,-34584.50597485234 5707.295475976675,-34072.48581879076 5573.776904969484,-33620.97871359873 5403.911806290916,-33062.96689027263 5331.95927913585,-32814.82343993063 5173.202465085879,-32296.927166843954 5018.938932637822,-31809.840546807434 4839.535225446141,-31287.29223342157 4646.088929573004,-30797.55602598359 4351.831169468424,-30074.861827065426 4141.320203318662,-29511.743593220363 4023.412997725666,-28971.089306826372 3971.4028252172134,-28429.523310558816 3882.3413138427863,-27913.463542633475 3558.0155847612186,-27438.935378943726 3202.4675776752265,-26933.369874717886 3045.5202849776374,-26695.98447752488 276.31549188426914,-22986.301112120702 -732.8195347228302,-21302.53616950045 -906.6666501598432,-21003.239829363934 -1070.9066713794437,-20724.115498561958 -1229.1289197488413,-20465.274084411572 -1400.0425772632454,-20179.049776713295 -1567.165232287629,-19886.837555397407 -1736.512016325527,-19612.80110372727 -1889.5680080864943,-19374.23548412361 -2084.102282713437,-19074.694623119656 -2271.9376633352144,-18780.47220278434 -2427.1941486421442,-18511.5265393557 -2591.361025437393,-18237.477605141034 -2845.646269074369,-17841.250832253147 -3026.081866410111,-17577.721479645566 -3159.119631044298,-17361.20149439463 -3328.390397387306,-17090.57600347558 -3496.9717957842477,-16811.41284599933 -3655.8517292260553,-16532.36102708103 -3809.5882289135475,-16258.296670947328 -3957.4047056003997,-15984.232163216018 -4113.3610539641995,-15725.126920484268 -4336.582005452678,-15486.832802965015 -4687.67679267577,-15126.438870580185 -4879.093574504217,-14908.099416339519 -5292.887442278076,-14408.767241887504 -5528.6387696916745,-14136.523666263995 -5748.112763516257,-13892.881948741311 -5965.356985325643,-13665.42072061538 -6200.32606227322,-13438.277944662244 -6433.8358341345665,-13217.670984813381 -6638.470436469081,-13014.590101101912 -6919.991487816553,-12740.404991250518 -7124.608567727355,-12537.315072021247 -7369.880659906931,-12283.426513059112 -7666.833445199833,-11958.443928687333 -7874.404339227871,-11724.078981276618 -8166.184841838728,-11388.334251559465 -8372.182506585375,-11151.18980396831 -8576.82171139942,-10922.688641405057 -8776.23091075036,-10706.824403103576 -9011.08607028561,-10485.939940672168 -9266.712927458619,-10324.669505014659 -15432.877210111134,-10118.68175025449 -15600.002626960495,-10198.81520988144 -16173.897448761978,-10466.253943543568 -16687.189224465437,-10680.103197211427 -16920.93503483113,-10790.379022785752 -17368.45570514662,-10993.65470184324 -17704.315519888023,-11155.521431181387 -18184.002810415353,-12057.941435931756 -18285.094365157016,-12434.32659088385 -18500.46951536887,-13006.722795276439 -18610.425568512233,-13341.078622619541 -18749.504434407274,-13817.823455903916 -24885.335748287325,-15480.344196797754 -25456.06745825923,-15119.142129175003 -25851.834786289728,-14844.665533352907 -26178.090288835647,-14609.688120411425 -26612.901034224822,-14304.166678206439 -27081.611643186345,-14000.763282457754 -27519.42859473113,-13715.70579852106 -27967.483250680772,-13425.839044679322 -28406.591645149885,-13132.762273125196 -28853.140317586618,-12840.424890622407 -29306.287711387886,-12560.688927646666 -29572.108628054724,-12425.643279713402 -30077.8281271262,-12179.545669745106 -30552.462233668153,-11912.227033078816 -30931.083892269337,-11690.046917612714 -31238.551755064695,-11146.703658860519 -31378.700890374366,-10784.947084454243 -31683.92718537775,-9979.218878347025 -31876.0378332892,-9436.736150439454 -32113.44441892348,-8718.75741432001 -33678.93041820699,-4872.4686062123665 -33894.52030296763,-4342.845245457702 -40097.07238981473,977.3781203893934 -46186.21987160783,8183.995345818329 -20690.6542151184,7573.730757859129 -20654.6730515431,7888.259061122019 -20653.830100522933,8344.963298228524 -20667.008358825584,9588.181927358979 -20670.120907835833,10311.269751091595 -20571.15344528503,14383.325857051264 -20550.70998479018,15461.099705051283 -20539.752038807062,15796.406310132013 -20537.160766053054,15996.93253472879 -20475.33268333488,19991.816584404314 -20446.724279968705,21106.495102691748 -20435.784088697503,21436.48264115952 -20430.0055918702,21796.74242830123 -20508.398440637677,23664.30752199351 -20522.259106934496,24110.847324878483 -20531.457318661545,25937.717000984776 -20532.28851774612,27061.65544830122 -20539.065488916498,27419.39020095436 -20554.669878410103,27754.305581858072 -20569.528897666158,28074.032834966085 -20568.426196313245,28672.858614694276 -20572.953981740906,28992.56705199492 -20572.2997914627,29347.73898941424 -20557.707716693094,30457.35157648091 -20543.911185084606,30768.60180968184 -20516.500590312593,31240.453352456 -20502.668848317826,31571.989851943887 -20496.938016476077,31907.31030861549 -20485.034364249732,32345.934737051684 -20473.780443239968,32851.73756792703 -20468.126590148997,33145.820993466456 -20461.663022997647,33460.632556436416 -20438.659457900245,33955.10716023275 -20437.441311880262,35411.05340796174 -20436.2978819479,36035.59966386205 -20429.133675294775,36365.48649910518 -20419.006429262907,36680.51359938895 -20413.17396779216,37021.15577084546 -20396.382465965784,37341.1592074642 -20374.46055236718,37671.46272688947 -20359.085005667097,38009.53802495204 -20341.626493159176,38326.65826795984 -20325.58243890535,38662.07199885257 -20305.072305919235,39014.105712762495 -20286.813973040647,39348.407025501634 -20267.773860873716,39688.91479479657 -20243.25842112648,40230.61210010516 -20221.31807618838,40576.54662793928 -20197.524658522954,41094.52282255753 -20188.1555263347,41422.63283549616 -20176.45922294637,41758.16588352726 -20128.04351002898,42083.8775431723 -19942.209653387505,42366.664260205675 -18512.75557390453,42421.068553125224 -17897.715940494578,42399.33524002078 -17572.597307299264,42389.063260741845 -17271.761302247793,42388.593450728775 -16828.117905147814,42392.34957171126 -15832.0734448496,42396.21254824214 -14830.919163724207,42400.37936661631 -14539.533369320898,42399.55238655387 -14121.744571514495,42393.91644167935 -13823.807120471494,42388.88742581452 -13539.074359685315,42387.87311596817 -13075.676351680191,42382.8862103798 -12800.494117703984,42377.57865739558 -12504.779596692257,42367.04473817266 -12042.84375579119,42346.25030553857 -11732.467681950282,42339.3792121777 -11430.767764003294,42333.96673776331 -11149.80367806441,42323.2621537637 -10832.01052554495,42307.540413686 -9793.998337344448,42333.850836024394 -9487.954043460186,42333.58635584651 -9201.776845850933,42328.35822833633 -8853.889160975268,42322.977442129624 -8547.84847622876,42317.63948941043 -8235.92949983946,42307.20632588493 -7784.286494103341,42306.882045667015 -7018.406914694352,42299.390159411276 -6704.363532843711,42290.99384720679 -6415.196297964626,42283.39662761295 -6101.821222093198,42285.54875185928 -5784.781865825775,42288.372899553324 -5327.932705060666,42285.15231754719 -5021.88932242417,42280.02194477227 -4561.37736356925,42272.39696272033 -4100.190923714949,42261.797695974696 -3770.6217400907585,42249.044131556875 -3464.5776350634787,42240.85258059211 -3141.5646699702947,42225.34829873301 -2823.8528031208675,42214.95397413785 -2484.6379557130954,42204.45303438815 -2176.4710710014588,42192.74903371 -1870.427016520635,42168.194888241516 -1543.0707658722235,42152.07104116147 -1245.123305760837,42132.191022307234 -911.8836051570493,42111.429191926174 -620.5869717838572,42096.00054070083 -296.11964537598993,42075.81186280149 4.724805242368045,42064.83343186538 327.74765706716363,42049.42960088407 661.7635328093835,42039.1350329657 939.7600298620862,41994.70271118205 1167.9264990678437,41761.26668893998 1101.0349276376955,40490.98939770454 1090.0705482475794,40188.24744358256 1069.4798749209187,39690.95677647071 1079.9163725270264,38483.209614089195 1064.513492164064,38168.6061863889 1049.1250075269015,37691.602632159935 1048.3981559020353,37214.157153534274 1048.4262806204956,36914.742290175775 1054.3535138490802,36463.569840659424 1059.4942770129956,36171.8044429319 1069.8475552849325,35854.65418641087 1075.0852467692387,35565.327662282114 1085.3418042740263,35260.925627561104 1090.5816565981652,34956.41230407115 1086.1716645855454,34664.867912424605 1086.2017774112048,34355.365780304404 1085.4592276638068,34053.17993249253 1080.3740275448413,33753.76504090855 1075.28610826889,33479.73556833086 1075.314933915058,33180.43211866703 1075.3452435430663,32865.7201372555 1070.162707825366,32566.416288878758 1059.8629859667521,32287.287264619565 1049.6754733971322,31835.67097116555 1038.6051500800738,31527.387668577663 1033.5132211029222,31274.5314840508 1023.2152957119217,30952.72430777835 1012.1545540391568,30520.95100523651 1018.2310909229137,29511.524919692944 1029.2629853767205,29217.211565215912 1049.1921438529773,28761.38653558272 1070.5576277666357,28445.901456318872 1091.9216620445761,28157.5754150172 1145.0689233062983,27692.996807796564 1383.782943349523,27326.87725582982 1659.2679778414065,27177.152763412316 2022.4323436637817,27025.23355426665 2412.9208691176264,26924.435121960334 2704.6361543641365,26836.70661124824 2996.3587875893854,26738.67642539749 3288.1830998080623,26640.653892582417 3551.1379431473233,26553.715040284245 3855.4247291675533,26465.577189238407 4273.961051754211,26340.79852602768 4601.823671156443,26244.486962028885 5023.2789256273645,26107.654649232725 5314.3663799532005,26006.802574438858 5751.29514515856,25859.363259865862 6030.514795294278,25764.620646070176 6334.1693259726335,25671.89418738756 6801.995032207369,25575.83829516129 7108.53783137313,25515.060194100744 7479.262886867191,25368.200822328265 7961.935401813429,25203.364003087394 8247.841430719624,25125.198625480574 8553.651340775828,25039.0744000985 8849.901166758515,24958.161040810563 9157.931397913368,24884.3597504916 9452.049710288382,24821.640430987256 9757.863871962076,24750.846825148474 10038.669027965025,24680.03909315555 10359.950062790504,24601.516194993535 10681.240176938974,24518.235884631682 10987.171937208772,24442.48767358086 11298.902618085775,24366.642848629665 11592.956018891728,24298.215486075078 11915.797040397762,24226.50094685727 12212.083123568116,24154.54497679668 12517.933085675491,24083.82695009465 12824.565424311535,24008.018976335643 13137.779887460807,23923.35895188354 13431.866650391526,23846.333522051536 13732.620048691715,23770.654252423228 14038.502992851263,23689.779451919578 14340.043946093385,23609.01830368731 14645.915679041891,23543.457759324512 14969.446954723004,23492.22920013401 15281.963329343796,23446.20500479156 15593.716872177252,23394.978415387064 16051.44495396121,23323.35067468445 16384.6476355573,23272.28782682034 16687.51680149958,23226.621346914955 16977.920206088493,23186.486752876233 17305.91719328074,23134.334934545397 17625.91053713544,23075.750669038393 17950.93060118184,23016.740226878886 18248.711822660804,22960.13347755757 18539.154297337893,22904.076746366543 18830.364017487853,22853.01721651477 19131.80652585769,22806.971148168534 19600.689601210004,22735.507842170606 19891.793665453715,22694.785059270245 20188.134474421648,22643.770032102642 20488.929201004295,22588.447776909226 20785.264655024122,22543.32375078992 21055.811994749314,22498.158964011236 21372.060294079747,22447.98881027693 21667.736588466687,22397.898551327253 22061.37317240662,22342.79898615585 22407.77822653273,22287.729335348755 22690.910028214133,22235.64564534969 23132.52824634944,22152.192215353312 23434.112998031866,22102.050046659027 23877.806387507906,22047.119501401332 24204.394164627505,22007.249987244883 24460.266087439526,21971.00400951426 24762.528122616106,21925.333254703128 25108.2450376636,21887.417032918398 26429.610391370185,21895.562826305104 26776.02021410123,21893.83775524066 27264.71420035053,21895.019220956183 27623.57919170278,21895.90041945188 28123.285362292085,21897.146649235565 28461.587987077546,21892.792960729388 28980.453364664463,21881.59997389349 29332.763434554392,21877.419835117005 29674.778013711835,21858.036648995458 30011.573568593984,21840.090994989034 30532.06684818324,21800.37441545479 30802.560783231394,21795.795690147006 32388.94259659652,21926.541552829407 32721.885565827255,21971.63075206317 33080.73772991424,22008.825138817243 35893.27364980515,22170.59154212261 36259.72711743428,21884.443856693048 36478.80319423644,21621.992127834765 36696.864329470016,21406.9863845658 36948.80944564146,21231.227903286825 37375.62921305784,20995.422013989624 37648.04638560396,20856.994297560155 37938.940336445135,20713.42583146053 38204.634416743334,20595.718319228887 38652.7754437919,20411.358882272387 38950.98361362708,20283.028849408114 39252.154366230934,20165.913295214883 39543.52565406822,20089.564995630382 39855.3196958123,20085.351386112838 40157.567476178636,20076.01294540588 40493.09382121941,20055.05277844298 40830.10064769786,20025.904977516857 41297.709916774635,19951.24514440724 41573.91112074099,19802.61763779799 41746.4860044771,19591.753614534067 41889.14884534721,19268.59713031336 41993.54746168693,18973.455330746743 42110.38697988451,18660.514129233878 42219.10639594307,18375.70013237412 42316.903382918,18067.566839017793 42403.58220190297,17762.16361283023 42482.8536860126,17449.084150351435 42545.222223831835,17160.10685989531 42227.58315550786,16130.9673223789 42056.77052702578,15882.457521459008 41775.637842847515,15538.4264008688 41570.019771246596,15287.133829265013 41351.855481161656,15054.200220985678 41134.53242247784,14800.322969155899 40953.424692501896,14526.518340622297 40804.6600866411,14261.259475324403 40683.21950067835,13976.592061124098 40567.01094767013,13686.95670021185 40447.11435769866,13399.637211687364 40281.919495023074,12991.327156666941 40110.93647598015,12737.859243458675 39830.49485983011,12567.918690589107 39504.04761009381,12500.804126759369 39156.57924310017,12499.58240959171 38809.86658788196,12503.47329687139 38278.715908894475,12527.028155143083 37936.40027392848,12546.147871068999 37425.156233859496,12573.801445894933 37132.985187531674,12603.644553242311 36817.96848411274,12613.466729207128 36492.72885311942,12586.129042336213 36179.43913117552,12540.327202640825 35847.708311759394,12485.939442742854 35521.29162601519,12370.72076101237 35218.51908249159,12236.408696339979 34901.04649482609,12101.061329240054 34433.15468229165,11924.133006062722 33960.94466441448,11731.581133193999 33678.76698555418,11617.437637556515 33387.70407898103,11497.95389011607 33101.82637226418,11388.580588405981 32823.25483069804,11291.76228640823 32523.96783050975,11201.320093081209 32305.862509048897,11123.2028855494 31919.82449100243,10933.979702670522 31466.06049169763,10719.526789844955 31151.417863338407,10578.086590994237 30701.206552685202,10362.233688455635 30417.55926902139,10230.3217037045 30109.540861893296,10096.799415017274 29680.714052628096,9897.67306851754 29410.360181203403,9739.661110265237 29117.85257716147,9581.819760324497 28874.82051144679,9398.28533153 28635.642316513145,9179.515410932889 28131.140431806125,8782.386055773988 27729.7599488074,8479.093122128928 27459.413905723635,8292.750854818174 27053.538627968777,8033.590121696532 26784.577061808075,7865.779773898965 26488.368666269576,7682.392278422694 26216.485898313047,7515.697288950556 25952.62986391744,7346.145443754469 25675.641092014823,7163.4893282973135 25264.41205857939,6882.876673673424 25030.900943340865,6712.97189309859 24754.612523923533,6505.953172129522 24494.542342218825,6309.396799604958 24245.53575594586,6092.1414124628855 24000.96941612737,5874.90116392569 23766.733849664386,5662.787398823693 23519.929133698948,5443.003497864935 23283.41295661311,5248.853001026593 23035.124069134992,5036.060438373937 22898.39060244279,4768.2975496759655 23749.425454282504,4063.0664443803694 24069.98166608343,3967.5329340422186 24489.712568742172,3785.7617976766037 24765.348055223483,3664.54358077165 25046.885495563765,3502.8849687708453 25272.510794010745,3295.32589411619 25470.87259477733,3081.1691725823066 25590.318802967176,2808.8606413099947 25565.212838088308,2489.1111001703134 25368.686394832857,2229.4962424599817 24994.110018302814,2048.078830283989 24667.286667902572,1928.9660531964087 24333.080468227356,1819.6016134209472 23972.2678927251,1704.2042775529987 23630.5816319458,1601.9392602930795 23145.036663702336,1474.112592481244 22818.166909088155,1407.4859242604455 22473.42409721738,1371.8709301280653 22129.307914564954,1360.8764969029025 21785.297990378273,1344.6828972994115 21289.94732922887,1318.234590708264 20909.740781363296,1301.7774317205797 19484.5736180157,1761.4511987634362 19219.866754877527,2005.6397126582058 18982.4724247183,2242.6755616691034 18752.40676135568,2501.011996105195 18512.22885422427,2678.1941952756783 18215.40094667398,2708.1911115667403 17873.210098152642,2484.387459024717 17756.290759227813,2194.9935619307703 17671.91508929266,1822.514816011762 17620.717823258423,1517.9292325643687 17584.308366826106,1223.7871158200705 17548.56418448983,936.1864208556689 17455.49447570524,480.44812915839293 17367.248277464663,217.26439077910044 17289.494376315546,-73.94733567740329 17221.997652091974,-366.0294283084902 17136.99325190745,-794.8153683532443 17093.101846327405,-1083.6455992964718 17041.108491937917,-1393.2167276374064 17005.426481726416,-1672.8333673736497 16975.527114181165,-1936.7004001553942 16907.24540327771,-2234.7668646060233 16746.028485913444,-2601.8095377552213 16491.247404618014,-3079.1719715942145 16158.349020638101,-3783.881931864128 15841.686693934129,-4496.428547856165 15721.75708011142,-4800.43452281851 15609.166907563644,-5094.895839852498 15502.380880968307,-5389.347858645105 15415.634539864546,-5683.771167751985 15332.55640330427,-5972.978758565018 15206.8142794776,-6440.155717837499 15124.496272360198,-6726.700021107101 15335.211423063658,-7913.157852189085 15408.754514361808,-8215.894775062961 15496.573209855995,-8682.55598033576 15539.904899408699,-8986.33105623949 15579.49093800244,-9311.61557529004 15610.220717733288,-9605.874653602574 15432.944650649666,-10730.562479117154 15380.873999733682,-11050.430213570664 15329.603941713844,-11391.135826671309 15204.348074881042,-11690.70624273046 15005.084055089419,-11935.837342578785 14824.27090702925,-12145.358310426462 14560.062729515983,-12459.07079898747 14345.15589444335,-12692.903674907438 14094.871209392037,-12926.44431867013 13875.550130643629,-13132.007433381257 13589.001320882977,-13363.475308098275 13256.426971647172,-13445.013762503097 12039.244128971066,-13206.402209831958 11668.03307235902,-13134.522154367905 11120.104972089832,-13088.74477471239 9784.394839296241,-13286.079090901774 8367.404890220632,-12668.364915991868 8186.91216387447,-12440.92823073124 8009.230774127325,-12069.60638177658 7860.26698985613,-11598.055096858126 7774.2789738808815,-11249.49898926279 7686.0659435501275,-10897.950661536586 7609.021223865,-10578.318053174584 7537.084648203095,-10213.011971410258 7526.4871518661785,-9867.949377211024 7552.130156843688,-9538.159253052863 7633.183390841934,-9213.31945931288 7715.0243081204,-8913.86259677841 7808.655141849743,-8581.474861397379 7908.873970584211,-8259.168712327131 8006.299954675549,-7967.34678814192 8154.462347887055,-7528.280405137642 8230.361835592112,-7218.957780048816 8291.484097058074,-6970.057872951496 8368.120218075135,-6619.830379287437 8398.893957123297,-6330.603383218988 8140.1882468301665,-5211.665779913742 8046.127031921465,-4891.713168804373 7881.056537948066,-4377.380794938886 7804.096762223899,-4123.701413715572 7706.349873043292,-3767.167836793511 7601.939605735129,-3426.6000186196916 7491.626558168812,-3080.935952392044 7399.086070730042,-2809.7495618670455 7291.055388235859,-2530.8129522031477 7143.161127582804,-2124.8674114769897 7015.182661577305,-1815.4570146645792 6808.062700164122,-1404.1119706257343 6692.038412846539,-1145.9027488096776 6451.654669702341,-582.706737244084 6323.721456021957,-288.474160724615 6181.733021806652,55.85625162238566 6061.252832913014,375.5916157213299 5946.600042185007,669.7252202734719 5163.831226804761,2542.5884413002113 4908.246314724045,2821.1503815506503 4671.231530468525,2917.5993556155213 2746.019181054259,2195.993360732487 1686.6879158241077,1546.7576412321182 989.7168678143994,1535.035110567498 -839.8690661885613,2071.757911070402 -1131.4201079230534,2247.3698449583244 -1381.7404670141914,2412.4535021974325 -1819.4705000710949,2691.192916407545 -1748.370276250074,3789.594959082723 209.2427774007627,5885.085217009908 -97.02623459579875,6032.293077948096 -354.6299389413782,6169.087753361219 -613.6780473334121,6311.430984680098 -959.0998846944924,6473.629547829761 -1206.2391809550281,6580.402511729749 -1482.2941594655176,6702.149563669599 -1844.62035788975,6855.509742244608 -2161.190772633807,6976.282678128402 -2448.928404017291,7103.265874884282 -3172.8112031029796,7516.366298709879 -3433.231311592264,7697.240610217913 -3714.3354313068025,7895.198878695234 -3959.262366635474,8077.964848286495 -4240.250900347514,8275.936381406287 -4510.983832018957,8458.724322518605 -4797.271992603023,8657.377180266174 -5052.418606548872,8834.407394203257 -5333.4621337697945,9039.501047854948 -5613.723638524236,9240.721639836827 -5889.6249600718465,9438.732330199015 -6165.4198114154315,9636.749814686818 -6343.865795806707,9762.443697643086 -6869.681260801021,10175.009016213055 -7119.7163442432575,10376.91420709759 -7405.795166781187,10601.684158299317 -7702.212477581965,10821.14774810377 -7983.156416773724,11027.860320454229 -8280.248949511812,11218.961930315876 -8549.408047092315,11383.889217325128 -8870.845278224195,11577.02055293316 -9352.43882464832,11704.89170191945 -9701.350857182417,11741.32634325725 -11036.25309608405,11989.98364513063 -11413.920390181907,12067.958510730832 -11877.023296729873,12171.53232180861 -12319.427315960193,12275.435064338004 -12865.901576893146,12420.489532997603 -13226.536418941869,12489.637975414533 -13548.051847341128,12525.495198013776 -14482.342907407365,12694.162237838873 -14927.83518839687,12768.68577844014 -15156.415106153763,12815.550757656523 -15666.638293786458,12913.913848221617 -16095.066650492601,13010.962872672571 -16374.454861349112,13080.539691444597 -17104.253545413747,14347.00223499632 -16955.87072336236,14412.733003624262 -16086.203705799517,14535.158732760638 -14597.339460462716,14510.946027866697 -14300.894376130753,14495.265514165996 -13962.417910873663,14465.240452384445 -13654.873417793973,14434.043993180238 -13320.835429704017,14407.812728085999 -12916.055989009123,14365.87945145392 -12577.555986046264,14350.085286488775 -12202.897037287625,14339.361028045081 -11843.714475258463,14318.467357493908 -11542.148170086124,14292.32366240382 -11222.796909981003,14263.398951939 -11043.60024266147,14242.934741879015 -10688.199988037231,14203.680571115268 -10354.950843525092,14145.945981881367 -9954.569088143815,14027.525606834182 -9609.475026096334,13906.728219235123 -9052.89747886822,13622.151585116102 -8486.699557282407,13365.862558339812 -8190.299042435204,13236.61056413805 -7903.466175213471,13102.163188525708 -7622.516631288484,12978.036375859143 -7327.54551225016,12849.58424384365 -6477.39224721495,12471.610908157689 -6196.413819406543,12342.531692812725 -5944.22365476573,12244.84572336611 -5649.88350930901,12130.738099291233 -5358.631047115424,12017.08312055611 -5066.603303969774,11894.3455907751 -4780.367829670778,11777.493290752725 -4494.2271622202825,11650.450061118534 -4186.712653996619,11521.189127600705 -3895.3382219144514,11391.942276352273 -3457.974615891902,11195.702874723522 -3176.9308386477674,11061.378833000485 -2855.374104036135,10893.906984268702 -2421.6556282704146,10658.911274571317 3520.8565194407997,8326.678258938497 3953.221695040635,8202.891501373277 5102.813322930766,8393.022338568648 5557.326372237015,8494.667306362864 6546.689338263729,8709.809576200661 7025.440354239303,8828.71031580108 8376.990635125867,9085.151778733027 8816.727268121109,9088.15005323404 9664.53457207974,9141.94779094388 9991.301224208411,9157.421375524971 10501.88663485935,9198.571232009439 10946.039790289495,9229.370070553248 11543.640011271897,9285.839515440903 12023.84786385193,9326.916689510497 12415.682252631215,9349.514808560752 13087.75608242675,9386.418158549908 13655.104729204828,9412.92444509494 14174.501390742013,9425.874833193187 14700.572546424497,9436.641080793015 15231.77495667288,9442.450752880706 15742.438709664559,9336.629766496773 17390.614949876646,8473.65654611421 18187.830743249706,8299.66862494336 19385.873924149466,8459.420869616204 19840.31690743514,8526.617111566951 20254.12640422928,8598.303091713775 20921.676415729587,8738.09504684466 21234.34201013346,8793.001011981682 21660.739430285892,8847.13764721812 22228.797527547176,8910.217446623856 22827.074996220526,8947.89196381403 23035.862257172514,8953.862401398545 24321.608517293713,9100.800542217787 24842.457219113283,9463.319562642562 25078.946747640064,9617.486881245957 25466.554830559853,9867.0016883594 25767.80036372965,10070.660072119488 26038.182976946817,10234.791705264124 26339.4729274861,10410.97458526498 26631.301925802174,10576.72308340928 26922.264563138375,10737.267144693165 27156.54667511301,10861.765237021673 27486.601889611327,11044.035052753368 27762.172527285933,11202.013708678543 28047.92088129719,11385.409701666322 28305.67807806947,11545.906781441321 28575.970855996122,11716.751054237362 28848.460564599685,11894.812927353627 29126.849127327503,12069.127897666425 29388.245251410088,12231.100665556269 29662.31960311705,12385.353586027717 29939.15629309882,12552.257750556335 30202.911614379664,12691.309712396716 30478.496369791035,12779.740923117906 30888.30228221842,12889.832315933276 31158.756951881896,12976.82509463081 31443.830706486042,13089.2505756565 31706.129228139678,13185.545258018561 32112.15164432175,13324.60321162602 32408.38948519511,13414.582502137464 32689.201799483082,13488.561899472734 32979.51220068711,13585.85525909493 33265.32558547456,13698.3295125243 33556.32275476193,13821.025027454498 33817.759732358194,13934.88142618657 34081.550921766335,14035.781459260947 34382.09769891193,14127.93251176119 34632.015568221206,14179.473798213548 34879.02683127895,14201.414128582395 35244.73156382541,14227.05888667559 35534.43168172013,14260.122657972228 35990.04869393307,14310.686985797653 36294.52944615636,14345.259112396354 36575.41474266226,14382.090239534735 36898.32856524839,14424.60961464897 37194.65834010723,14466.828176195488 37512.330526085556,14514.44706510281 37824.1388757172,14551.635054342483 38118.263199356465,14586.665267172426 38399.22525093966,14597.713955464491 38730.345851593476,14611.382041965597 39037.01798980279,14622.757527137728 39343.13686022648,14626.37982364631 39588.629830060134,14635.116636516794 39833.46554502083,14638.313887767177 41135.13911063938,14635.377022849794 41405.84882044282,14620.967531888882 41858.80596330994,14596.825107320743 42113.955000103386,14582.374520334142 43384.46292376769,14442.568628363779 43633.21831748224,14383.565246875876 44118.414629132305,14228.16924358439 44333.826868489625,14023.279144866587 43529.01060522501,13490.02243417459 43142.16220636561,13781.173470676877 42848.25638527244,14065.93159489752 42637.75452871816,14359.43989747384 42437.47151983666,14663.078539556285 42274.01502778885,14969.852979096418 42011.89057752872,15453.955120989795 41804.48475365607,15888.71694571081 41318.99192892689,16963.51165580906 41187.65199831461,17200.25149596997 41043.78565423065,17428.52212747938 40832.41976375188,17565.42711091587 41132.9297539776,14631.599919973007 41111.62415828613,14616.11311637049 41071.719691380364,14637.69354146514 41050.936445353036,14664.221777980443 40997.786833677834,14686.529823042214 41123.39366890182,14622.474965955396" opacity="0.8" /></g></svg>