<svg xmlns="http://www.w3.org/2000/svg" xmlns:xlink="http://www.w3.org/1999/xlink" width="300" height="300" viewBox="-88076.04666313536 -47330.4147151632 175325.09753451747 95508.94617064831" preserveAspectRatio="xMinYMin meet"><g transform="matrix(1,0,0,-1,0,848.1167403219151)"><polyline fill="none" stroke="#66cc99" stroke-width="1168.8339835634497" points="80755.52874047405,41685.00932457706 -3606.3805048287827,35575.69818036425 -12472.881329181224,35238.817621174756 -13555.887889014539,35103.9588647076 -14623.615243586853,34892.900449170425 -15702.085187675042,34580.25037087984 -16557.93925354107,34251.85173825616 -23338.524429835878,31038.619421819294 -24612.033189028105,30305.98320802661 -25980.18733793354,29375.524212062053 -41424.574445559716,17155.01989937049 -47723.69885916535,12246.108666289041 -55700.25421360731,5606.3446539320375 -56320.61423438546,5115.6631571794605 -57167.60980213031,4523.187005167357 -57791.81631135366,4131.787540825961 -58647.77263039039,3664.601572988678 -59610.51547574449,3234.970766263927 -60195.92124294198,3018.267295603465 -70528.68279313362,31.346773953593956 -72032.06945120747,-493.28674751302646 -73549.96043895304,-1191.9900274006272 -74658.20630615705,-1827.4899762399084 -75625.00416137153,-2473.544093474649 -76649.12550159433,-3277.332846177449 -77396.02980234529,-3948.101258181807 -78328.63975353153,-4922.558884994938 -79104.9887432252,-5899.139933237395 -79660.10152062569,-6726.1048361398225 -80253.00280492818,-7787.2912050106415 -80601.06470911234,-8555.511671178849 -80965.68029773976,-9537.326633371287 -81147.187245289,-10146.258691786354 -81399.20012577686,-11272.905414151557 -81535.03899857697,-12314.721257687223 -81582.52453222731,-13388.411574676724 -81545.45749085746,-14402.265689957743 -81425.08938123363,-15442.825599408736 -81265.09139013659,-16285.387746980612 -81027.56763272088,-17195.29380005065 -80706.7090578985,-18136.97548096899 -80266.59046145208,-19161.86620973113 -79844.09646964271,-19972.59991559537 -79312.29967292974,-20835.810626517927 -78506.32915541921,-21942.243726952678 -78073.72881673572,-22447.465524772593 -77535.981789313,-23019.566877986956 -76824.71330817482,-23692.44822241018 -75191.4062065165,-25009.768433882586 -55949.351412104406,-39288.71094219408 -54900.018427035284,-39925.85917915911 -54565.51342719222,-40094.896818548696 -53731.97098344497,-40419.6889361072 -52966.20183298537,-40630.82377963807 -52409.26330670505,-40738.02406065299 -51805.89709788739,-40809.968884339716 -51109.94967597976,-40836.89258425515 -49964.443493210536,-40744.71956227959 -48746.64098123119,-40456.291088786005 -47667.44713938284,-40014.50821221966 -47055.77581886356,-39666.70440714031 -46458.080652882876,-39258.65370149853 -46008.44252143132,-38879.32184578288 -45504.34465299064,-38356.12572583224 -45064.95585680939,-37815.00431524125 -44718.02179898636,-37308.729654735325 -44501.05352470643,-36934.69720846444 -44025.39649216669,-35892.683120948604 -43784.428920410406,-35081.22187387668 -43667.33893647283,-34440.65517237934 -43515.582218892894,-33178.5297206498 -42277.74081557777,-19717.11499376407 -41713.506736885625,-11666.701124718915 -41102.26866183524,-996.6177482508376 -40091.032661038196,11138.170394119641 -40016.96273665505,11758.984850915513 -39825.06236037219,12420.355803646265 -39527.19869103746,12967.041330173593 -39171.42406998451,13404.584599729327 -38834.90604508281,13693.766191150837 -38317.71381900397,14014.651631036379 -37645.08775087911,14260.71459116995 -37119.2200738889,14348.728806359852 -36349.931732206234,14332.4541798424 -35565.67098714939,14134.614853887719 -35028.249892954074,13883.59672088631 -27393.05522597091,9463.799525429498 -23029.171505712595,6860.032811676626 -22497.43293715541,6386.26291530632 -22109.082028616678,5834.770933061435 -21896.424279964158,5265.720063527816 -21834.857184122247,4613.05852422555 -21886.472962772084,4209.651437277178 -22084.990009627312,3630.276676763484 -22433.652809748062,2923.7222647317226 -23300.08306600384,1399.909911329498 -23677.981817239488,810.9272075378408 -23950.37944276819,516.813977474143 -24389.994521239638,147.09109667711596 -25347.17202887083,-495.1443650962926 -26419.36027719191,-1146.8349829593506 -32376.293228046125,-4478.331079716158 -39243.702873030066,-8414.78087360837 -41532.74085106838,-9655.971512007014 -41883.2744218217,-9891.460558180752 -42110.24203951806,-10101.997505486397 -42457.39404277505,-10566.251269641427 -42664.95643746434,-11050.39426590264 -42765.53865542316,-11557.033320986748 -42736.64982890748,-12193.360013472087 -42586.76477516621,-12713.098575855684 -42244.66895205948,-13444.636691147853 -41528.63909325645,-14735.465246881298 -41191.241843769574,-15153.293653973977 -40766.53639641032,-15507.551192896692 -40392.151417444395,-15717.458403108227 -39968.9439140672,-15865.565231858927 -39555.14124386739,-15949.538467028118 -38520.06544714649,-16046.893153531724 -37435.3975457834,-16090.715970656793 -36925.10758373614,-16024.047582188829 -36484.87138814845,-15884.459107304769 -35190.32408290254,-15272.094055245896 -29648.32767558071,-12348.656101096443 -21623.696781836985,-8192.550529460204 -21272.54973527841,-7976.816967559498 -20854.52300884496,-7610.472360298003 -20628.1942153832,-7321.382048900743 -20379.799872962616,-6861.498522915602 -20248.052846154875,-6305.639306796776 -20186.35690064563,-5308.886447441126 -20185.681089993155,-771.4013144806513 -20231.075240289603,-358.81782620485563 -20406.62167206682,105.17024578666931 -20551.860524016458,304.28918662236526 -20801.868244391986,518.4838320222626 -21311.53398889976,699.27246495776 -21937.02115994628,732.3178084681034 -23194.385359585423,518.6170237383557 -23638.296262962464,347.422354471171 -24112.83848370359,107.62104210450578 -26356.505550236805,-1091.1338653289472 -38507.18820245955,-7926.454885702378" opacity="0.8" /></g></svg>