<svg xmlns="http://www.w3.org/2000/svg" xmlns:xlink="http://www.w3.org/1999/xlink" width="300" height="300" viewBox="-223627.95561049317 -113937.61875084888 440744.8165950642 234517.58321890776" preserveAspectRatio="xMinYMin meet"><g transform="matrix(1,0,0,-1,0,6642.345717210017)"><polyline fill="none" stroke="#66cc99" stroke-width="2938.298777300428" points="200338.3930614474,104239.89131917899 197988.70380359475,103995.42286520542 189675.0630460206,102955.41427180581 129727.68823495628,95894.60275589055 128493.16390510823,95687.42496627322 127108.36680809128,95304.68977061866 126371.46751559038,95023.34251395545 125304.0256587075,94515.52300592023 116072.65745922575,89862.8727747386 41887.51921374679,52164.8990525608 39448.44185466627,50746.21931203608 37885.71702972868,49698.24106006187 31620.460117324506,44914.34190102379 -54409.295131145525,-21730.07955389291 -55396.35945568289,-22517.910121982793 -57373.10160610266,-24274.232895792993 -59315.558224908,-26294.170817710165 -60095.97152970856,-27217.666157268664 -61212.80873840916,-28645.432081026855 -90241.18218045933,-67595.71041355812 -95460.49814782171,-74560.48795987989 -98225.21777989354,-78150.80186055445 -99241.60892315522,-79365.39438865807 -100627.71060086448,-80742.18230314326 -101761.66869927371,-81693.92326538205 -102844.12470774468,-82458.79265755502 -104296.36179953764,-83277.93067457381 -105933.70281308483,-83976.2673752727 -106961.69406322806,-84309.73110568932 -107760.64730057516,-84517.93140294332 -109522.60264759528,-84862.58958082488 -122947.99614290315,-87131.12046408669 -185069.44402817555,-97361.2605823397 -186078.14835095408,-97510.39982620762 -187379.1717834787,-97613.73665473539 -188936.09405938117,-97602.17765415796 -190759.4825241407,-97442.02917386526 -192623.10971183865,-97111.5136128656 -194173.8877818972,-96692.4324514014 -195593.14882213675,-96178.95522189284 -197168.96778911742,-95450.71038990712 -198731.1047146122,-94547.2861322798 -200158.79461698933,-93530.92108854679 -200816.65267622093,-92988.88315389417 -201603.96456709056,-92266.38869549021 -202782.82437004882,-91021.36166502128 -203722.7875507481,-89831.21394970118 -204804.46377224848,-88154.89059936283 -205549.2757210543,-86718.02034525917 -206162.31272939584,-85239.86958347281 -206462.2461744415,-84348.73592195484 -206769.26369247923,-83239.89889265782 -207076.0357047605,-81708.78476649254 -207268.40186469277,-79965.32087480802 -207304.07351437968,-78344.5579669639 -207216.2839200646,-76901.34180868219 -206931.7502859317,-75032.23933510318 -206502.45775806427,-73336.67315231769 -206001.03105734967,-71902.67711929475 -205694.89540913,-71164.88172387623 -205253.2831819783,-70258.70532730054 -204430.10296054033,-68815.92077214204 -203404.0034554147,-67345.01080177218 -202409.70605940023,-66162.07616999272 -201865.74806230745,-65591.21084946087 -200924.4678690418,-64706.23481762605 -199948.6433895388,-63912.248431341926 -198734.9641765987,-63052.805022593035 -197602.22700538771,-62376.80597600776 -196915.77466071487,-62016.910994125006 -195546.79343428515,-61405.51196785213 -193854.90051043907,-60809.78612222395 -192554.13078758,-60475.08060683673 -191004.70935515568,-60198.35107245239 -172352.9362384445,-57791.610420643665 -56450.35213253483,-43069.87389449679 9521.265200675982,-34740.46892153856 42128.14015764277,-30571.417557034343 45194.60109893661,-30191.003012867073 46232.777574943204,-30099.943740375802 50623.165121251324,-30113.539638131097 52656.619976113354,-30380.39514788947 53995.509830087205,-30658.861850430767 55010.6338486249,-30918.4602162674 56430.302347313045,-31367.893770646504 60563.217229135604,-33290.750901525855 63599.44581935554,-35396.108988259264 65834.74022241704,-37457.304146931354 70000.09270353493,-43436.534780939306 70314.47058777443,-44108.460331562324 71028.6892561964,-45870.1821115301 71529.26374097604,-47432.56607039053 71778.96294958566,-48371.63807067302 71975.25200172832,-49264.77213711332 72219.81010217102,-50734.411889845884 72433.81992542223,-53773.122035470755 70588.62953375834,-63155.14060194002 69627.10498144908,-65176.785899680784 68729.6273553012,-66714.53393423079 51786.94918082859,-85794.0791818545 51094.42909804836,-86151.38404728271 49250.27770860345,-86952.71754728185 39736.00576619013,-88581.18039892578 38197.98124735154,-88479.50179960085 37101.254264138755,-88344.0856845129 35359.539658263115,-88034.28270059949 33580.78351100695,-87571.48827206255 32977.98812077324,-87378.1680872354 30609.81307713904,-86452.90566035676 29635.175479156682,-85946.92723594286 26209.125445232377,-83867.16851286532 23405.012373691115,-81430.96215760539 22416.650746237887,-80363.45550356185 21342.590611009236,-79032.12397538724 20653.15126827605,-78071.90006287357 19722.864607373103,-76568.94384777763 19032.931538149183,-75287.61544375062 18149.739039226803,-73276.99711051365 17674.467999276232,-71909.58929017259 17044.21035445791,-69496.69302563145 16575.96806831275,-63566.26485154652 16703.279503463997,-61961.900324365066 16921.21229213834,-60464.839179461815 17686.87717765538,-57403.3313099729 18327.687079919837,-55641.41716326498 18995.51290650755,-54164.02865291975 20026.87643650718,-52281.55723409144 20759.013515000446,-51147.865074746194 21698.416546990822,-49836.27078814836 27260.464785778968,-42299.67052288577 38498.04426282782,-27956.679463133794 40804.308713517625,-26092.71540672379 41581.96899394362,-25558.60796210541 43438.68386912543,-24465.720407017 44979.00442360783,-23720.862438452434 47107.27475778585,-22897.124855235754 49009.440305545475,-22354.246147769958 51126.49880471684,-21943.86124145142 52522.11199236461,-21778.6668627352 53588.83394789433,-21702.572174513316 54897.88103501475,-21680.05708715597 56244.78752289377,-21733.14780230542 57393.81608715749,-21835.700026405673 58731.64046786445,-22024.02215101183 60228.98921203815,-22324.174299809634 61896.09323306629,-22783.03337514949 63139.94044921313,-23204.221369654602 64090.800907874494,-23576.98576401682 65674.26656866015,-24309.808367294692 66553.02666646976,-24784.632273672945 67862.07146983605,-25573.69064636963 69494.5165891961,-26730.18455622293 70290.01891707258,-27366.710649326345 71185.47282879955,-28163.330332176458 72076.74238987663,-29027.16566138512 73333.75605211429,-30429.808158470907 74238.79334377193,-31583.56680642046 74831.0136841945,-32431.15059450896 75903.6498538363,-34193.78815170174 76223.81760852179,-34797.94739322001 76786.5726310044,-35963.84503678589 77465.29043773419,-37628.743093424695 77978.52987083,-39226.25297619656 78278.71533989259,-40366.72317479429 78487.39302491634,-41337.15068269697 78746.26491857355,-43028.716268232485 78856.10011310296,-44279.50517988515 78901.84555031867,-45374.649963429525 78896.02276821858,-46498.105031992374 78823.40676628627,-47767.418312852395 78556.15685611418,-49903.89632362587 78377.88338927635,-50837.52988307301 76559.23883142926,-56178.9601934882 76041.13774051913,-57211.36682327729 75374.11353768795,-58360.32300044459 68326.05538209784,-67823.0819780537 57911.1192222062,-81733.2538216986 51175.96802414432,-86568.01783261044 49238.109549331406,-87403.12106390609 43944.33941831958,-88759.61831542396 42383.99383795109,-88921.79786038544 38830.655109419225,-88915.51716794117 37743.06805777494,-88808.1959507605 35819.37685814041,-88494.6169571023 34368.3263175537,-88152.18583329381 31444.323874275586,-87160.98905650577 30434.68054348715,-86718.47811829804 26478.284677992826,-84416.99997420711 25347.514035972592,-83503.65671576133 22551.412920200866,-80891.2161164899 22225.733319382744,-80514.28793033102 20706.91422813241,-78536.50327110145 19216.227722749412,-76073.75310925386 18804.30526625037,-75257.30421216736 17848.61745119127,-72967.71714948791 16685.191707198504,-68258.07494231005 16465.660407207717,-63944.43604481246 16548.395361769286,-62655.20040169244 16671.039731516095,-61583.529931680016 16999.691794791164,-59750.21011013942 17522.962799711415,-57775.56854184627 17759.956848555208,-57045.94790022049 18209.118840062303,-55834.175279139716 18870.49114134807,-54350.869763842544 19455.294460839432,-53224.040877382926 20305.725247892446,-51794.01201155652 21282.522761537344,-50377.363561802566 27226.914269440647,-42328.98955184132 38959.75648565283,-27536.764341029775 40850.79342492445,-26052.524995276133 42482.54849163383,-24993.463372008417 43842.79072487159,-24243.76652532325 44840.69709372727,-23767.755708611883 46041.002656362034,-23262.949844386585 48268.11921560173,-22519.95534635907 50196.96369505753,-22058.252710018478 52008.14125874704,-21778.15593257237 53905.754766014616,-21636.455282641407 55538.10201376568,-21626.116353793666 56570.74416495398,-21678.184895568815 57719.87201601952,-21791.024899168526 59214.25419733158,-22019.078767599985 60273.3592715317,-22235.96071022388 61826.18323666767,-22649.18350669471 64242.85841453463,-23513.167859434674 65132.313098973136,-23906.98138107783 66323.73172854264,-24502.197889402152 67440.82064987977,-25140.837116498707 68489.74275450101,-25809.408751175215 69217.91678272621,-26323.58260090349 70555.92392306634,-27373.987753802685 71507.86613704244,-28226.640377097683 72351.28869393558,-29054.78823546097 73233.57270815657,-30016.92238988094 73884.05725873422,-30793.97306934817 74493.28692998635,-31590.121351066075 75576.79878906252,-33205.394497519104 76087.53220400494,-34069.79353130295 76720.8922391725,-35282.56767355307 77374.08549065237,-36734.354200080015 77810.94631852928,-37874.399892670706 78187.04178430144,-39029.988854208415 78599.26413261234,-40626.39272961827 78994.70281457221,-42883.305980651 79110.73648511882,-44052.039322686695 79183.58514630824,-45867.77562106087 79056.41544581515,-48374.67079589095 78897.57434128276,-49588.38399632432 78585.15542383095,-51259.817470031594 76991.05294395704,-55981.69903572447 76498.18455625963,-57001.734087134806 75756.1751201373,-58334.97857785338 74351.67101674271,-60430.020907398255 73599.72959528968,-61462.764828606836 62856.621809461045,-76039.92635632727 58094.85707514628,-82016.10397557651 57291.627020383,-82800.64589421437 50419.5028642201,-87289.49375912029 48980.98430949645,-87860.76519224128 47908.13084509493,-88219.40484169249 44968.87336385892,-88929.93192571543 44137.758903775284,-89064.04549827975 39664.171630689925,-89277.38004026485 38581.923898085515,-89204.77002998511 37308.42327853516,-89065.47115907296 36180.1286443394,-88879.18855786927 35306.457662361245,-88701.3286786832 33709.53116268127,-88283.2737736649 33269.947149113555,-88142.51961781635 25699.36351206428,-84138.58353887148 22782.592742857832,-81443.78493612257 22323.37453613251,-80937.90202157562 21270.335053886894,-79632.78943440359 20723.70154252778,-78882.53713611202 18259.58837176821,-74420.53929296108 17751.08098893406,-73066.44574664721 17047.85777202282,-70738.92663286818 16632.920471005196,-68633.48826436859 16378.477855169585,-64110.75003189792 16457.613690944603,-62838.06146460385 16598.834063462324,-61595.72856374684 16904.6782064296,-59885.068897271514 17461.000613747838,-57785.93553013288 18185.118170807953,-55781.62546324199 19000.315490515288,-54013.90075819599 19879.20926467308,-52442.53189408067 20763.93623618626,-51081.676659396566 25621.39398820151,-44485.769716240284 48311.44891712371,-22395.779036951153 49776.75212599253,-22016.776043742164 51273.48423425845,-21728.749106338506 52776.04333330808,-21531.909162790285 54103.945735538786,-21432.6969112385 55388.13807754642,-21405.557783306176 57149.88329648422,-21479.969518273 58471.17332601013,-21617.781511077257 59715.2923977025,-21810.277243558503 61009.01236646671,-22078.080826520825 62646.50331559932,-22526.423712300115 63830.20743135772,-22926.80496546045 65232.91491895416,-23486.507344609898 66596.91855897872,-24137.605724043482 67967.68777898041,-24888.910153268702 68742.68807073156,-25366.351569807757 70198.91268700095,-26379.015004963538 71289.34661551898,-27247.87495760181 72557.76908237943,-28387.638779534624 73975.14186814314,-29876.47700824396 75046.24123913034,-31181.13112699219 76267.69336876059,-32926.49406823192 76925.34061423875,-34017.35412646718 77675.30158574833,-35447.97415914044 78291.1713366002,-36834.50071028923 78802.81123674239,-38186.57694209967 79229.2851411434,-39561.69113643235 79616.84676288026,-41128.16403829093 79930.16799175976,-42920.83004534068 80032.94881192013,-43806.03713835005 80141.20745000402,-45503.933840342004 80135.42117411566,-47003.92195533823 79937.81629112214,-49441.749599205694 79680.97587580454,-51023.352127385435 79014.49763112076,-53618.4524282623 78392.97175914852,-55383.10224951337 78022.62369055333,-56262.964364819556 77711.97749493022,-56851.987361789055 67225.4577844292,-71834.48557459957 65971.9616405168,-73134.5633011367 65392.43380003905,-73655.20552819535 63820.13749261259,-74843.38287251281 59346.165132047594,-76884.31447484535 51808.55415870576,-77151.52710614789 50831.99152348924,-76920.92870982482 50029.94350035415,-76682.11078718328 47789.58809835536,-75764.09667946072 43234.960294836405,-72309.97608578233 42538.743247347586,-71503.590814112 41190.09283709019,-69525.42605607233 40581.49873127484,-68369.22196857231 40281.83060708534,-67699.44484966528 39108.76580195861,-63012.922550279945 39075.1814420593,-62270.26508451157 39106.97660160494,-60016.573935297594 39270.67322824011,-58731.05725371247 40455.42509214386,-54769.651655883914 51317.85290269218,-40545.9784652568 62282.686418434794,-26094.869564311615 124733.01794519092,54168.38383840253 125383.48223835524,55156.24185131305 126147.130451747,56560.96618125081 129649.90714863392,64050.717672313855 135837.9917792028,77447.25105726875 136076.28217711038,77924.23288496124 136593.40474999262,78734.20615723357 136913.0928605654,79135.51242177513 137648.76871824253,79904.27465580772 139640.69258346394,81703.94294742825 146028.8165279506,87188.76395117425 153572.90386914343,93584.94792107034 154520.1570149077,94271.74372883131 155645.45834076696,95016.78660227312 161181.20760171034,98544.52695392408 162212.48652774762,99143.82419965707 163053.1891992098,99514.31480126356 164352.82621515877,99883.10685661598 166591.53000709467,100239.14255258771 200792.97888845752,104256.0823719454" opacity="0.8" /></g></svg>