<svg xmlns="http://www.w3.org/2000/svg" xmlns:xlink="http://www.w3.org/1999/xlink" width="300" height="300" viewBox="-102226.69439123746 -179574.60681902608 201034.34206983628 360028.6893024382" preserveAspectRatio="xMinYMin meet"><g transform="matrix(1,0,0,-1,0,879.475664386031)"><polyline fill="none" stroke="#66cc99" stroke-width="2400.1912620162543" points="58404.478768026725,160924.46646150292 58032.77201345043,160753.98882005538 57738.86026690752,160562.9904540885 57173.797024253676,159979.9426928825 55326.959674391524,157433.938451083 51237.48848584778,151549.75138982234 50932.411102744925,151037.24064893325 50726.17083635253,150564.3160298366 50570.55846554652,150028.48430745624 50426.389509028086,149192.57241258072 50376.77651443231,148324.4396130512 50036.32452541156,120359.87121167814 49621.95094008505,91119.54332086432 49555.82157357302,89046.1278789388 49431.4871176671,87075.31023507583 49238.290758217394,84959.40426256537 42409.46726151148,24315.642858533094 39345.018256304815,-3261.317563182525 39177.43531082406,-4487.170708691134 38946.91831442835,-5563.154432794724 38671.380131966944,-6477.116522912618 38272.80516115911,-7515.197842286147 37792.44494712215,-8561.653193975815 37280.14208890714,-9499.671158056459 36733.42525209029,-10369.663620113944 35906.17595831564,-11547.750042436219 22299.269481055966,-29940.991110586278 5970.736243323403,-52160.24783102435 -31534.8776961233,-102915.63474400688 -53629.174340859485,-132945.29432516306 -69694.47110003978,-154631.36780763895 -75623.46213372127,-162835.1339101874 -76107.90139206064,-163455.8065158281 -76630.92798323985,-164019.2581830764 -77533.6309733726,-164783.00504375264 -78552.14953087647,-165411.56197387018 -79443.9838686443,-165801.15042437037 -80185.6645817881,-166027.64346628118 -81171.62996177663,-166200.85771209616 -82322.95248602472,-166240.21091893577 -83060.94642554931,-166168.03385219508 -83529.55527262516,-166080.70806376258 -84490.072439998,-165796.5518358165 -85557.5945373237,-165292.71290540637 -86403.28507995115,-164717.96174070955 -87075.99162816894,-164108.27296413764 -87791.85870030713,-163225.6152949195 -88303.5851007342,-162336.64727028937 -88645.61225235603,-161439.48604878347 -88770.33964267465,-160940.24884191013 -88877.40646621436,-160253.21943962356 -88892.29849114716,-159235.48349206732 -88778.97831972984,-158369.39402548596 -88599.90110911461,-157685.4471180083 -88401.85152107436,-157169.3589933744 -87984.65236305518,-156398.39836932704 -87703.9005637719,-155988.06182095432 -87207.51185529251,-155414.06914511014 -86543.78790558336,-154832.6833952961 -85762.45366871546,-154303.53805044282 -84725.36854299657,-153694.29311574655 -67475.49940839462,-144082.02847854854 -45877.84025135304,-131780.5291646724 -44548.6701511948,-130940.45175808975 -43657.19480977286,-130311.58385671202 -41245.85878920864,-128389.65358678882 -39045.1546554857,-126457.98897780216 -36577.09904314324,-124200.51666909568 -30770.72959602209,-118710.82271276154 -3640.9650197712313,-92585.696611344 2692.1582335688977,-85715.2430263361 9300.780984941,-78278.53530783023 26035.485782895244,-59108.63880143264 26197.73009260977,-58905.50773111037 37148.46944108898,-37121.717818804245 55335.329211429715,-644.2778056372755 62864.68721472876,51795.50083994681 61804.90719459017,121131.03244275917 61793.367082668265,122689.561737809 61916.63823738387,123996.93126393534 62274.57172626829,125478.97190891208 62675.30214021454,126722.45065500842 65205.68005003909,134118.67141040365 65601.46999030602,135078.01726155012 66051.43289896876,135784.79302758546 66642.11465168557,136433.32963009705 67516.78596633683,137233.72205301063 74369.81081522287,143064.59500571954 79863.57709938231,147600.07497124575 80275.33716202345,147986.94853427538 80815.32088041748,148664.29154192543 81438.45382893513,149616.67436917863 85101.88027739346,155535.11043282988 85371.95325613732,156092.0860110441 85473.25177850852,156652.32508785496 85434.17421646233,157376.63363461493 85195.14236294058,159211.20277008228 84249.49973938773,165557.09307305003 84002.03072728892,166152.00700608548 83670.02119818985,166548.56919952136 83239.09782747088,166828.3115734402 82414.69337423053,167070.52825057087 81765.8054191203,167119.6865833218 81026.81643597457,166995.15146620377 78839.00226955613,166359.23301943456 61234.04289071574,161693.10033379847" opacity="0.8" /></g></svg>