<svg xmlns="http://www.w3.org/2000/svg" xmlns:xlink="http://www.w3.org/1999/xlink" width="300" height="300" viewBox="-102226.69439123751 -179574.60681902608 201034.34206983636 360028.6893024382" preserveAspectRatio="xMinYMin meet"><g transform="matrix(1,0,0,-1,0,879.475664386031)"><polyline fill="none" stroke="#66cc99" stroke-width="2400.1912620162543" points="58404.47876802673,160924.46646150152 58032.77201345043,160753.98882005538 57738.860266907526,160562.9904540885 57173.79702425368,159979.9426928825 55326.95967439153,157433.938451083 51237.48848584778,151549.75138982234 50932.41110274494,151037.24064893325 50726.17083635253,150564.3160298366 50570.55846554652,150028.48430745763 50426.389509028086,149192.57241258072 50376.77651443231,148324.4396130512 50036.324525411575,120359.87121167814 49621.95094008507,91119.54332086291 49555.82157357302,89046.1278789388 49431.487117667115,87075.31023507583 49238.29075821741,84959.40426256537 42409.4672615115,24315.64285853168 39345.01825630482,-3261.317563182525 39177.435310824076,-4487.170708691134 38946.91831442837,-5563.154432794724 38671.380131966944,-6477.116522911202 38272.80516115912,-7515.197842286147 37792.44494712217,-8561.653193975815 37280.14208890715,-9499.671158056459 36733.425252090296,-10369.663620113944 35906.175958315645,-11547.750042434804 22299.269481055977,-29940.991110587693 5970.736243323405,-52160.24783102435 -31534.877696123312,-102915.63474400688 -53629.17434085951,-132945.29432516306 -69694.47110003981,-154631.36780763895 -75623.46213372127,-162835.133910186 -76107.90139206068,-163455.8065158281 -76630.92798323988,-164019.2581830764 -77533.63097337262,-164783.00504375403 -78552.1495308765,-165411.56197387018 -79443.98386864433,-165801.15042437037 -80185.66458178817,-166027.6434662826 -81171.62996177668,-166200.85771209616 -82322.95248602476,-166240.21091893577 -83060.94642554934,-166168.03385219508 -83529.55527262519,-166080.70806376118 -84490.07243999804,-165796.5518358165 -85557.59453732376,-165292.7129054078 -86403.2850799512,-164717.96174071098 -87075.991628169,-164108.27296413906 -87791.85870030719,-163225.61529492092 -88303.58510073421,-162336.64727028937 -88645.61225235609,-161439.48604878486 -88770.33964267468,-160940.24884191013 -88877.40646621441,-160253.21943962356 -88892.29849114722,-159235.4834920687 -88778.97831972988,-158369.39402548596 -88599.90110911465,-157685.4471180083 -88401.8515210744,-157169.35899337297 -87984.65236305523,-156398.39836932704 -87703.90056377192,-155988.06182095432 -87207.51185529257,-155414.06914511157 -86543.78790558342,-154832.68339529753 -85762.45366871552,-154303.53805044282 -84725.36854299661,-153694.29311574655 -67475.49940839467,-144082.02847854994 -45877.84025135306,-131780.5291646724 -44548.67015119481,-130940.45175808975 -43657.19480977288,-130311.58385671202 -41245.85878920866,-128389.65358678882 -39045.15465548572,-126457.98897780216 -36577.099043143244,-124200.51666909568 -30770.7295960221,-118710.82271276154 -3640.9650197712326,-92585.696611344 2692.1582335688986,-85715.2430263361 9300.780984941002,-78278.53530783023 26035.485782895255,-59108.63880143264 26197.73009260978,-58905.50773111037 37148.46944108899,-37121.717818804245 55335.32921142972,-644.2778056372755 62864.68721472878,51795.50083994681 61804.90719459018,121131.03244275917 61793.367082668265,122689.561737809 61916.63823738389,123996.93126393392 62274.57172626829,125478.97190891208 62675.30214021455,126722.450655007 65205.680050039104,134118.67141040365 65601.46999030604,135078.01726155012 66051.43289896876,135784.7930275869 66642.1146516856,136433.32963009705 67516.78596633687,137233.7220530092 74369.8108152229,143064.59500571812 79863.57709938232,147600.07497124575 80275.33716202345,147986.9485342768 80815.3208804175,148664.29154192543 81438.45382893513,149616.67436917863 85101.88027739347,155535.1104328285 85371.95325613733,156092.0860110441 85473.25177850854,156652.32508785496 85434.17421646234,157376.63363461493 85195.14236294058,159211.20277008228 84249.49973938774,165557.09307305003 84002.03072728893,166152.00700608405 83670.02119818985,166548.56919952136 83239.09782747088,166828.31157343878 82414.69337423056,167070.52825057087 81765.80541912031,167119.6865833218 81026.8164359746,166995.15146620377 78839.00226955615,166359.23301943456 61234.04289071574,161693.10033379847" opacity="0.8" /></g></svg>