<svg xmlns="http://www.w3.org/2000/svg" xmlns:xlink="http://www.w3.org/1999/xlink" width="106.46957215743271" height="100.0" viewBox="-53.23483050564571 -24.287088749793057 106.46957215743271 48.574411425526726" preserveAspectRatio="xMinYMin meet"><g transform="matrix(1,0,0,-1,0,0.00023392594061277805)"><polyline fill="none" stroke="#66cc99" stroke-width="2.0" points="49.29142416447467,0.6359295212771487 48.32492335906451,0.9537966037617227 47.358422645349556,1.2716638193720022 47.358422645349556,1.2716638193720022 44.781093521859,1.2716460994908523 42.20375639013499,2.5431258442502855 40.91509207293919,2.5431178524592584 39.994613187280855,3.2758390790692005 38.33775616383735,3.8145990842611472 37.04909209117627,3.814591835991348 34.71721986115502,4.5688569258269816 33.397873458997644,4.568850221389852 32.078520866793646,5.861891039412999 30.69780864678261,6.109718633245968 29.317096528901587,6.3575465089088885 28.02843294527806,6.357540994105723 26.739768300953223,6.623328779398207 25.451103758857368,6.889116815363561 24.162439318990582,7.1549050949206325 22.873774270200737,7.629017902154644 21.523743379702065,8.447943370809295 19.928254349116422,8.878954194395348 18.33276552381112,9.309965396115055 16.737276903722087,9.74097698163334 15.14178848888149,10.171988948117738 13.853125638722148,10.171986159559076 12.492869336601652,10.746671161750356 11.132613267830395,11.321356447187819 9.77235743234429,11.896042003125386 8.412101830191505,12.470727839476673 7.051846461356061,13.045413951992987 5.691591325821969,13.62010034067433 4.832482936919036,13.986463062747127 3.5438208204224075,13.98646225832797 2.2551587038293963,13.986461700332992 0.4142127657135116,14.913145223280189 -0.32216546814585023,15.257957825219133 -1.610827340199851,15.257958012161613 -2.8994886620768683,16.52945495138053 -4.863163757689677,16.206194263940002 -6.18250786856995,16.20619535160534 -7.501850531833641,17.499243991471804 -9.342796799632376,16.529460837236194 -10.631456409862535,17.800959263497564 -11.92011779288461,17.800961431747087 -13.208779175809996,17.800963847837018 -14.098567092585775,18.79230192039681 -15.41791069428691,18.792304826502637 -17.074760084844762,19.0724690875853 -18.36342122332504,19.07247249503687 -19.37593776046041,20.085362398537452 -20.940739526719316,20.34397656497842 -22.22940042070642,20.34398071595122 -23.518061314660613,20.343985114764426 -24.806722208549775,20.34398976141804 -25.97265449593894,20.08538471975283 -27.322679719214918,20.214694817420806 -28.672704890355938,20.34400518842135 -29.930684537236846,20.085401230172785 -31.25003260795426,19.072520200775084 -32.56937123140835,20.085413535803163 -33.82735488482927,19.07253271600764 -33.82735488482927,19.07253271600764 -35.116022686582916,17.801042842364737 -36.527415369737064,17.49933935054769 -37.84675922600928,17.499346671045267 -38.982014232306284,16.52956771168561 -38.98202162912938,15.258071205833351 -40.27068350116086,15.25807882657188 -41.804814995448574,13.620228326877927 -41.80482306234183,12.327181039511983 -42.848031636347976,11.443605322338012 -43.12417625844199,11.034142124903179 -43.124184579923394,9.741094843202157 -44.44353853978645,8.448056189179843 -44.443547115855985,7.155008917392438 -44.443547115855985,7.155008917392438 -45.425399944682134,5.086139865740353 -45.7629106700433,4.568923257834128 -45.76291950070098,3.2758759902954164 -46.714081500813016,2.54315576920942 -47.08228432789148,0.6897906111508272 -46.714099228735684,0.00016281981906707266 -47.08230249838309,-1.8963039055155952 -47.08230249838309,-1.8963039055155952 -48.40165951337912,-3.1893417593674465 -48.40166885321307,-4.482389011327618 -48.00280957745605,-6.3573103906428265 -48.002818685940305,-7.628806844094539 -48.002818685940305,-7.628806844094539 -48.00282779442456,-8.900303297546252 -48.40170621254858,-9.654577980930073 -49.29151301833339,-11.443286838914668 -48.401724892216244,-12.240672453693337 -48.401734232050075,-13.533719688658739 -48.00286422836142,-13.986289085860948 -48.40174357188384,-14.826766916542985 -48.4017529117176,-16.11981414159477 -48.401762251551354,-17.412861366646553 -48.401762251551354,-17.412861366646553 -48.00289155381385,-17.800778399480468 -48.401771591385064,-18.705908586033416 -48.40178093121877,-19.998955804004044 -48.002909770782054,-20.343771262480736 -47.08242969182217,-19.9989652035286" opacity="0.8" /></g></svg>