<svg xmlns="http://www.w3.org/2000/svg" xmlns:xlink="http://www.w3.org/1999/xlink" width="300" height="300" viewBox="-509.6877334638443 -397.5794883360066 1019.4172329880439 795.1773930342813" preserveAspectRatio="xMinYMin meet"><g transform="matrix(1,0,0,-1,0,0.01841636226816945)"><polyline fill="none" stroke="#ff3333" stroke-width="6.79611488658696" points="nan,nan 471.4823447248403,-333.80089250095284 471.60508496304664,-333.94742921787457 471.7278252066054,-334.0939659362125 471.8505654555324,-334.2405026503018 471.97330570982757,-334.387039364391 471.7155728470772,-334.3870575133901 471.45783998432603,-334.3870756538919 471.2001071216063,-334.38709378306373 470.94237425885365,-334.38711190232203 470.68464139610046,-334.38713001166667 470.6416945975678,-334.51069087746725 470.598747797451,-334.6342517446841 470.55580099576594,-334.7578126104847 470.5128541924806,-334.88137347628526 470.46990738761104,-335.00493434066965 470.4269605811731,-335.12849520222153 470.3840137731359,-335.25205607510327 470.3410669635132,-335.3756169338227 470.2981201523233,-335.4991778024558 470.2551733395327,-335.6227386654239 470.21222652515775,-335.74629952555955 470.16927970921483,-335.86986039136013 470.12633289167127,-335.99342124866337 470.0833860725441,-336.1169821158802 470.04043925183237,-336.24054297459963 470.0082250537498,-336.2750264992051 469.97601085535126,-336.3095100181457 469.94379665660523,-336.3439935385025 469.9115824575118,-336.37847706027554 469.87936825810255,-336.4129605763836 469.8471540583618,-336.44744409815667 469.8149398583053,-336.4819276142648 469.78272565788535,-336.5164111346216 469.75051145714974,-336.5508946521459 469.7182972560986,-336.58537816967026 469.6860830546999,-336.61986168861085 469.65386885295396,-336.65434521180015 469.6216546508919,-336.6888287293245 469.58944044849864,-336.723312248265 469.55722624578937,-336.7577957629569 469.52501204271675,-336.79227928048124 469.4927978393286,-336.82676279942183 469.4605836356249,-336.8612463183624 469.4283694315735,-336.89572983588675 469.3961552271745,-336.9302133534111 468.42963440272996,-336.61240687144715 467.4631136699607,-336.2946002506926 466.4965930288987,-335.9767934854825 465.53007247952877,-335.6589865913954 465.53007247952877,-335.6589865913954 462.9527433626827,-335.659165158286 460.37532688495486,-334.3878462647846 459.0866625710408,-334.3879346814966 458.16613795912116,-333.65527090146105 456.50924731591005,-333.11661429812034 455.22058324649777,-333.1167019713111 452.88866394879403,-332.36258241053133 451.5693175499264,-332.3626714546336 450.2498842635587,-331.0697129776918 448.869156579965,-330.8219715558448 447.4884289984889,-330.5742298450867 446.19976541803305,-330.5743157833946 444.9110841890655,-330.30860842302303 443.622403062317,-330.0429008119786 442.333722037788,-329.77719295734244 441.04502740308845,-329.3031605750294 439.69494540753533,-328.48431936220027 438.09942948167867,-328.05340811097705 436.50391376108996,-327.62249648020395 434.9083982457049,-327.1915844684648 433.3128829355563,-326.7606720771757 432.02422008843524,-326.76075528923906 430.66392792407026,-326.186155178761 429.30363599305014,-325.611554786453 427.94334429531096,-325.0369541208124 426.5830528309006,-324.46235317617436 425.2227615998035,-323.8877519582037 423.8624706020034,-323.31315046265183 423.00333935088497,-322.94684135624885 421.7146772373437,-322.94692258558894 420.42601512369043,-322.9470035656724 418.5850113568261,-322.0204349344578 417.84861160540845,-321.6756682892119 416.5599497362615,-321.6757485271903 415.2712090651627,-320.4043320128924 413.3075541482078,-320.72771525104224 411.988210040258,-320.7277965016258 410.6687866828937,-319.4348302000082 408.82790094190045,-320.404728243144 407.53916198245065,-319.13331024038735 406.25050060223896,-319.1333884956425 404.9618392221085,-319.13346650305726 404.0719894395962,-318.14218396374395 402.7526458407404,-318.142263395887 401.095778969402,-317.86220253665556 399.8071178336682,-317.8622795512925 398.7945380861176,-316.8494528400151 397.22972018379716,-316.5909363283603 395.9410592925239,-316.5910126008922 394.65239840126793,-316.5910886255837 393.36373751006164,-316.5911644010186 392.19782136444996,-316.84984220721174 390.84778807427017,-316.7206163625369 389.4977548362112,-316.59139024311315 388.2397913312441,-316.8500727101222 386.92050647565435,-317.8630360763526 385.6011046423862,-316.8502250809897 384.34318420391685,-317.86318440671323 384.34318420391685,-317.86318440671323 383.0545957564824,-319.1347547024446 381.64322190531476,-319.43654627815937 380.3238780515981,-319.4366212930782 379.18868356999525,-320.4064711008054 379.1887555249054,-321.67796760665766 377.9000936553169,-321.67804040942383 376.36606437967004,-323.31598664774356 376.3661370094239,-324.60903393369324 375.3229835800446,-325.49267475358596 375.0468645123902,-325.9021551837185 375.0469368875413,-327.1952024625871 373.7276636266861,-328.48832345485823 373.72773574723436,-329.7813707238132 373.72773574723436,-329.7813707238132 372.7460120347268,-331.85030104586315 372.4085335885995,-332.3675387173717 372.4086054545453,-333.6605859849104 371.4574891841528,-334.39336556448256 371.0894020228191,-336.24675369947147 371.4576301595296,-336.93635850962426 371.0895452455049,-338.83284821047295 371.0895452455049,-338.83284821047295 369.770268929297,-340.1259683997412 369.7703402860373,-341.4190156502852 370.1693165711738,-343.2939121350934 370.16938681432435,-344.5654085857127 370.16938681432435,-344.5654085857127 370.1694570574749,-345.8369050377482 369.77062571299626,-346.59120461280645 368.8809305388848,-348.37996899978884 369.7707684264752,-349.1772990841535 369.7708397832144,-350.4703463148702 370.16973803007585,-350.9228908189817 369.7709111399534,-351.76339354275444 369.7709824966921,-353.05644076355753 369.77105385343083,-354.34948798719313 369.77105385343083,-354.34948798719313 370.1699487595249,-354.73738012693633 369.7711252101693,-355.6425352051637 369.7711965669077,-356.9355824203019 370.1700892458237,-357.2803729871041 371.0905478042883,-356.9355094815776 370.1700892458237,-357.2803729871041 371.090619415629,-358.22855669813197 371.45882845020725,-358.55179809934 371.45882845020725,-358.55179809934 371.4588989378928,-359.8232945216346 371.2747949782865,-359.672449215328 371.09069102696947,-359.52160391043765 371.4588989378928,-359.8232945216346 371.4588989378928,-359.8232945216346 371.4588989378928,-359.8232945216346 371.4588989378928,-359.8232945216346 371.2747949782865,-359.672449215328 371.09069102696947,-359.52160391043765 371.4588989378928,-359.8232945216346 371.09069102696947,-359.52160391043765 371.09069102696947,-359.52160391043765 371.09069102696947,-359.52160391043765 371.09069102696947,-359.52160391043765 371.09069102696947,-359.52160391043765 371.4588989378928,-359.8232945216346 371.4588989378928,-359.8232945216346 371.09069102696947,-359.52160391043765 371.09069102696947,-359.52160391043765 371.09069102696947,-359.52160391043765 371.4588989378928,-359.8232945216346 371.09069102696947,-359.52160391043765 371.09069102696947,-359.52160391043765 371.09069102696947,-359.52160391043765 371.09069102696947,-359.52160391043765 371.09069102696947,-359.52160391043765 371.09069102696947,-359.52160391043765 371.09069102696947,-359.52160391043765 371.09069102696947,-359.52160391043765 371.09069102696947,-359.52160391043765 371.09069102696947,-359.52160391043765 371.09069102696947,-359.52160391043765 371.16431852014017,-359.32764274991763 371.2379460090475,-359.1336815865651 371.3115734937077,-358.9397204217963 371.3852009740893,-358.7457592641087 371.45882845020725,-358.55179809934 371.45882845020725,-358.55179809934 371.45882845020725,-358.55179809934 371.45882845020725,-358.55179809934 371.45882845020725,-358.55179809934 371.45882845020725,-358.55179809934 371.45882845020725,-358.55179809934 371.45882845020725,-358.55179809934 371.45882845020725,-358.55179809934 371.45882845020725,-358.55179809934 371.45882845020725,-358.55179809934 371.45882845020725,-358.55179809934 371.45882845020725,-358.55179809934 371.45882845020725,-358.55179809934 371.45882845020725,-358.55179809934 371.45882845020725,-358.55179809934 371.38518664045296,-358.4871498236303 371.3115448321193,-358.42250153942325 371.23790302519103,-358.3578532637136 371.1642612196995,-358.2932049795065 371.090619415629,-358.22855669813197 371.18267167095104,-358.30936704914205 371.2747239284774,-358.39017739873594 371.3667761882243,-358.47098775257854 371.45882845020725,-358.55179809934 371.38518664045296,-358.4871498236303 371.3115448321193,-358.42250153942325 371.23790302519103,-358.3578532637136 371.1642612196995,-358.2932049795065 371.090619415629,-358.22855669813197 371.090619415629,-358.22855669813197 371.090619415629,-358.22855669813197 371.090619415629,-358.22855669813197 371.090619415629,-358.22855669813197 371.090619415629,-358.22855669813197 371.3544897140142,-358.2285420797965 371.6183600123668,-358.2285274501312 371.88223031075086,-358.2285128105523 372.1461006091183,-358.2284981596435 372.4099709074852,-358.22848350023736 372.4099709074852,-358.22848350023736 372.4099709074852,-358.22848350023736 372.4099709074852,-358.22848350023736 372.4099709074852,-358.22848350023736 372.4099709074852,-358.22848350023736 372.2197424233882,-358.29314642968825 372.02951393558806,-358.3578093577229 371.8392854441323,-358.4224722744277 371.6490569490056,-358.48713519254875 371.45882845020725,-358.55179809934 371.6490712928261,-358.7457446344434 371.83931414645707,-358.93969115538454 372.02955701110136,-359.1336376805744 372.2197998867744,-359.3275842000993 372.41004277342796,-359.52153071112684 372.41004277342796,-359.52153071112684 372.41004277342796,-359.52153071112684 372.41004277342796,-359.52153071112684 372.41004277342796,-359.52153071112684 372.41004277342796,-359.52153071112684 372.41004277342796,-359.52153071112684 372.41004277342796,-359.52153071112684 372.41004277342796,-359.52153071112684 372.41004277342796,-359.52153071112684 372.41004277342796,-359.52153071112684 372.21981401319,-359.581883482009 372.0295852494936,-359.64223625147497 371.8393564823867,-359.702589015276 371.6491277118529,-359.7629417677472 371.4588989378928,-359.8232945216346 371.6491277118529,-359.7629417677472 371.8393564823867,-359.702589015276 372.0295852494936,-359.64223625147497 372.21981401319,-359.581883482009 372.41004277342796,-359.52153071112684 372.41004277342796,-359.52153071112684 372.41004277342796,-359.52153071112684 372.41004277342796,-359.52153071112684 372.41004277342796,-359.52153071112684 372.41004277342796,-359.52153071112684 372.41004277342796,-359.52153071112684 372.41004277342796,-359.52153071112684 372.41004277342796,-359.52153071112684 372.41004277342796,-359.52153071112684 372.41004277342796,-359.52153071112684 372.41004277342796,-359.52153071112684 372.41004277342796,-359.52153071112684 372.41004277342796,-359.52153071112684 372.41004277342796,-359.52153071112684 372.41004277342796,-359.52153071112684 372.2197998867744,-359.3275842000993 372.02955701110136,-359.1336376805744 371.83931414645707,-358.93969115538454 371.6490712928261,-358.7457446344434 371.45882845020725,-358.55179809934 371.6490712928261,-358.7457446344434 371.83931414645707,-358.93969115538454 372.02955701110136,-359.1336376805744 372.2197998867744,-359.3275842000993 372.41004277342796,-359.52153071112684 372.4775337088469,-359.32756987917236 372.5450246403579,-359.1336090415529 372.61251556794497,-358.93964820393353 372.6800064916566,-358.74568737339524 372.74749741142796,-358.5517265357758 372.41610742605525,-358.2284831589257 372.08471747265514,-357.9052397679133 371.7533275512272,-357.58199635707365 371.4219376617714,-357.2587529249905 371.0905478042883,-356.9355094815776 370.82664893263893,-356.4183052062101 370.5627501017254,-355.9011009195128 370.29885131157937,-355.3838966186532 370.03495256213733,-354.8666923092962 369.77105385343083,-354.34948798719313 369.11128945261277,-352.7332153317693 368.4515253700438,-351.11694260553395 367.7917616057236,-349.5006698099033 367.13199815963685,-347.884396949126 367.1319273121019,-346.5913497099119 367.13178561703205,-344.0052552357324 366.30324898119864,-342.02262813327303 365.81222514692865,-340.1261856552278 364.4927365427391,-337.5401630505183 363.17317887323094,-333.6610929134349 362.4367014268318,-331.8508666134285 362.43649509903474,-328.03637716809953 361.1476264123643,-324.22195727528674 359.85882747987193,-321.6790336192424 357.894963471168,-318.1448095241422 356.57541343965335,-314.26573797224415 353.93652286395155,-310.38673594737014 352.12605442532,-306.4214862248222 349.97815895999975,-303.92170726028513 346.9710894760849,-300.0642724494521 343.3809911129,-294.87071723747226 342.0615200760441,-292.28469003142857 339.2385638306995,-288.6211993693499 336.66106115095056,-284.8068396536047 334.14503765369926,-283.23375796220074 331.5061275018543,-278.44961375813045 328.92869555421754,-275.9067475982286 327.547785141618,-271.59665727344037 325.0624279320015,-269.54945326622806 322.2701986413638,-266.4247235879569 319.6313467645372,-262.54570776332895 317.33003512988256,-259.3778509788897 314.75261589795025,-256.8349792843574 312.1751393831579,-253.02060995523686 310.3954791045883,-250.9087151542305 306.43736975136255,-248.3228024660344 303.1542535626651,-245.3920442754391 298.52116021037125,-243.1509700453097 294.56306002251193,-240.56505030711617 290.60496288977794,-237.97912822222798 285.32759656889215,-236.68630756579722 281.2468776022472,-236.49252297244968 274.7729760878135,-236.6867487033148 268.1763382867955,-236.68701597157974 264.2184065946162,-237.9802206758438 255.47411330763512,-240.3080452112512 253.66393093069382,-241.85977093220058 247.74237702192482,-244.12282552774946 243.1094899600723,-247.0323519782494 239.15159347054797,-249.6185892977272 234.856174882204,-251.75226949447608 230.9903172845862,-254.29539716849672 224.6392657523372,-258.67042355136425 221.96994339719384,-259.38168858935546 219.39272688469703,-261.92476672361886 215.52685754901722,-264.4678854272329 211.66094511370872,-265.7395052768838 207.79503121107766,-267.0111228973873 203.53026974549076,-269.01547726780774 198.25293404249422,-269.0156354919575 194.29496975980226,-270.3087988295329 189.75402025132982,-270.8261479215921 185.88802870793023,-269.5547596837605 181.10159300695528,-269.01612101131934 177.1435570445054,-267.72317942293114 171.86618919293954,-266.4302694589792 169.1353942434697,-263.19772043194166 163.98069840148082,-259.3833586909863 161.4033067388552,-255.56893137853982 158.67251820142548,-252.2070732919316 157.53720979973806,-249.21154018342617 154.714377070123,-245.74192865943817 153.67114935768276,-244.12564335140743 151.0937981047288,-241.58270864876195 149.80506635703412,-237.76824757761923 146.79817437955168,-235.39772711179313 144.15946412731464,-232.81168946954386 142.84005463470166,-228.9325752933441 140.20137551199417,-227.63958354772197 136.91829725358858,-222.51056306938727 136.24326671494558,-221.17442774824784 133.60454035457968,-217.2953383886623 130.9658423231306,-214.70929546670416 129.1862198353029,-211.0672461879663 126.60886656470466,-207.25280519897788 124.36903415338347,-204.3650410030074 121.73034477834476,-201.77899439460023 117.77229180710795,-196.60687496618417 116.29954903480733,-195.80952136955392 115.01084589775135,-191.99505333622005 111.1755647368432,-188.84870234671962 109.85619394921986,-185.6376559833344 107.27888182173996,-183.09470419244676 105.99020637854818,-180.5517311311871 104.70153191338684,-178.0087578178383 102.12422467668928,-175.46580400174048 99.54691939617396,-172.92284919144853 97.98211860719692,-170.74624213650114 95.68094698668529,-167.8369182863303 92.7047708501578,-164.28107920205565 90.066092100141,-160.40197233785608 87.94900308459226,-156.39355282535664 84.78874376573513,-152.64375543143476 81.5057598741391,-148.76465324504588 78.92847268924808,-146.2216903976435 76.87275901334448,-142.29946975400873 74.23409808533569,-138.4203565196025 71.19659585110473,-136.04980209397542 68.61930444799025,-132.23533834474006 66.31814643111355,-128.07605813433653 63.46474248839024,-125.87790469810487 59.59882461033834,-120.79195259484239 57.0829040647378,-116.43871389209782 54.44427528472577,-113.85264042487142 51.8670064607877,-110.62004157483048 48.00109708029824,-104.2625857160297 44.13521178669312,-100.44812146686483 41.25113805448846,-97.04311411149102 38.612508119918914,-91.87093881276554 35.11481655845939,-89.00470218345167 32.01597581961942,-84.11268696792767 29.377363775178672,-80.23355571764804 26.738759946134216,-77.6474711924907 22.228590507079986,-72.47529649707958 21.461545973284807,-68.59615558385646 16.184355628119103,-63.42397915214625 14.496882093149006,-61.031844545468005 9.58787545314469,-54.37265703734722 6.94928810512926,-50.493516775590315 4.187978623322546,-45.77389441604764 0.3221520184445529,-41.95940453451953 -2.285743773436972,-37.563041403699536 -6.120880218459386,-33.05892222680244 -9.986693618365665,-29.244426317795572 -12.840025814240601,-24.63255064162746 -15.14109601798351,-20.34393695583232 -19.00689694648873,-16.529435765700388 -21.58409512009966,-13.98643372552382 -24.161286752444948,-10.171933547996987 -26.738470376111017,-5.085935227454966 -29.99064290656914,-2.6506811735854043 -33.94846113491307,2.521529505420674 -36.58700087231618,6.400687268959169 -38.33579191424572,10.172086947048038 -40.54479301275262,14.158997868968823 -42.20155402247962,15.258098876152877 -44.77872266832766,19.07260716160167 -48.46039655770587,23.21038635259701 -51.098919745815735,27.089549952423088 -53.73745024931374,29.6756666076111 -56.37597200674842,33.059163922185824 -60.24170721588999,38.145186451779026 -62.81885678771695,41.95970180563629 -66.68458197078317,47.04572812223095 -69.56853679350456,50.36458076681991 -73.12743960815017,55.9462761119052 -75.70457499680762,59.76079653162043 -79.570280127776,64.84683042363423 -82.14740842491713,68.66135337415409 -86.01311985258234,72.47589376414139 -88.03799154032974,76.22575955493511 -91.1673603072625,80.10494573089812 -94.63421169750762,83.9841381453583 -97.27266544702977,89.15636843349756 -99.91113440461046,93.03555166370029 -102.76438766652055,95.36308147154159 -106.50734481862997,99.5008940020288 -109.20717163669526,102.99216748307317 -111.7842608377494,107.25926891874902 -113.0728049347141,109.34971841628743 -115.74192866364763,113.72457699137064 -120.80411829830179,118.25033500252205 -123.38120257857156,122.0648741348963 -126.29575343666556,126.65524955783714 -128.53536233553655,129.69395544312502 -131.5726251547631,134.4136403929928 -133.6895103547522,137.32304081452025 -136.8494846518406,142.17203548392231 -138.8436729849468,143.68063279860365 -140.80713484178955,147.34431046972534 -143.99782583352047,150.03822881186403 -146.57488468177834,153.85277704918678 -148.72241689010693,157.68886757205402 -151.3608290709293,161.56807147639557 -153.99923819651335,165.44727644999148 -156.88312050221865,167.8394826910454 -159.46016516720888,171.65403600555598 -163.2337248324547,175.79188144216837 -164.6142456936624,179.28314565964638 -167.19130252841592,182.25722060813965 -171.0568785388395,186.9122921569839 -172.34537718167408,189.45532022606838 -175.1065025940529,192.60180944537058 -177.7448857499449,196.48102395728165 -180.0764851940108,199.62750387761167 -183.0216428958403,204.23945617187204 -186.51901007570646,209.79966061510274 -187.80753408923806,211.07119418655037 -190.936792549682,214.584064071571 -194.89432059770115,221.04941999155392 -198.85191776137614,224.92868149683906 -201.98115096507942,228.8725727507011 -205.44782355008678,233.98021942256915 -208.4236540213011,237.77325340014096 -212.04371151641575,243.03176397625987 -216.0012857655628,246.91103574072173 -220.02018319310065,251.76009823200587 -223.91629087191419,258.5487317747186 -229.1930341320949,263.7211041320616 -233.1505412338844,268.8934346482786 -238.05909217281956,274.64767309586625 -240.63604953720466,278.46225827273986 -245.02302587601312,284.4104404782022 -247.66138019284242,286.9966345530691 -249.65540089288626,291.17756550114774 -253.52084045434555,296.2637016053788 -256.8954059437125,301.2205162863433 -260.8529198510878,305.09981490820815 -263.49115820508473,310.27211244465593 -266.4055629002165,314.0651702163233 -270.08694476945396,318.03066663071723 -271.5594636282234,320.42286606678164 -275.4248696876235,325.5090150445517 -279.2902698780446,330.59516629537234 -283.278417397427,334.8408433934626 -287.2358407337155,340.01320643200626 -291.1933703576349,342.59947455875505 -294.75197976343134,347.12530045410267 -298.61746615264514,349.66846732656245 -302.48294960728424,352.2116364352508 -308.34255074312017,355.53072846535053 -312.30012332622675,356.82396044763817 -316.6565641508278,357.2982827819867 -321.5344740972599,359.4104946133635 -325.6761595499769,359.84171088390275 -328.13052503724043,359.41081441246536 -333.4073657888904,359.4110749281413 -340.0034167282939,359.41140641539687 -343.7156559565286,358.5711141916892 -348.86984633574855,357.29988272353825 -354.02410585765455,354.7571573610648 -357.15342488600044,354.24010397660345 -365.06890349272214,350.3613846016783 -366.9097717790689,348.4003613596509 -373.35264933671994,344.58622375423187 -379.5808944767052,338.72475319094366 -380.90018224983595,337.4317794201243 -383.53868530237366,336.1388813029439 -388.8158445418606,330.96699095695874 -392.68154959194965,329.3293548193916 -395.41215242263644,327.0882311443924 -399.3699562324742,324.5023686615821 -402.00854552678584,321.9164292476925 -404.6471368577597,319.3304908719002 -407.28565162147976,318.0376021499957 -410.7219203301779,315.3439606767513 -413.8820628017182,312.8658120165097 -415.87631452805635,311.5297852962052 -418.4535535343735,308.98695021690685 -420.4784841656241,307.6940284189294 -423.1170065670355,306.4011459468519 -424.4363091065974,305.1081808249547 -427.4737432117284,302.6300308334561 -430.0509084288344,301.3586980028264 -431.0327462552202,299.93640767632604 -433.67127374840055,298.64352938637836 -434.99057985224886,297.35056634917305 -436.4939500058709,296.27312365791573 -439.07120270584016,293.73029657465713 -440.2678093594737,292.1787168373737 -444.22556537045125,290.8859295331809 -445.5449610261753,288.29992006259687 -448.09143248536026,287.37340510086887 -449.3800625032419,286.1019936793372 -451.95732400611166,283.55917159112505 -454.5345012049188,282.28784821808534 -457.1116793817104,281.0165258321586 -458.4003123339322,279.74511616250464 -460.9775797054496,277.20229757096655 -462.6956791684024,276.6636457842272 -465.33431174352995,274.07773150560377 -466.6536287948502,272.78477475504747 -467.97294635538975,271.49181826507765 -469.9980309111679,268.30244038049216 -471.28666875393805,267.0310332147344 -471.9311753309725,263.73380492202244 -471.9313574902227,261.1477079623577 -471.9315396494723,258.56161100977414 -471.28738426884115,256.85905183920335 -469.999012054253,254.31596600630874 -469.2935324109931,252.0961833534469 -468.7108167620743,249.22988513366695 -468.7109946626488,246.6868898432469" opacity="0.8" /></g></svg>