<svg xmlns="http://www.w3.org/2000/svg" xmlns:xlink="http://www.w3.org/1999/xlink" width="300" height="300" viewBox="-148957.04632099267 -476719.8810148563 311512.2525685827 955022.452588306" preserveAspectRatio="xMinYMin meet"><g transform="matrix(1,0,0,-1,0,1582.6905585934874)"><polyline fill="none" stroke="#66cc99" stroke-width="6366.816350588707" points="121490.691172232,-429689.6932268793 121404.63496843199,-429674.5415914057 121391.3246941142,-429717.78403262986 121302.84793719408,-429596.3138629712 121189.99375988153,-429628.24038061034 120703.87755719312,-429018.77006399963 120641.34657261398,-429021.8248683042 120541.06935214736,-429130.0059046402 124537.95590068599,-434186.7566025162 126852.95887193654,-437441.9398602142 127096.12354762698,-437981.35690221476 127184.00429987501,-438498.4666536776 127157.7450497336,-438987.3570708533 127023.50718070871,-439498.77272776654 126772.74080300343,-439988.0434184303 126412.33052173749,-440431.8237701968 125891.24207744111,-440848.9635227115 125418.52219485727,-441092.65587497724 124838.49312689346,-441272.05178792827 124320.16764196227,-441345.7648500108 123791.58584762792,-441348.67906714126 123186.8280346954,-441254.2338705119 122634.6668179823,-441081.36882539117 122051.69261701459,-440795.2448639396 121097.31314340381,-440104.95971973677 119476.62277534996,-438766.512008169 119002.36574440535,-438256.62621684227 118514.80017343623,-437584.1690819275 118077.92892468182,-436680.76695860707 117869.27187145725,-435912.4765512614 117188.4868104554,-430349.55046991917 116888.61396382676,-429240.9809775326 116581.32014989367,-428514.08821897564 115765.48793183145,-427033.4294414407 112124.28841056736,-420756.4503468661 103705.74723917412,-406327.18071943085 101945.56136539957,-403445.35856389796 98906.9031992874,-398717.4894182557 90859.5337129774,-386007.7852923275 53533.91844580586,-326872.27839245566 52086.254000582914,-324445.4268659419 51138.967205302964,-322694.3005507211 49930.45826483835,-320241.5747663115 49112.51890819951,-318401.9390688646 25548.232175766403,-262806.029960914 -12261.340783268179,-173306.49837977378 -13296.107663036388,-170682.38151412408 -14162.04698201485,-168122.90633744208 -14967.350344797973,-165316.01725179347 -23823.681732270918,-129884.9250677839 -110224.2730722602,216823.14800251325 -112377.92080688149,225519.16489149292 -112816.45991971492,227468.31151631166 -113208.65335524332,229572.1946967286 -113457.26730315234,231406.8738904061 -113562.12632934077,232934.36921734732 -113585.84437327762,234342.8822102805 -113503.67749132225,236085.948316313 -113369.08492846024,237327.99819865273 -113041.59295607884,239202.97483031775 -112646.17538263467,240766.95887806802 -112137.92127557647,242365.01517139174 -73818.68100836531,350400.88207812456 -60319.56615403291,388251.07987197675 -57618.99513463441,396036.5015719775 -52391.801354450414,410823.6381076087 -51976.339608064285,411892.1474950607 -51593.84306079544,412615.4129288011 -51260.96039642787,413128.8169895087 -50867.202122279006,413627.68018188543 -50047.182409282825,414424.85377842915 -49608.68026410459,414751.9860778027 -49063.39699126838,415077.32454117003 -48148.73961675035,415478.4423144074 -28047.39197017231,421761.5849786413 -16878.12844549067,425186.21104294277 -16090.559188101102,425365.1274140893 -15497.257841982288,425423.8372246603 -14936.509883929688,425408.4516850228 -14075.44028859355,425261.10526490014 -13262.627849956612,424932.7052941882 -12607.212579459447,424499.4577864839 -12116.68317413941,424019.5128031723 -11693.547546246293,423448.06362184 -11312.273787164639,422616.93799737864 -11136.42553415514,421840.4712304631 -11106.16159114626,421027.0874906669 -11214.041874736264,420327.95086413564 -11473.989200941382,419576.11694849073 -11866.524402313305,418894.3421304458 -12442.992524388852,418248.06399319525 -13056.426111498682,417788.4322927204 -13722.044289307558,417451.9518632469 -14548.972028936409,417217.17546080204 -15178.850058662001,417160.3564109499 -15869.762589544422,417205.3281147828 -16701.48879068561,417419.5335051762 -17486.844379628343,417800.87703519966 -18004.668562627154,418192.9240019752 -18437.1754298203,418643.2693037226 -18917.72006238821,419326.93794660975 -20909.906301497555,422538.42976898607 -21171.350523027326,423196.570155891 -21278.009871842463,423716.57340965077 -21301.0803277793,424212.3320628572 -21258.654436839257,424694.5356390181 -21179.64562767049,425050.8009364623 -20981.949493607484,425589.0362304338 -20783.798045501153,425956.0686576509 -20468.47212407175,426384.8259156781 -20196.245735692046,426673.8955245892 -19863.603629612036,426950.92842787225 -19127.6359465764,427371.06985365093 -18029.958156931287,427734.0637741905 -8776.628892497496,430000.0870612366 7231.476829438399,434115.78968878684 7698.429208607187,434287.3642756645 8195.402267094763,434606.99166944023 8561.535599381992,434979.3747621655 8855.109319218294,435478.996089454 8963.086776882896,435764.4008459949 9080.6059355712,436340.65983581427 9121.961918994755,436993.36110998574 9084.106171476182,437418.02383793925 8954.428618043265,437878.09871803323 8780.365612205238,438225.5338838595 8555.911457587363,438539.5719829041 8271.60251716547,438824.34873083385 7816.965912288427,439144.54313744704 6730.686509479641,439786.8056476284 3648.2317259741494,441461.9784762671 1479.4826146610337,442543.4313772541 705.5353784551282,442797.06060666905 -200.85294695719804,442874.70763889584 -3291.0099039262736,442891.24243894906 -5287.757647024184,442833.95384822367 -6958.605070538027,442912.238848685 -10430.639242814308,442931.36962573475 -13699.000911797804,442930.1966131772 -15442.319928710465,442863.58864270675 -16540.696856962197,442902.4852204269 -22699.774846796456,442892.9838157145 -22958.627103346767,442845.7137498776 -23151.85630803705,442701.3643731788 -24156.292887011215,442696.84171924344 -24214.39125205381,442655.66655972466 -24215.839580325613,442331.9630934781 -24302.06785562204,442312.92695455137" opacity="0.8" /></g></svg>