<svg xmlns="http://www.w3.org/2000/svg" xmlns:xlink="http://www.w3.org/1999/xlink" width="300" height="300" viewBox="-2257.5835593508687 -2489.3780223592275 4516.139908302324 4979.0297269912135" preserveAspectRatio="xMinYMin meet"><g transform="matrix(1,0,0,-1,0,0.27368227275837853)"><g><path fill-rule="evenodd" fill="#66cc99" stroke="#555555" stroke-width="33.193531513274756" opacity="0.6" d="M 1904.5135635828349,-1658.491957962156 L 1858.8162356719706,-1745.666444954347 L 1823.3415705368773,-1788.395951667247 L 1752.209191907533,-1858.1886780932184 L 1716.552752452122,-1889.584980406229 L 1673.299598758741,-1920.7830035542318 L 1658.8846234092296,-1931.7526189132047 L 1635.9287469995277,-1942.7242928926833 L 1612.971068421002,-1946.5185260241237 L 1582.7935999766207,-1938.392856659761 L 1522.8321237699927,-1911.9416104009456 L 1462.4908009692651,-1881.323483633659 L 1245.5032328218433,-1941.108303646308 L 1224.3711202250095,-1952.367100967981 L 1221.2388299125723,-1951.8121489511998 L 1210.565403968089,-1944.1700829284534 L 1214.4699944155082,-1929.9924191162593 L 1164.6044704801031,-1924.72379549438 L 1131.991021991109,-1924.3294054124715 L 1004.258404318009,-1927.1940386148895 L 1003.3674340551601,-1907.273101854329 L 835.1754491029777,-1912.0736687796689 L 833.8113905071148,-1913.7737402910777 L 803.6542915686258,-1931.7652720639903 L 783.270163180543,-1925.4013865480138 L 780.7361641422314,-1932.3012829992863 L 686.9776510991867,-1902.9465790688512 L 680.866529059769,-1901.2806322516221 L 672.9345788526737,-2015.6303675974218 L 669.8639520068982,-2066.494389794262 L 575.2906276290321,-2059.603573899767 L 572.1339064533266,-2056.515134532426 L 572.2940738940507,-2041.4271078621225 L 577.0027011421912,-1973.2973213147438 L 577.1075120365475,-1971.741846844737 L 570.5766748667945,-1971.2424348751522 L 564.6674458351577,-1970.8762898291864 L 457.7363349254323,-1964.1070592305998 L 456.22027441901,-1987.6280221398008 L 460.11943023761074,-1988.2721627328017 L 459.2566573441352,-2002.949148903986 L 491.07951353507747,-2005.9578296842026 L 489.9998599272458,-2034.5562498122677 L 491.2995728882602,-2034.556154681205 L 498.22599351244963,-2034.5556434600846 L 498.27459353983215,-2036.755512181378 L 498.35556639848164,-2040.0553146578795 L 509.7705035689022,-2040.8099680201653 L 509.3592453736621,-2046.7652091680136 L 508.9963733121299,-2052.064929061213 L 503.69253179384464,-2051.6653529130754 L 503.2409736992937,-2058.5538757498653 L 502.32925990274015,-2065.36465971334 L 501.7486603080675,-2073.9308722852948 L 501.71696533887314,-2081.8970784890394 L 496.86518283178793,-2081.5641258933433 L 496.17905665919557,-2082.4085720950907 L 491.44066561394135,-2087.153089900536 L 474.9801123029362,-2085.9654566339423 L 474.70588606470983,-2089.487493594703 L 469.2051759239094,-2160.2282098383607 L 461.80865474401446,-2252.1233650794543 L 457.1908714231074,-2251.8348095765837 L 393.0424784101817,-2247.8835529674484 L 387.9403243588714,-2247.6616409221456 L 336.7977056835109,-2245.4089815818584 L 229.7898628215344,-2240.7915512752797 L 137.39424239558682,-2234.005589021645 L 101.94571203896531,-2232.384094271077 L 18.156143177454524,-2228.573956115911 L -30.128369987643353,-2226.3740413628643 L -49.03528830380488,-2225.5184240846493 L -56.61585253946026,-2229.6403460567935 L -58.820100271233194,-2266.393736941887 L -53.233566072300235,-2266.760428885246 L -55.48615432056433,-2292.447798525571 L -51.15901290737615,-2295.0365705046665 L -38.36320882402599,-2295.7255045652005 L -34.29437392640381,-2293.8256376790523 L -32.695780976013204,-2267.916048573596 L -4.997208028763253,-2269.2716028153627 L -7.65327696015806,-2304.9695139521455 L -45.750116983941425,-2303.4805603734185 L -45.63707494660822,-2300.691835310942 L -62.324108491441756,-2300.0584046342187 L -68.37890939740134,-2299.8250259181486 L -68.49196099424967,-2302.6248610600273 L -76.29861786929031,-2302.11369552245 L -161.72778056137147,-2297.9124244096997 L -299.46213505060217,-2291.941368697043 L -338.9635418317502,-2290.3173603221353 L -338.42195471792667,-2276.60707777197 L -337.5002506795092,-2249.2531662651713 L -361.19449092913544,-2248.440867726161 L -470.53498087506415,-2243.556591655983 L -552.8227055611811,-2238.761701349519 L -553.1785170440504,-2246.0279145477607 L -560.113249603947,-2246.2717688859475 L -563.576554350481,-2246.0937112238717 L -600.1471066765122,-2244.246200185158 L -605.0710302954573,-2237.5017067290155 L -617.3081438172838,-2220.6904607232627 L -652.8613492286474,-2218.853866090126 L -647.1184888704671,-2104.394421848949 L -646.64969316411,-2098.4725891421626 L -651.8727622833252,-2097.949891403398 L -651.7022445709981,-2087.7838321971067 L -610.9104966176426,-2089.8542203660127 L -608.2138619291014,-2086.399110831279 L -604.9298395826135,-2014.8146749123305 L -650.9684180515306,-2012.8882514433903 L -602.8057808274959,-1914.6873317577017 L -606.9133505787458,-1899.365624780707 L -658.0111409465648,-1882.0951348216786 L -689.4121209432066,-1869.3704915441883 L -735.5279257373312,-1844.8781149783536 L -728.5903208808049,-1814.4472949840579 L -724.2590973898697,-1773.9945403390843 L -708.4533563098946,-1774.862846216345 L -706.1719283151633,-1727.399152578485 L -696.7585557128153,-1718.0117887879605 L -564.4851163481536,-1722.9795034929589 L -520.3778172776832,-1725.0940624381585 L -519.9893303835291,-1712.0392878768066 L -552.7226694547536,-1710.9145109884332 L -551.3724008278434,-1684.3605929879145 L -571.1624725734571,-1645.8611467548908 L -582.7603817170383,-1623.2947765624144 L -586.2309611057154,-1617.683684631287 L -595.3195855639848,-1609.4833537854845 L -602.6809444432671,-1603.6608075172662 L -611.5598293716955,-1597.4048063210653 L -621.7302720791313,-1591.3597726467422 L -628.3089554851584,-1589.5037099894198 L -647.4954780029619,-1577.7692229525408 L -660.1524454914002,-1575.2903525130482 L -661.6627142753802,-1583.067535831661 L -666.2234077624606,-1582.0226994806785 L -673.9355898049077,-1614.097867761048 L -691.331125293825,-1612.6184031602656 L -698.9113659478865,-1616.4951724871958 L -699.5579562957087,-1624.2613262816205 L -702.0119155038129,-1624.1944068856224 L -705.0573605198058,-1645.148440503676 L -774.8568293891738,-1631.6748412702134 L -753.6808699739147,-1538.4937058373814 L -801.514893001912,-1525.4333479683594 L -811.5830770443787,-1543.831083828827 L -792.4768527942191,-1548.7330895337373 L -803.251043400268,-1598.1400882716061 L -811.6621438742425,-1596.8280390827185 L -821.1285342077937,-1643.7130860135203 L -828.8210659543748,-1640.8678580396088 L -829.580180398997,-1643.4565044585038 L -833.7049940357077,-1642.4782710254788 L -853.7396620843283,-1636.7538553389713 L -857.4044054682672,-1636.2200848399048 L -855.7324424332138,-1628.36519358979 L -982.1561909254642,-1600.9049907326623 L -997.2829349340135,-1596.780771233188 L -993.9141947258696,-1579.093396140194 L -999.9600177197835,-1577.3703733662653 L -977.5609024649788,-1475.1906330627048 L -976.8177790975997,-1471.8131565167826 L -991.6619181082202,-1469.0777995669462 L -980.8132832616926,-1415.471343572476 L -980.1101690842653,-1409.6606665967265 L -978.8979072955053,-1399.6503032309606 L -1067.3881303988787,-1381.004523916161 L -1078.7946741507096,-1436.4884237586477 L -1105.7623768535764,-1430.7065809397427 L -1114.0942551173835,-1440.0268917128828 L -1118.8810907672723,-1440.7371649176318 L -1123.8778059841386,-1441.480730940935 L -1125.1782898642682,-1446.7579894033997 L -1187.718202591285,-1433.881266670668 L -1201.1290417283315,-1496.7863964847786 L -1202.3973126934536,-1502.0858662361939 L -1204.3426133656383,-1501.6522084246358 L -1206.0794163684247,-1508.8737055891854 L -1210.309065897067,-1508.0952098704745 L -1216.6373497504792,-1506.6830337652061 L -1214.4638671395978,-1495.1840850931505 L -1260.206683875548,-1485.6872942754387 L -1237.3998575977737,-1381.0641779484527 L -1230.6243054684242,-1363.7775208666767 L -1227.111887238925,-1357.6451805958227 L -1186.4471643434815,-1367.2075136000324 L -1176.7525293299818,-1319.9452450972053 L -1174.096174705046,-1315.9348278550485 L -1149.6189780250697,-1202.9343739343317 L -1130.3443771631728,-1111.5872667826043 L -1125.0381916328402,-1093.011431516655 L -1117.3292876389628,-1089.9573380998327 L -1106.0865729511665,-1096.2810679504496 L -1101.3263738261091,-1108.8033664562843 L -1085.9587466860726,-1113.550050263695 L -1078.8374444616938,-1100.4186091849112 L -1075.9949638154533,-1092.5195124396016 L -1104.4050723934167,-1080.4822376700126 L -1084.5647188322735,-1028.4106384746792 L -1075.2858247055212,-999.1471164683023 L -1156.0877909227518,-1035.1205263483553 L -1185.2013709389298,-986.6848376060989 L -1200.8914942787137,-981.9267569551862 L -1250.2622427113863,-1011.6938294680226 L -1307.8438731141644,-1008.6607889510725 L -1322.462729963366,-1015.4575372079903 L -1341.6294497202175,-1040.0412305457257 L -1369.5655002994554,-1081.5110174478166 L -1378.653095238305,-1076.4983261736234 L -1392.8390388435823,-1096.4498218209342 L -1436.3554150453044,-1107.0067071314745 L -1469.043334920051,-1096.9668558483513 L -1469.5834247076757,-1093.733586748621 L -1474.9991725109398,-1092.3324761780443 L -1478.3574404440749,-1094.4871700960537 L -1520.6666097109567,-1084.5227111488286 L -1344.2407058664835,-859.4841983970947 L -1335.3277614359909,-848.4977077036152 L -1311.2079878623551,-834.9032325628909 L -1253.6760648930908,-793.6387764930159 L -1260.212086629326,-784.6158337323318 L -1261.5999812254736,-782.7045685156392 L -1316.4211495726174,-707.0315900739449 L -1337.9651915512623,-677.2956508272129 L -1348.8417878476735,-661.0499327422527 L -1351.2297014095263,-655.4386536477132 L -1353.855750845068,-590.1084314588629 L -1346.4061489188316,-589.8210593981958 L -1346.83860309917,-572.9996866942166 L -1319.558355334687,-571.4940864512909 L -1319.775294046559,-566.52765344518 L -1310.8971710115866,-566.318296519159 L -1309.8907860570464,-537.7534154922032 L -1310.2090734975288,-514.4768692399207 L -1310.5544305891938,-505.8217270014165 L -1277.2132714624277,-504.6282305770921 L -1268.069600231322,-508.16310396024784 L -1196.940011862865,-504.64304791565104 L -1186.9966403185724,-504.5781534423599 L -1118.0383988331112,-502.2123664224457 L -1120.3192734463682,-434.8379466594251 L -1121.2367005053611,-419.016447968938 L -1127.7337533590103,-419.3375622026485 L -1127.299344565858,-427.74828025838326 L -1163.9975526276135,-428.93082983666375 L -1168.2173875852827,-422.0304780048394 L -1296.8024405408976,-426.75101182085507 L -1302.3213062726172,-418.6615009942174 L -1316.6067997754994,-419.514217908005 L -1317.6860836554852,-408.30351576963545 L -1361.1474001974314,-408.7725809316328 L -1370.4478242231023,-186.00520794990837 L -1374.5300318365416,-60.755697481427944 L -1372.962972482538,-53.8897285708301 L -1369.354370091675,-48.268552914170826 L -1363.5507169944765,-43.03668983012219 L -1354.4146103546232,-40.72755809675933 L -1336.013954961504,-39.44243351242783 L -1336.1259939493386,-34.69822673111756 L -1337.0427056797416,-18.121174320873283 L -1337.0930528996055,12.677149517886273 L -1351.998944890462,12.313493595465449 L -1354.8800528306285,12.236301955190465 L -1377.428688833888,10.99652241501224 L -1378.2961255349278,31.19559566307575 L -1375.503324025272,33.58378007884446 L -1363.0589368191465,33.80344740098696 L -1363.0824718834606,37.12549273564223 L -1363.380081308536,41.991953836094325 L -1376.0423706248462,41.67233731755577 L -1378.8502875922998,44.2505513178741 L -1382.0950559178384,119.9470856464697 L -1382.6725562151776,137.15737722078 L -1392.6956766378432,137.10390026796222 L -1401.9440734553398,137.00583416157986 L -1396.6125342425787,7.300695490725919 L -1397.5260389475088,-0.18759305132341275 L -1408.714856206514,-16.262147825070066 L -1414.3970162511234,-19.36078117435169 L -1421.1764375206876,-21.00370125811539 L -1427.9555235690325,-21.057812689462164 L -1431.4983328257636,-20.757073272761396 L -1501.595612249963,-13.719895415741565 L -1526.4354654306526,-11.147757337772092 L -1529.8253739832753,93.25841844407661 L -1534.9258122199826,92.91515911321581 L -1594.2252746856773,94.1400489836738 L -1591.1929258752696,221.48794482650703 L -1588.5492810701571,275.53993565195975 L -1584.0054313652004,277.4720883980737 L -1583.5753259521025,287.6158804521859 L -1587.6822695703895,290.4167002668431 L -1584.1617871733752,367.0783771674395 L -1580.1855450619396,391.9760903326612 L -1577.0107501137893,406.2190161598085 L -1574.2402544869171,417.0733331395518 L -1554.5606843139667,475.1322679150158 L -1538.8886726689402,512.871058266653 L -1533.2620796234469,521.7137359895265 L -1527.346006564303,526.1121476997746 L -1519.4050228811482,528.0102399735318 L -1510.3913419967153,527.4082345444072 L -1497.8596995556486,524.9499984179141 L -1488.741978278986,520.4259881079338 L -1479.2855266226156,514.9575219394959 L -1456.008345099053,497.2422679586499 L -1443.0817132226339,492.4508411765868 L -1427.7409874267946,493.43639052851273 L -1419.363970341997,496.5566646395389 L -1410.5668151360194,502.15450488245995 L -1403.5846566335413,511.0858901884652 L -1398.9097015252146,523.5731279961168 L -1389.8800627295527,522.0157773246435 L -1368.9964700434507,636.983066768439 L -1404.493719192009,640.0013623615491 L -1405.3463024305809,691.7654282496593 L -1388.1862007922614,713.0607087429474 L -1402.6381768018487,714.9525059680283 L -1398.9402750750828,802.3026106872819 L -1398.2815071088405,826.9900421730176 L -1400.227225358547,860.7442009753997 L -1405.4079812784364,897.8433059472233 L -1416.1147897147885,940.9765946614236 L -1427.251442651929,973.2216854109646 L -1440.236457214601,1002.4562423313656 L -1456.3519213647312,1032.7581154657298 L -1469.1128193533757,1052.6042918834357 L -1483.398923145044,1071.373110140459 L -1582.1681637583456,1188.8228184483582 L -1629.1154550624333,1244.4755737914759 L -1691.105533595712,1318.453699956119 L -1739.6814924333696,1371.7411107126914 L -1783.8655946094996,1401.3845047771558 L -1821.6844213950978,1426.5266941942928 L -1847.5473817988513,1444.366173539315 L -1848.6848374718336,1445.13311373718 L -1850.6612727339932,1446.4447016964825 L -1853.0733417306092,1448.0008423445147 L -1847.8276732485315,1452.0102942440283 L -1763.502522868476,1515.9842139849923 L -1796.4582184542985,1561.101720172315 L -1873.8289526606522,1667.0618263954152 L -1856.6755234818058,1667.9125617160807 L -1856.1875412037377,1681.9339180034572 L -1855.6995486421665,1695.999716755449 L -1896.702102764162,1697.2000262092406 L -1918.7115119196055,1728.160237587751 L -1945.9682411866918,1775.8656191921964 L -1935.146948221697,1782.395478722734 L -1894.4027266847834,1811.0601226055037 L -2073.1750509437866,2075.3216228633437 L -2047.3044834479338,2118.7114337075113 L -1959.4612515360755,2261.9778108979945 L -1945.5005260286625,2275.117513477652 L -1927.7452314368381,2298.2556407678658 L -1885.2757656152203,2305.243196224904 L -1817.3424480617568,2263.282124921145 L -1760.2272930520346,2220.0801985617136 L -1681.4790103270914,2156.452124165177 L -1624.4754210079952,2111.5848097652542 L -1594.9386306561212,2080.745966459739 L -1556.3255587585775,2048.6052072462035 L -1524.737367346486,2024.6658443259792 L -1484.920227621527,1998.3471472548713 L -1434.2922604909154,1969.659820345132 L -1419.682750017044,1962.5348543447471 L -1406.4854816135817,1953.5880886209354 L -1338.7676160027897,1890.7108007820345 L -1243.5616918204732,1821.2071665594642 L -1222.0250907474249,1836.6690675896045 L -1176.9122565108955,1814.3399270673915 L -1166.2551086280569,1809.549423177866 L -1154.1387130315186,1798.381238214666 L -1143.4251299276195,1793.1018975443703 L -1117.6853465819388,1759.1882055515837 L -1115.136096770021,1757.4100954272526 L -1081.4939437048963,1743.9163930481072 L -1029.126712143079,1721.3759838028589 L -987.1392387060022,1724.1806304802055 L -898.1485053470005,1710.8465809941335 L -888.1351674842442,1715.7561014397695 L -868.0941168098457,1712.32032016989 L -866.8184969741544,1718.7975954276935 L -840.6849382947217,1723.2384781978 L -806.3398363409544,1718.361977341537 L -767.3782288880658,1712.8302222000661 L -749.5807390910157,1703.4953601825766 L -751.0986213123151,1694.1182410382376 L -749.5255093016065,1692.34037973718 L -718.4713317397835,1687.0483643072478 L -581.9265705759707,1656.7366929311788 L -579.9650787191306,1667.0582066012635 L -535.2912107092212,1663.632444608496 L -492.8711272244404,1652.0158077638528 L -443.5321241864718,1638.5048304110815 L -420.73180319552955,1626.181780947669 L -423.1610234885386,1615.9046929782746 L -282.7809842785679,1585.7544281715284 L -212.0454757504053,1583.2408362069934 L -215.05594624090807,1553.3536068625615 L -208.54504135364462,1543.1206033544356 L -213.76724342953773,1482.9572539173375 L -222.37175917374594,1378.15192815814 L -137.3202945202523,1373.9943082178922 L -81.80894019342024,1297.5418720274085 L -99.66530717880228,1280.8318841694706 L -27.054942778500102,1183.025254143589 L -203.92879769304284,1048.8798594102984 L -237.49451348648947,1090.7009671737358 L -318.0420545246485,1029.4742244822964 L -297.96742747753797,1002.5414003469876 L -281.3621683078625,980.2529795125917 L -235.20803606404263,944.9864117134177 L -161.3533516207918,846.7450236727468 L -141.05951275020954,827.5567024284886 L -70.83333859523235,734.5383497873665 L -7.714307666910977,781.9354405667506 L 50.57932493175201,705.1397430371906 L 150.65497328347564,780.5260942098046 L 154.37489068185482,783.0482660750791 L 207.23937331249465,714.58669468945 L 238.6282140290641,750.6191405827016 L 257.56038988153335,714.9773080106701 L 293.1638354248736,690.3912015953248 L 288.78242268870736,683.213618872107 L 286.5152151901514,675.8250293846692 L 286.78183352253507,668.2254489494782 L 288.1862159509763,661.4814270444119 L 297.9259493632142,665.0483280803139 L 299.443124145297,662.6151930888524 L 302.7437090692978,659.1155294239447 L 307.12556056240345,656.7380788063554 L 313.6215667601244,655.6606598270522 L 319.95604579362777,657.4941941296476 L 324.87827896396936,660.9498008832264 L 328.0171342781822,664.6719760641539 L 329.4774992055359,669.0384798370708 L 329.96136911460655,675.1270655392358 L 357.9937076802286,695.0274362519592 L 358.3162586942725,699.2827806739529 L 373.30062202305123,710.44966625379 L 378.11815124987635,709.2055586892902 L 383.09720971520136,705.5393715518829 L 392.0787868166964,700.7957011921059 L 400.1968087349746,698.3185363067525 L 438.9384071499034,696.4877271822376 L 439.47935115518453,692.0657777567469 L 472.0588010875889,649.3591764502264 L 473.7859751354294,645.159524068163 L 474.1172226254259,639.5487379820142 L 465.34776203297656,609.0275424287187 L 468.7057878885484,593.5063895687838 L 511.2449637260521,536.0237081976002 L 512.1088286987567,530.6351758408724 L 510.4872625217332,524.9131384776683 L 479.0737401476131,501.1454345537245 L 690.746651734778,220.2902432443898 L 725.2434060124425,244.7703343583029 L 725.6953889362526,244.19263692674804 L 729.6574369800555,247.18179354905098 L 736.4210827850709,238.23857531655423 L 732.4348248445643,235.2271910789908 L 732.8706714249433,234.62727136286858 L 729.4734729839511,232.06037361968103 L 750.7330691692899,203.86425604145802 L 754.1383450674383,206.42005485806163 L 754.5984006194232,205.86458132557738 L 758.5765997946141,208.8426461803436 L 765.2999725810524,199.8994530717832 L 761.3621251902431,196.88805733300856 L 761.7656978573032,196.2770253579046 L 758.3846311735398,193.71011495078022 L 779.628330444041,165.51408891772329 L 783.0578212160679,168.10323660446787 L 783.4856000987769,167.55887182579386 L 787.4799519853702,170.51473453904495 L 794.1872707956687,161.49379552416693 L 805.0314944775063,144.67150074481538 L 806.2781995173738,145.62943763732926 L 815.4553980905839,133.58676049914752 L 815.858875345431,133.83124072075793 L 816.6254655304299,134.4313013702667 L 815.0918971707144,136.41989507054606 L 816.3426546922485,137.35332975208047 L 820.7808387879583,140.54258685907772 L 826.1227921895979,144.38747808724585 L 829.1084739718938,146.53217434690816 L 830.0445134776893,147.29891508989306 L 832.0537715034693,148.93240854669403 L 840.4481027575317,137.73406679585622 L 846.0016729155229,127.30200136340092 L 849.4651747275639,116.19193464478522 L 851.4678734801547,105.97052450344374 L 853.4141719332237,95.08247767611476 L 854.0687194041478,88.31626392694841 L 851.0746108170717,88.83807669842322 L 845.8692219855985,89.73736847729705 L 831.9772244024194,92.8364579166622 L 832.9406609714507,88.56796091713372 L 835.8064339679852,83.78087558667751 L 835.5325835740109,77.08449909546992 L 844.8995561284693,35.584650495733335 L 913.8999035183787,-20.936533392901566 L 960.0942351093281,-19.41904613337718 L 1022.729754135697,22.13239016997529 L 1081.8239511757924,-50.443243671322165 L 1033.4956632718615,-83.582386876144 L 1155.3864494316722,-244.34252481139114 L 1131.0206560127106,-288.2220383099941 L 1078.9754250558626,-403.2687025111804 L 1069.5243709018894,-452.8230262131874 L 1080.4952790491616,-469.12036208675653 L 1112.842179946032,-510.9127479579736 L 1136.6080529815074,-540.9515340154879 L 1162.4407630948729,-573.5897315179684 L 1316.194133480112,-784.0162176816089 L 1359.391614263886,-812.065041772842 L 1391.73368429964,-787.6896396204593 L 1407.7514754509061,-808.7851125056054 L 1383.0643619342354,-827.4359221323919 L 1417.187353844955,-849.5919471922937 L 1460.9156999101333,-765.9427998014327 L 1462.8297162067904,-766.7542548333129 L 1464.167944256389,-763.8422075994262 L 1471.8767679735902,-767.5180910651458 L 1471.5460624020707,-768.4958867411965 L 1472.0626697124446,-768.7179830792115 L 1471.6028830087596,-769.9624588623318 L 1483.7446511488097,-775.6211785285074 L 1505.160330846382,-784.7003017758328 L 1508.1593239901435,-778.1649839582411 L 1536.6295744828756,-791.2133415985818 L 1534.1770882617902,-796.3469493139817 L 1542.2815053051545,-800.1337659472184 L 1542.1673662463027,-800.3891212388739 L 1709.8349551710082,-871.4668911359677 L 1806.8648641773339,-916.9722118139252 L 1974.9680436598765,-999.1646035749075 L 2029.0956710708256,-1026.20246692831 L 2052.296612549982,-1037.1170095382217 L 2049.432985649944,-1042.917558815886 L 2052.921439917128,-1047.9495407709974 L 2074.147840544374,-1068.1751977708266 L 2072.6976236356277,-1102.9070192042789 L 2062.378395722948,-1169.628653001204 L 2051.176726166767,-1228.473202549686 L 2046.4118941849147,-1246.78473205226 L 2044.1925347552547,-1248.0520041240006 L 1984.6681044180582,-1401.6833849531715 L 1978.7721280831367,-1417.4286755913295 L 1971.7709328705735,-1435.474154725238 L 1973.635905455538,-1436.6068745616667 L 1928.5817387172772,-1562.4350246418883 L 1904.5135635828349,-1658.491957962156 z M 818.1269373520831,130.94278592244373 L 820.3707854323261,128.09877096022052 L 815.858875345431,133.83124072075793 L 818.1269373520831,130.94278592244373 z" /><polyline fill="none" stroke="#66cc99" stroke-width="33.193531513274756" points="-492.8711272244404,1652.0158077638528 -463.103402545576,1674.4598341951241" opacity="0.8" /><polyline fill="none" stroke="#66cc99" stroke-width="33.193531513274756" points="-806.3398363409544,1718.361977341537 -801.5752457603244,1748.3212678442453" opacity="0.8" /><polyline fill="none" stroke="#66cc99" stroke-width="33.193531513274756" points="-1856.1875412037377,1681.9339180034572 -1889.6543411496318,1683.387642930345 -1893.9387359220261,1682.8888787674382 -1901.2092885375046,1679.235572929951 -1918.7288948557987,1667.4634034370704 -1920.9158227713226,1665.9974398845195 -1923.804814681353,1664.109478396231 -1941.0661597866606,1652.870598940416" opacity="0.8" /></g></g></svg>