<svg xmlns="http://www.w3.org/2000/svg" xmlns:xlink="http://www.w3.org/1999/xlink" width="300" height="300" viewBox="-509.6877334637807 -397.5794883360072 1019.4172329880612 795.1773930342827" preserveAspectRatio="xMinYMin meet"><g transform="matrix(1,0,0,-1,0,0.01841636226816945)"><polyline fill="none" stroke="#66cc99" stroke-width="6.796114886587074" points="471.35960449201787,-333.6543557783662 471.4823447248564,-333.80089250095284 471.6050849630787,-333.94742921787457 471.72782520663753,-334.0939659362125 471.85056545558047,-334.2405026503018 471.9733057099078,-334.387039364391 471.7155728471413,-334.3870575133901 471.45783998439015,-334.3870756538919 471.2001071216223,-334.38709378306373 470.94237425886973,-334.38711190232203 470.68464139610046,-334.38713001166667 470.6416945975678,-334.51069087746725 470.598747797451,-334.6342517446841 470.55580099576594,-334.7578126104847 470.5128541924806,-334.88137347628526 470.46990738761104,-335.00493434066965 470.4269605811731,-335.12849520222153 470.3840137731359,-335.25205607510327 470.3410669635293,-335.3756169338227 470.2981201523393,-335.4991778024558 470.2551733395488,-335.6227386654239 470.2122265251738,-335.74629952555955 470.1692797092309,-335.86986039136013 470.1263328916873,-335.99342124866337 470.0833860725602,-336.1169821158802 470.0404392518644,-336.24054297459963 470.0082250537659,-336.2750264992051 469.97601085536735,-336.3095100181457 469.9437966566213,-336.3439935385025 469.9115824575439,-336.37847706027554 469.8793682581345,-336.4129605763836 469.847154058394,-336.44744409815667 469.81493985832134,-336.4819276142648 469.7827256579335,-336.5164111346216 469.7505114571818,-336.5508946521459 469.71829725613077,-336.58537816967026 469.68608305473197,-336.61986168861085 469.653868853002,-336.65434521180015 469.62165465094006,-336.6888287293245 469.5894404485468,-336.723312248265 469.5572262458215,-336.7577957629569 469.52501204278093,-336.79227928048124 469.49279783937675,-336.82676279942183 469.460583635657,-336.8612463183624 469.42836943162166,-336.89572983588675 469.39615522723875,-336.9302133534111 468.4296344027781,-336.61240687144715 467.4631136700088,-336.2946002506926 466.49659302894673,-335.9767934854825 465.53007247956094,-335.6589865913954 465.53007247956094,-335.6589865913954 462.9527433626827,-335.659165158286 460.375326885003,-334.3878462647846 459.0866625710408,-334.3879346814966 458.1661379591692,-333.65527090146105 456.5092473159582,-333.11661429812034 455.22058324649777,-333.1167019713111 452.8886639488261,-332.36258241053133 451.56931754997447,-332.3626714546336 450.24988426362296,-331.0697129776918 448.86915658004517,-330.8219715558448 447.4884289985691,-330.5742298450867 446.19976541803305,-330.5743157833946 444.9110841890655,-330.30860842302303 443.622403062317,-330.0429008119786 442.333722037788,-329.77719295734244 441.0450274031366,-329.3031605750294 439.69494540753533,-328.48431936220027 438.09942948167867,-328.05340811097705 436.50391376108996,-327.62249648020395 434.908398245721,-327.1915844684648 433.31288293558833,-326.7606720771757 432.0242200884833,-326.76075528923906 430.66392792413444,-326.186155178761 429.3036359930822,-325.611554786453 427.943344295343,-325.0369541208124 426.58305283094876,-324.46235317617436 425.2227615998355,-323.8877519582037 423.86247060205153,-323.31315046265183 423.0033393509492,-322.94684135624885 421.7146772373437,-322.94692258558894 420.4260151237225,-322.9470035656724 418.5850113568903,-322.0204349344578 417.84861160540845,-321.6756682892119 416.5599497362775,-321.6757485271903 415.2712090651946,-320.4043320128924 413.3075541482559,-320.72771525104224 411.9882100403383,-320.7277965016258 410.66878668295794,-319.4348302000082 408.8279009419164,-320.404728243144 407.5391619824988,-319.13331024038735 406.25050060231916,-319.1333884956425 404.9618392221245,-319.13346650305726 404.0719894395802,-318.14218396374395 402.7526458407404,-318.142263395887 401.095778969402,-317.86220253665556 399.80711783370026,-317.8622795512925 398.7945380861337,-316.8494528400151 397.22972018379716,-316.5909363283603 395.94105929255596,-316.5910126008922 394.6523984013161,-316.5910886255837 393.36373751006164,-316.5911644010186 392.19782136446605,-316.84984220721174 390.84778807428626,-316.7206163625369 389.4977548362112,-316.59139024311315 388.2397913312922,-316.8500727101222 386.92050647568647,-317.8630360763526 385.60110464243434,-316.8502250809897 384.3431842039329,-317.86318440671323 384.3431842039329,-317.86318440671323 383.0545957565465,-319.1347547024446 381.64322190536285,-319.43654627815937 380.3238780516623,-319.4366212930782 379.18868357002737,-320.4064711008054 379.18875552493745,-321.67796760665766 377.90009365536497,-321.67804040942383 376.3660643797182,-323.31598664774356 376.36613700947197,-324.60903393369324 375.3229835800767,-325.49267475358596 375.04686451247034,-325.9021551837185 375.0469368876214,-327.1952024625871 373.7276636267663,-328.48832345485823 373.72773574731457,-329.7813707238132 373.72773574731457,-329.7813707238132 372.7460120347428,-331.85030104586315 372.4085335885995,-332.3675387173717 372.4086054545453,-333.6605859849104 371.4574891841849,-334.39336556448256 371.0894020228031,-336.24675369947147 371.4576301595617,-336.93635850962426 371.08954524548886,-338.83284821047295 371.08954524548886,-338.83284821047295 369.77026892936124,-340.1259683997412 369.77034028610154,-341.4190156502852 370.16931657122194,-343.2939121350934 370.1693868143725,-344.5654085857127 370.1693868143725,-344.5654085857127 370.16945705752306,-345.8369050377482 369.7706257130605,-346.59120461280645 368.8809305388848,-348.37996899978884 369.77076842653935,-349.1772990841535 369.7708397832786,-350.4703463148702 370.16973803012394,-350.9228908189817 369.77091114001763,-351.76339354275444 369.7709824967563,-353.05644076355753 369.77105385349506,-354.34948798719313 369.77105385349506,-354.34948798719313 370.16994875957306,-354.73738012693633 369.7711252102335,-355.6425352051637 369.7711965669719,-356.9355824203019 370.1700892458718,-357.2803729871041 371.09054780427226,-356.9355094815776 370.1700892458718,-357.2803729871041 371.090619415613,-358.22855669813197 371.45882845023937,-358.55179809934 371.45882845023937,-358.55179809934 371.4588989379249,-359.8232945216346 371.2747949783025,-359.672449215328 371.09069102695344,-359.52160391043765 371.4588989379249,-359.8232945216346 371.4588989379249,-359.8232945216346 371.4588989379249,-359.8232945216346 371.4588989379249,-359.8232945216346 371.2747949783025,-359.672449215328 371.09069102695344,-359.52160391043765 371.4588989379249,-359.8232945216346 371.09069102695344,-359.52160391043765 371.09069102695344,-359.52160391043765 371.09069102695344,-359.52160391043765 371.09069102695344,-359.52160391043765 371.09069102695344,-359.52160391043765 371.4588989379249,-359.8232945216346 371.4588989379249,-359.8232945216346 371.09069102695344,-359.52160391043765 371.09069102695344,-359.52160391043765 371.09069102695344,-359.52160391043765 371.4588989379249,-359.8232945216346 371.09069102695344,-359.52160391043765 371.09069102695344,-359.52160391043765 371.09069102695344,-359.52160391043765 371.09069102695344,-359.52160391043765 371.09069102695344,-359.52160391043765 371.09069102695344,-359.52160391043765 371.09069102695344,-359.52160391043765 371.09069102695344,-359.52160391043765 371.09069102695344,-359.52160391043765 371.09069102695344,-359.52160391043765 371.09069102695344,-359.52160391043765 371.16431852014017,-359.32764274991763 371.23794600906353,-359.1336815865651 371.3115734937077,-358.9397204217963 371.3852009741054,-358.7457592641087 371.45882845023937,-358.55179809934 371.45882845023937,-358.55179809934 371.45882845023937,-358.55179809934 371.45882845023937,-358.55179809934 371.45882845023937,-358.55179809934 371.45882845023937,-358.55179809934 371.45882845023937,-358.55179809934 371.45882845023937,-358.55179809934 371.45882845023937,-358.55179809934 371.45882845023937,-358.55179809934 371.45882845023937,-358.55179809934 371.45882845023937,-358.55179809934 371.45882845023937,-358.55179809934 371.45882845023937,-358.55179809934 371.45882845023937,-358.55179809934 371.45882845023937,-358.55179809934 371.38518664046904,-358.4871498236303 371.3115448321193,-358.42250153942325 371.23790302520706,-358.3578532637136 371.1642612196995,-358.2932049795065 371.090619415613,-358.22855669813197 371.182671670935,-358.30936704914205 371.2747239284934,-358.39017739873594 371.36677618825644,-358.47098775257854 371.45882845023937,-358.55179809934 371.38518664046904,-358.4871498236303 371.3115448321193,-358.42250153942325 371.23790302520706,-358.3578532637136 371.1642612196995,-358.2932049795065 371.090619415613,-358.22855669813197 371.090619415613,-358.22855669813197 371.090619415613,-358.22855669813197 371.090619415613,-358.22855669813197 371.090619415613,-358.22855669813197 371.090619415613,-358.22855669813197 371.3544897139982,-358.2285420797965 371.6183600123668,-358.2285274501312 371.8822303107348,-358.2285128105523 372.1461006091183,-358.2284981596435 372.4099709074852,-358.22848350023736 372.4099709074852,-358.22848350023736 372.4099709074852,-358.22848350023736 372.4099709074852,-358.22848350023736 372.4099709074852,-358.22848350023736 372.4099709074852,-358.22848350023736 372.2197424233882,-358.29314642968825 372.02951393560414,-358.3578093577229 371.83928544414835,-358.4224722744277 371.64905694903763,-358.48713519254875 371.45882845023937,-358.55179809934 371.6490712928581,-358.7457446344434 371.83931414647316,-358.93969115538454 372.02955701111745,-359.1336376805744 372.2197998867744,-359.3275842000993 372.41004277342796,-359.52153071112684 372.41004277342796,-359.52153071112684 372.41004277342796,-359.52153071112684 372.41004277342796,-359.52153071112684 372.41004277342796,-359.52153071112684 372.41004277342796,-359.52153071112684 372.41004277342796,-359.52153071112684 372.41004277342796,-359.52153071112684 372.41004277342796,-359.52153071112684 372.41004277342796,-359.52153071112684 372.41004277342796,-359.52153071112684 372.21981401319,-359.581883482009 372.0295852495097,-359.64223625147497 371.8393564824027,-359.702589015276 371.64912771188494,-359.7629417677472 371.4588989379249,-359.8232945216346 371.64912771188494,-359.7629417677472 371.8393564824027,-359.702589015276 372.0295852495097,-359.64223625147497 372.21981401319,-359.581883482009 372.41004277342796,-359.52153071112684 372.41004277342796,-359.52153071112684 372.41004277342796,-359.52153071112684 372.41004277342796,-359.52153071112684 372.41004277342796,-359.52153071112684 372.41004277342796,-359.52153071112684 372.41004277342796,-359.52153071112684 372.41004277342796,-359.52153071112684 372.41004277342796,-359.52153071112684 372.41004277342796,-359.52153071112684 372.41004277342796,-359.52153071112684 372.41004277342796,-359.52153071112684 372.41004277342796,-359.52153071112684 372.41004277342796,-359.52153071112684 372.41004277342796,-359.52153071112684 372.41004277342796,-359.52153071112684 372.2197998867744,-359.3275842000993 372.02955701111745,-359.1336376805744 371.83931414647316,-358.93969115538454 371.6490712928581,-358.7457446344434 371.45882845023937,-358.55179809934 371.6490712928581,-358.7457446344434 371.83931414647316,-358.93969115538454 372.02955701111745,-359.1336376805744 372.2197998867744,-359.3275842000993 372.41004277342796,-359.52153071112684 372.477533708863,-359.32756987917236 372.5450246403579,-359.1336090415529 372.612515567977,-358.93964820393353 372.6800064916566,-358.74568737339524 372.747497411444,-358.5517265357758 372.4161074260713,-358.2284831589257 372.08471747265514,-357.9052397679133 371.7533275512272,-357.58199635707365 371.4219376617553,-357.2587529249905 371.09054780427226,-356.9355094815776 370.82664893263893,-356.4183052062101 370.5627501017414,-355.9011009195128 370.2988513116115,-355.3838966186532 370.0349525621854,-354.8666923092962 369.77105385349506,-354.34948798719313 369.11128945266086,-352.7332153317693 368.45152537007584,-351.11694260553395 367.7917616057236,-349.5006698099033 367.1319981596208,-347.884396949126 367.13192731208585,-346.5913497099119 367.131785617016,-344.0052552357324 366.3032489812468,-342.02262813327303 365.81222514692865,-340.1261856552278 364.4927365427391,-337.5401630505183 363.173178873247,-333.6610929134349 362.4367014268639,-331.8508666134285 362.43649509906686,-328.03637716809953 361.1476264124445,-324.22195727528674 359.85882747987193,-321.6790336192424 357.89496347118404,-318.1448095241422 356.57541343966943,-314.26573797224415 353.93652286398367,-310.38673594737014 352.12605442532,-306.4214862248222 349.9781589600479,-303.92170726028513 346.97108947610093,-300.0642724494521 343.3809911129481,-294.87071723747226 342.0615200760922,-292.28469003142857 339.2385638307155,-288.6211993693499 336.6610611510148,-284.8068396536047 334.14503765368323,-283.23375796220074 331.5061275018543,-278.44961375813045 328.9286955542657,-275.9067475982286 327.547785141618,-271.59665727344037 325.0624279320657,-269.54945326622806 322.2701986413798,-266.4247235879569 319.63134676455326,-262.54570776332895 317.33003512994674,-259.3778509788897 314.7526158979663,-256.8349792843574 312.17513938323805,-253.02060995523686 310.3954791046364,-250.9087151542305 306.43736975142673,-248.3228024660344 303.1542535626811,-245.3920442754391 298.52116021037125,-243.1509700453097 294.56306002251193,-240.56505030711617 290.60496288977794,-237.97912822222798 285.3275965689082,-236.68630756579722 281.24687760227926,-236.49252297244968 274.7729760878456,-236.6867487033148 268.17633828684365,-236.68701597157974 264.21840659468035,-237.9802206758438 255.4741133076832,-240.3080452112512 253.66393093069382,-241.85977093220058 247.74237702197297,-244.12282552774946 243.10948996010438,-247.0323519782494 239.15159347058005,-249.6185892977272 234.8561748822361,-251.75226949447608 230.99031728465036,-254.29539716849672 224.6392657523372,-258.67042355136425 221.96994339724193,-259.38168858935546 219.3927268847291,-261.92476672361886 215.5268575490653,-264.4678854272329 211.66094511372475,-265.7395052768838 207.79503121109371,-267.0111228973873 203.53026974552282,-269.01547726780774 198.2529340425263,-269.0156354919575 194.29496975983434,-270.3087988295329 189.75402025137794,-270.8261479215921 185.88802870797835,-269.5547596837605 181.10159300695528,-269.01612101131934 177.14355704452146,-267.72317942293114 171.8661891929556,-266.4302694589792 169.13539424351782,-263.19772043194166 163.98069840148082,-259.3833586909863 161.40330673890332,-255.56893137853982 158.6725182014736,-252.2070732919316 157.5372097997862,-249.21154018342617 154.7143770701711,-245.74192865943817 153.67114935769882,-244.12564335140743 151.09379810474485,-241.58270864876195 149.80506635708224,-237.76824757761923 146.79817437955168,-235.39772711179313 144.15946412731464,-232.81168946954386 142.84005463470166,-228.9325752933441 140.2013755120102,-227.63958354772197 136.91829725365275,-222.51056306938727 136.2432667149616,-221.17442774824784 133.6045403545957,-217.2953383886623 130.9658423231627,-214.70929546670416 129.18621983531892,-211.0672461879663 126.60886656470466,-207.25280519897788 124.36903415343157,-204.3650410030074 121.73034477840889,-201.77899439460023 117.77229180715607,-196.60687496618417 116.29954903483942,-195.80952136955392 115.01084589783157,-191.99505333622005 111.17556473690736,-188.84870234671962 109.85619394921986,-185.6376559833344 107.27888182180413,-183.09470419244676 105.99020637854818,-180.5517311311871 104.70153191341892,-178.0087578178383 102.12422467668928,-175.46580400174048 99.54691939623811,-172.92284919144853 97.98211860721295,-170.74624213650114 95.68094698673342,-167.8369182863303 92.70477085018989,-164.28107920205565 90.06609210017308,-160.40197233785608 87.94900308462434,-156.39355282535664 84.78874376578325,-152.64375543143476 81.50575987415515,-148.76465324504588 78.92847268931224,-146.2216903976435 76.87275901334448,-142.29946975400873 74.23409808539985,-138.4203565196025 71.19659585115284,-136.04980209397542 68.61930444799025,-132.23533834474006 66.31814643112959,-128.07605813433653 63.46474248843837,-125.87790469810487 59.59882461035438,-120.79195259484239 57.08290406476988,-116.43871389209782 54.44427528475785,-113.85264042487142 51.867006460803736,-110.62004157483048 48.00109708031428,-104.2625857160297 44.13521178669312,-100.44812146686483 41.25113805455263,-97.04311411149102 38.61250811990287,-91.87093881276554 35.11481655850751,-89.00470218345167 32.01597581961942,-84.11268696792767 29.377363775210753,-80.23355571764804 26.738759946150257,-77.6474711924907 22.228590507112067,-72.47529649707958 21.46154597331689,-68.59615558385646 16.184355628151184,-63.42397915214625 14.49688209316505,-61.031844545468005 9.587875453192812,-54.37265703734722 6.949288105193426,-50.493516775590315 4.187978623386711,-45.77389441604764 0.3221520184926768,-41.95940453451953 -2.2857437734530133,-37.563041403699536 -6.120880218427305,-33.05892222680244 -9.986693618349625,-29.244426317795572 -12.84002581422456,-24.63255064162746 -15.141096017919345,-20.34393695583232 -19.006896946456646,-16.529435765700388 -21.58409512009966,-13.98643372552382 -24.161286752380782,-10.171933547996987 -26.738470376094973,-5.085935227454966 -29.990642906521018,-2.6506811735854043 -33.94846113491307,2.521529505420674 -36.58700087223597,6.400687268959169 -38.33579191421364,10.172086947048038 -40.54479301275262,14.158997868968823 -42.20155402247962,15.258098876152877 -44.778722668247454,19.07260716160167 -48.460396557689826,23.21038635259701 -51.098919745799705,27.089549952423088 -53.73745024928165,29.6756666076111 -56.375972006716346,33.059163922185824 -60.241707215825826,38.145186451779026 -62.818856787700916,41.95970180563629 -66.68458197078317,47.04572812223095 -69.56853679342434,50.36458076681991 -73.127439608086,55.9462761119052 -75.70457499677555,59.76079653162043 -79.57028012775996,64.84683042363423 -82.14740842483693,68.66135337415409 -86.01311985259838,72.47589376414139 -88.0379915403137,76.22575955493511 -91.1673603072625,80.10494573089812 -94.63421169747555,83.9841381453583 -97.2726654469977,89.15636843349756 -99.91113440456233,93.03555166370029 -102.76438766652055,95.36308147154159 -106.5073448185658,99.5008940020288 -109.20717163666319,102.99216748307317 -111.7842608377494,107.25926891874902 -113.07280493468201,109.34971841628743 -115.74192866364763,113.72457699137064 -120.80411829828573,118.25033500252205 -123.38120257849137,122.0648741348963 -126.29575343663349,126.65524955783714 -128.53536233552055,129.69395544312502 -131.57262515471496,134.4136403929928 -133.68951035472014,137.32304081452025 -136.84948465177646,142.17203548392231 -138.84367298489866,143.68063279860365 -140.80713484174143,147.34431046972534 -143.99782583352047,150.03822881186403 -146.57488468171417,153.85277704918678 -148.72241689010693,157.68886757205402 -151.3608290709293,161.56807147639557 -153.9992381964973,165.44727644999148 -156.88312050221865,167.8394826910454 -159.4601651671608,171.65403600555598 -163.2337248324226,175.79188144216837 -164.6142456936624,179.28314565964638 -167.19130252838386,182.25722060813965 -171.05687853879138,186.9122921569839 -172.34537718169014,189.45532022606838 -175.10650259400475,192.60180944537058 -177.74488574988072,196.48102395728165 -180.07648519396264,199.62750387761167 -183.02164289585633,204.23945617187204 -186.51901007567437,209.79966061510274 -187.80753408918994,211.07119418655037 -190.93679254964988,214.584064071571 -194.89432059768512,221.04941999155392 -198.85191776136014,224.92868149683906 -201.98115096507942,228.8725727507011 -205.44782355005472,233.98021942256915 -208.423654021269,237.77325340014096 -212.0437115163837,243.03176397625987 -216.0012857654826,246.91103574072173 -220.0201831930525,251.76009823200587 -223.91629087193027,258.5487317747186 -229.19303413206288,263.7211041320616 -233.15054123386838,268.8934346482786 -238.05909217281956,274.64767309586625 -240.63604953715657,278.46225827273986 -245.02302587598103,284.4104404782022 -247.66138019279433,286.9966345530691 -249.65540089285415,291.17756550114774 -253.5208404542974,296.2637016053788 -256.8954059437286,301.2205162863433 -260.85291985110376,305.09981490820815 -263.49115820508473,310.27211244465593 -266.40556290015235,314.0651702163233 -270.0869447694219,318.03066663071723 -271.5594636282234,320.42286606678164 -275.4248696876235,325.5090150445517 -279.2902698780446,330.59516629537234 -283.27841739737886,334.8408433934626 -287.23584073366743,340.01320643200626 -291.1933703575707,342.59947455875505 -294.75197976338325,347.12530045410267 -298.617466152581,349.66846732656245 -302.4829496072521,352.2116364352508 -308.34255074310414,355.53072846535053 -312.30012332619464,356.82396044763817 -316.6565641508278,357.2982827819867 -321.5344740972117,359.4104946133635 -325.67615954996086,359.84171088390275 -328.1305250371602,359.41081441246536 -333.4073657888904,359.4110749281413 -340.0034167282779,359.41140641539687 -343.7156559564805,358.5711141916892 -348.86984633574855,357.29988272353825 -354.02410585765455,354.7571573610648 -357.15342488593626,354.24010397660345 -365.06890349265797,350.3613846016783 -366.90977177905285,348.4003613596509 -373.3526493366718,344.58622375423187 -379.58089447668914,338.72475319094366 -380.9001822498199,337.4317794201243 -383.53868530235764,336.1388813029439 -388.8158445418285,330.96699095695874 -392.68154959188547,329.3293548193916 -395.4121524225722,327.0882311443924 -399.36995623242603,324.5023686615821 -402.00854552672166,321.9164292476925 -404.64713685777565,319.3304908719002 -407.28565162147976,318.0376021499957 -410.7219203301779,315.3439606767513 -413.8820628017021,312.8658120165097 -415.87631452805635,311.5297852962052 -418.4535535343895,308.98695021690685 -420.478484165608,307.6940284189294 -423.11700656700344,306.4011459468519 -424.4363091065653,305.1081808249547 -427.4737432117284,302.6300308334561 -430.0509084287864,301.3586980028264 -431.032746255156,299.93640767632604 -433.67127374835246,298.64352938637836 -434.9905798522007,297.35056634917305 -436.4939500058549,296.27312365791573 -439.071202705776,293.73029657465713 -440.2678093594737,292.1787168373737 -444.22556537045125,290.8859295331809 -445.54496102619123,288.29992006259687 -448.09143248534417,287.37340510086887 -449.38006250320973,286.1019936793372 -451.95732400611166,283.55917159112505 -454.5345012048707,282.28784821808534 -457.11167938169433,281.0165258321586 -458.400312333868,279.74511616250464 -460.9775797054335,277.20229757096655 -462.69567916837036,276.6636457842272 -465.3343117434818,274.07773150560377 -466.65362879481813,272.78477475504747 -467.9729463553416,271.49181826507765 -469.99803091115183,268.30244038049216 -471.2866687539059,267.0310332147344 -471.9311753309083,263.73380492202244 -471.93135749015846,261.1477079623577 -471.9315396494081,258.56161100977414 -471.287384268809,256.85905183920335 -469.99901205423697,254.31596600630874 -469.293532410929,252.0961833534469 -468.7108167620743,249.22988513366695 -468.7109946626488,246.6868898432469" opacity="0.8" /></g></svg>