<svg xmlns="http://www.w3.org/2000/svg" xmlns:xlink="http://www.w3.org/1999/xlink" width="100.0" height="100.0" viewBox="-46.62396838217886 -25.068940277998482 93.24783846539873 50.13804218901453" preserveAspectRatio="xMinYMin meet"><g transform="matrix(1,0,0,-1,0,0.0001616330175622238)"><polyline fill="none" stroke="#66cc99" stroke-width="1.8649567693079745" points="43.17024643635326,5.086124945747713 40.83837351736237,5.840387905572057 39.51902711522836,5.840379995922423 38.199673341878274,7.133419608733065 36.81896089549961,7.381245940704293 35.43824855123462,7.629072555921703 34.149584967537024,7.629065865646883 32.86092008042217,7.894852471219018 31.572255295536024,8.160639330296487 30.283590612878715,8.426426432965672 28.994925131046685,8.900538061895563 27.644893492430946,9.719462298429324 26.049404068127828,10.150471664713772 24.453914849104663,10.581481409131872 22.858425835313408,11.012491537348549 21.262937026770214,11.443502045115109 19.974274176630406,11.44349808108479 18.614017349564936,12.018181841241564 17.25376075580028,12.592865883228287 15.893504395352554,13.167550197131346 14.533248268253889,13.742234791448125 13.172992374440183,14.316919659097469 11.812736713959612,14.891604805744302 10.953627990408945,15.257966744641406 9.66496587384968,15.257964761918132 8.376303757290055,15.257963027035267 6.5353569727021785,16.184644868916376 5.798978423800273,16.529456798145635 4.510316551762887,16.529455806784 3.221654068417768,17.800951570531257 1.2579792681137045,17.477689087309937 -0.06136484273475647,17.47768896834654 -1.3807086871858514,18.77073640441673 -3.2216540691556985,17.800951570531257 -4.5103148408396345,19.07244881848851 -5.798976223830969,19.07244980985015 -7.0876376068220885,19.072451047635965 -7.977426429195691,20.063788308695443 -9.296770030882824,20.063790009588768 -10.953619677364006,20.343952756720586 -12.242280815814725,20.343954985868038 -13.254798278219162,21.356843964569837 -14.81960028073202,21.615456703450047 -16.108261174690295,21.615459677534957 -17.396922068631927,21.61546289946028 -18.68558296257292,21.61546636922601 -19.85151501371528,21.356860261138923 -21.201540355112755,21.486169125269775 -22.55156564439155,21.615478264149424 -23.8095450549945,21.35687315592136 -25.128892200481634,20.343990921311157 -26.448231749176106,21.35688305112673 -27.706214477382936,20.344001081351706 -27.706214477382936,20.344001081351706 -28.994881117608163,19.07251003082092 -30.40627352517773,18.770805248817513 -31.72561738143993,18.770811365518814 -32.86087150189528,17.80103136947813 -32.860877737232464,16.529534862209644 -34.14953960925411,16.529541306060285 -35.683669607398045,14.89168940429773 -35.68367649311905,13.598642118348018 -36.72688426001218,12.715065446634414 -37.00302850802161,12.30560199852671 -37.00303564833073,11.012554716825688 -38.32238842702835,9.719514856174637 -38.32239582192555,8.426467584387233 -38.32239582192555,8.426467584387233 -39.30424676094528,6.3575976376772125 -39.64175701385534,5.840380719616419 -39.64176466334063,4.547333453493938 -40.59292599409464,3.8146123628421624 -40.96112712820944,1.9612468663043816 -40.59294139904491,1.271619413451809 -40.961142936356204,-0.6248476489458099 -40.961142936356204,-0.6248476489458099 -42.28049877010667,-1.917886706593935 -42.28050692876814,-3.2109339571378763 -41.88164594032498,-5.0858549738979715 -41.88165388732301,-6.357351428765915 -41.88165388732301,-6.357351428765915 -41.88166183432104,-7.628847882217628 -42.28053956341382,-8.383122928156562 -43.17034473531224,-10.1718325990577 -42.28055588073658,-10.969217400919826 -42.280564039397944,-12.262264635885227 -41.88169362231295,-12.714833669116093 -42.280572198059275,-13.555311863769473 -42.28058035672058,-14.848359087405028 -42.28058851538189,-16.14140631387304 -42.28058851538189,-16.14140631387304 -41.881717463306735,-16.529322984151843 -42.28059667404316,-17.434453531843673 -42.28060483270442,-18.727500749814304 -41.88173335730251,-19.07231584715211 -40.96125359338166,-18.72750894412635 -41.88173335730251,-19.07231584715211 -40.9612614974548,-20.02055616209698 -40.59307234111949,-20.343820208837226 -40.59307234111949,-20.343820208837226 -40.593080043594306,-21.61531663113186 -40.77717472669757,-21.46446000489162 -40.96126940152792,-21.31360337723515 -40.593080043594306,-21.61531663113186 -40.593080043594306,-21.61531663113186 -40.593080043594306,-21.61531663113186 -40.593080043594306,-21.61531663113186 -40.77717472669757,-21.46446000489162 -40.96126940152792,-21.31360337723515 -40.593080043594306,-21.61531663113186 -40.96126940152792,-21.31360337723515 -40.96126940152792,-21.31360337723515 -40.96126940152792,-21.31360337723515 -40.96126940152792,-21.31360337723515 -40.96126940152792,-21.31360337723515 -40.593080043594306,-21.61531663113186 -40.593080043594306,-21.61531663113186 -40.96126940152792,-21.31360337723515 -40.96126940152792,-21.31360337723515 -40.96126940152792,-21.31360337723515 -40.593080043594306,-21.61531663113186" opacity="0.8" /></g></svg>