<svg xmlns="http://www.w3.org/2000/svg" xmlns:xlink="http://www.w3.org/1999/xlink" width="300" height="300" viewBox="-148957.04632099255 -476719.8810148563 311512.25256858265 955022.452588306" preserveAspectRatio="xMinYMin meet"><g transform="matrix(1,0,0,-1,0,1582.6905585934874)"><polyline fill="none" stroke="#66cc99" stroke-width="6366.816350588707" points="121490.6911722321,-429689.6932268793 121404.63496843202,-429674.5415914057 121391.32469411427,-429717.78403262986 121302.84793719415,-429596.3138629712 121189.9937598816,-429628.24038061034 120703.87755719316,-429018.77006399963 120641.34657261398,-429021.8248683042 120541.06935214737,-429130.0059046402 124537.95590068604,-434186.7566025162 126852.95887193664,-437441.9398602142 127096.12354762702,-437981.35690221476 127184.00429987507,-438498.4666536776 127157.74504973365,-438987.3570708533 127023.50718070878,-439498.77272776654 126772.74080300344,-439988.0434184303 126412.33052173753,-440431.8237701968 125891.24207744116,-440848.9635227115 125418.52219485735,-441092.65587497724 124838.49312689353,-441272.05178792827 124320.16764196227,-441345.7648500108 123791.585847628,-441348.67906714126 123186.82803469541,-441254.2338705119 122634.66681798235,-441081.36882539047 122051.6926170146,-440795.2448639396 121097.31314340387,-440104.95971973677 119476.62277534997,-438766.512008169 119002.36574440538,-438256.62621684227 118514.8001734363,-437584.1690819275 118077.92892468188,-436680.76695860707 117869.27187145725,-435912.4765512614 117188.48681045549,-430349.55046991917 116888.61396382687,-429240.9809775326 116581.3201498937,-428514.08821897564 115765.48793183145,-427033.4294414407 112124.28841056743,-420756.4503468661 103705.74723917416,-406327.18071943085 101945.5613653996,-403445.35856389796 98906.90319928745,-398717.4894182557 90859.53371297743,-386007.7852923275 53533.918445805866,-326872.27839245566 52086.254000583,-324445.4268659419 51138.96720530305,-322694.3005507211 49930.4582648384,-320241.5747663115 49112.518908199556,-318401.9390688646 25548.232175766414,-262806.029960914 -12261.340783268046,-173306.49837977378 -13296.107663036264,-170682.38151412408 -14162.04698201472,-168122.90633744208 -14967.350344797893,-165316.01725179347 -23823.68173227084,-129884.9250677839 -110224.27307226014,216823.14800251325 -112377.92080688142,225519.16489149292 -112816.45991971483,227468.31151631166 -113208.6533552432,229572.1946967286 -113457.2673031523,231406.8738904061 -113562.12632934071,232934.36921734732 -113585.84437327752,234342.8822102805 -113503.67749132212,236085.948316313 -113369.08492846008,237327.99819865273 -113041.59295607875,239202.97483031775 -112646.17538263458,240766.95887806802 -112137.92127557636,242365.01517139174 -73818.68100836522,350400.88207812456 -60319.5661540328,388251.07987197675 -57618.995134634344,396036.5015719775 -52391.80135445031,410823.6381076087 -51976.33960806418,411892.1474950607 -51593.843060795334,412615.4129288011 -51260.960396427785,413128.8169895087 -50867.20212227894,413627.68018188543 -50047.18240928274,414424.85377842915 -49608.68026410446,414751.9860778027 -49063.396991268324,415077.32454117003 -48148.73961675025,415478.4423144074 -28047.39197017224,421761.5849786413 -16878.128445490573,425186.21104294277 -16090.559188101006,425365.1274140893 -15497.257841982193,425423.8372246603 -14936.509883929619,425408.4516850228 -14075.440288593478,425261.10526490014 -13262.627849956507,424932.7052941882 -12607.212579459341,424499.4577864839 -12116.683174139333,424019.5128031723 -11693.547546246202,423448.06362184 -11312.273787164548,422616.93799737864 -11136.42553415507,421840.4712304631 -11106.161591146189,421027.0874906669 -11214.041874736193,420327.95086413564 -11473.98920094127,419576.11694849073 -11866.524402313238,418894.3421304458 -12442.992524388785,418248.06399319525 -13056.426111498577,417788.4322927204 -13722.044289307429,417451.9518632469 -14548.972028936305,417217.17546080204 -15178.850058661918,417160.3564109499 -15869.76258954432,417205.3281147828 -16701.488790685522,417419.5335051762 -17486.84437962824,417800.87703519966 -18004.66856262705,418192.9240019752 -18437.175429820232,418643.2693037226 -18917.720062388093,419326.93794660975 -20909.906301497474,422538.42976898607 -21171.3505230272,423196.570155891 -21278.009871842383,423716.57340965077 -21301.080327779233,424212.3320628572 -21258.65443683917,424694.5356390181 -21179.645627670365,425050.8009364623 -20981.949493607382,425589.0362304338 -20783.798045501087,425956.0686576509 -20468.472124071646,426384.8259156781 -20196.245735691973,426673.8955245892 -19863.60362961192,426950.92842787225 -19127.635946576305,427371.06985365093 -18029.958156931196,427734.0637741905 -8776.62889249739,430000.0870612366 7231.476829438503,434115.78968878684 7698.429208607291,434287.3642756645 8195.402267094853,434606.99166944023 8561.535599382078,434979.3747621655 8855.10931921842,435478.996089454 8963.086776882994,435764.4008459949 9080.605935571271,436340.65983581427 9121.961918994824,436993.36110998574 9084.106171476285,437418.02383793925 8954.428618043354,437878.09871803323 8780.365612205307,438225.5338838595 8555.911457587446,438539.5719829041 8271.602517165587,438824.34873083385 7816.965912288521,439144.54313744704 6730.686509479709,439786.8056476284 3648.231725974253,441461.9784762671 1479.4826146611008,442543.4313772541 705.5353784551972,442797.06060666905 -200.85294695709445,442874.70763889584 -3291.0099039262063,442891.24243894906 -5287.757647024064,442833.95384822367 -6958.605070537896,442912.238848685 -10430.639242814203,442931.36962573475 -13699.000911797688,442930.1966131772 -15442.31992871036,442863.58864270675 -16540.69685696208,442902.4852204269 -22699.77484679637,442892.9838157145 -22958.627103346676,442845.7137498776 -23151.856308036928,442701.3643731788 -24156.29288701111,442696.84171924344 -24214.391252053694,442655.66655972466 -24215.839580325493,442331.9630934781 -24302.067855621925,442312.92695455137" opacity="0.8" /></g></svg>