<svg xmlns="http://www.w3.org/2000/svg" xmlns:xlink="http://www.w3.org/1999/xlink" width="127.85585674839255" height="100.0" viewBox="-63.92780264219043 -31.43670900927463 127.85585674839255 62.873799144698225" preserveAspectRatio="xMinYMin meet"><g transform="matrix(1,0,0,-1,0,0.0003811261489694573)"><polyline fill="none" stroke="#66cc99" stroke-width="2.0" points="59.19265200440981,-1.7654664410490712 59.1496976146512,-1.8890246698277093 59.1067432233245,-2.0125828943576547 59.063788830397726,-2.1361411302174473 59.020834435902785,-2.259699351914931 58.97788003982384,-2.3832575849422617 58.93492564214467,-2.5068158108884377 58.8919712428814,-2.6303740354183835 58.849016842050084,-2.7539322627807907 58.80606243961854,-2.877490483062043 58.76310803560302,-3.001048714673143 58.72015363001932,-3.1246069349543957 58.6879373151547,-3.1590884867502345 58.65572099999048,-3.193570024383764 58.62350468447871,-3.228051569098448 58.591288368635375,-3.262533112396902 58.55907205246047,-3.2970146528628934 58.52685573595401,-3.331496193328885 58.49463941911598,-3.3659777337948764 58.46242310196245,-3.4004592770933293 58.43020678444528,-3.434940817559321 58.39799046662861,-3.469422355192851 58.365774148464375,-3.503903897075073 58.33355782996859,-3.5383854432059882 58.301340845507916,-3.496361685718142 58.26912422687884,-3.4963619661318623 58.236907608249766,-3.4963622465455826 58.204690989636745,-3.496362526959303 58.17247437099162,-3.4963628059567924 58.14025775236253,-3.496363086370512 58.1080411337495,-3.4963633653680017 58.07582451512043,-3.4963636443654913 57.109325956263454,-3.49637195055978 56.14282473413983,-3.1785060010599344 55.17632360372725,-2.8606399056883047 54.20982256499376,-2.542773678607201 54.20982256499376,-2.542773678607201 51.63249344149991,-2.542794034094075 49.05515500979827,-1.271316923524135 47.76649069256801,-1.2713262338261395 46.84601105778418,-0.5386059475935219 45.1891534834878,0.0001523652024870703 43.90048941079164,0.00014379842171052815 41.56861640960782,0.7544065033244909 40.249270007479204,0.754398447803073 38.929916093216626,2.0474379189906236 37.54920361983456,2.2952640994251445 36.16849124856623,2.543090565938309 34.87982766487408,2.5430837340403976 33.591162748798354,2.8088702008219038 32.30249793495144,3.074656918276281 31.01383322333339,3.3404438793223745 29.72516768983749,3.8145553680454074 28.375135961980643,4.6334794587073835 26.779646490712512,5.064488649379198 25.184157224724462,5.4954982224333575 23.588668163968457,5.926508176453632 21.993179308460647,6.357518510023791 20.704516458326612,6.357514402954151 19.344259568638446,6.932198015822909 17.984002912251253,7.506881910521619 16.62374648918117,8.081566075720431 15.2634902994603,8.656250522749195 13.903234343024558,9.230935244526757 12.54297861992212,9.805620239636884 11.683869856450055,10.171982083646515 10.395207739896957,10.171979960716381 9.106545623343472,10.171978085626655 7.26559873777685,11.098659726402975 6.529220151301803,11.443471574907074 5.24055827927068,11.443470443338576 3.951895848013353,12.391704242205027 1.988220892301794,12.391703371223016 0.66887662227301,13.986461442578966 -0.650467174608788,13.986461439746504 -2.4914120074286314,13.986461871696932 -3.780073390413647,13.9864624750113 -5.068734773398524,13.986463326166076 -6.357396156383213,13.986464425161262 -7.247185086783701,14.977801585668347 -8.566528688464137,14.977803142106117 -10.223378365467424,15.257965710792842 -11.512039503911614,15.257967799733434 -12.524557076690094,16.270856667969223 -14.089359651130106,16.27085977517984 -15.378020594815268,16.27086260905789 -16.666681538483818,16.27086568936012 -17.95534248215175,16.27086901891899 -19.121273812152495,16.270872243676774 -20.47129956266037,16.27087623319925 -21.821325313151373,16.270880493221828 -23.079303853411822,16.270884707925017 -24.398650888514737,15.25800233027549 -25.71799443502606,15.25800726442398 -26.9759731654036,15.25801220990232 -26.9759731654036,15.25801220990232 -28.264639667064106,13.98652101916467 -29.676032041748925,13.684816082792096 -30.995375898005108,13.684822055037845 -32.13062991277555,12.715041934368841 -32.13063600955478,11.443545427100354 -33.41929788157099,11.443551729327904 -34.95342770122761,9.805699663282565 -34.9534344460427,8.51265237733285 -35.99664211664624,7.629075592320775 -36.27278632003452,7.21961211305599 -36.27279331943792,5.9265648327712 -37.59214595722547,4.633524827664596 -37.59215321121717,3.3404775558771913 -37.59215321121717,3.3404775558771913 -38.5740039247853,1.2716075001173914 -38.911514121332274,0.7543905466508243 -38.91152162991231,-0.5386567208878879 -39.86268288081758,-1.271377913508288 -40.230883812967505,-3.1247434482843035 -40.23088795332399,-3.8143686620758066 -40.230899339304145,-5.710837964950726 -40.230899339304145,-5.710837964950726 -41.15138240221845,-7.003879629879957 -41.15139034300651,-8.296926881840129 -41.151401857149175,-10.171845393287743 -41.1514096655907,-11.443341845323225 -41.1514096655907,-11.443341845323225 -41.55029044390545,-12.714835835949385 -41.55029512093008,-13.46911338861703 -41.55030621215996,-15.257828732939196 -41.55031115644316,-16.055207862796525 -41.550319174199664,-17.348255096345696 -41.55032198041443,-17.800821625680314 -41.55032719195615,-18.641302325646173 -41.5503352097126,-19.934349547865494 -41.55034322746907,-21.22739677433351 -41.55034322746907,-21.22739677433351 -41.15147213312244,-21.615313400709155 -41.550351245225485,-22.52044399230414 -41.55035926298191,-23.813491210274773 -41.15148775000522,-24.15830626370942 -40.23101009383689,-24.158311853572826 -41.15148775000522,-24.15830626370942 -40.23101578682682,-25.10654648093436 -39.862826595265055,-25.429810483771448 -39.862826595265055,-25.429810483771448 -39.86283415918318,-26.701306907482312 -40.04692885872548,-26.550450301069304 -40.231023549994866,-26.399593693240064 -39.86283415918318,-26.701306907482312 -39.86283326176917,-26.55045140006449 -39.86283326176917,-26.55045140006449 -39.86283326176917,-26.55045140006449 -40.04692885872548,-26.550450301069304 -40.231023549994866,-26.399593693240064 -39.86283415918318,-26.701306907482312 -40.231023549994866,-26.399593693240064 -40.231023549994866,-26.399593693240064 -40.231023549994866,-26.399593693240064 -40.231023549994866,-26.399593693240064 -40.231023549994866,-26.399593693240064 -40.231023549994866,-26.399593693240064 -40.231023549994866,-26.399593693240064 -40.231023549994866,-26.399593693240064 -40.231023549994866,-26.399593693240064 -40.231023549994866,-26.399593693240064 -40.231023549994866,-26.399593693240064 -40.231023549994866,-26.399593693240064 -40.231023549994866,-26.399593693240064 -40.231023549994866,-26.399593693240064 -40.231023549994866,-26.399593693240064 -40.231023549994866,-26.399593693240064 -40.231023549994866,-26.399593693240064 -40.231023549994866,-26.399593693240064 -40.231023549994866,-26.399593693240064 -40.231023549994866,-26.399593693240064 -40.231023549994866,-26.399593693240064 -40.231023549994866,-26.399593693240064 -40.15738415051996,-26.205637053329063 -40.083744755307904,-26.011680409169372 -40.01010536437476,-25.817723765009678 -39.9364659776885,-25.62376712934737 -39.862826595265055,-25.429810483771448 -39.862826595265055,-25.429810483771448 -39.862826595265055,-25.429810483771448 -39.862826595265055,-25.429810483771448 -39.862826595265055,-25.429810483771448 -39.862826595265055,-25.429810483771448 -39.862826595265055,-25.429810483771448 -39.862826595265055,-25.429810483771448 -39.862826595265055,-25.429810483771448 -39.862826595265055,-25.429810483771448 -39.862826595265055,-25.429810483771448 -39.862826595265055,-25.429810483771448 -39.862826595265055,-25.429810483771448 -39.862826595265055,-25.429810483771448 -39.862826595265055,-25.429810483771448 -39.862826595265055,-25.429810483771448 -40.01010227615905,-25.300504882636613 -40.01010227615905,-25.300504882636613 -40.08374011445859,-25.235852084901655 -40.157377951353176,-25.171199281501774 -40.23101578682682,-25.10654648093436 -40.138968492270756,-25.187362481289572 -40.046921195478404,-25.268178480228556 -39.95487389648188,-25.348994486248692 -39.862826595265055,-25.429810483771448 -39.936464436422554,-25.36515768603649 -40.01010227615905,-25.300504882636613 -40.08374011445859,-25.235852084901655 -40.157377563905264,-25.1065469227984 -40.23101578682682,-25.10654648093436 -40.23101578682682,-25.10654648093436 -40.23101578682682,-25.10654648093436 -40.23101578682682,-25.10654648093436 -40.23101578682682,-25.10654648093436 -40.23101578682682,-25.10654648093436 -39.96714548803792,-25.106548060031823 -39.703275189264986,-25.10654962921567 -39.43940489049201,-25.106551187069673 -39.17553459170291,-25.10655273501006 -38.9116642929298,-25.106554271620595 -38.9116642929298,-25.106554271620595 -38.9116642929298,-25.106554271620595 -38.9116642929298,-25.106554271620595 -38.9116642929298,-25.106554271620595 -38.9116642929298,-25.106554271620595 -39.10189674604566,-25.171205522831396 -39.29212920284837,-25.2358567740422 -39.48236166332182,-25.300508012506924 -39.67259412745004,-25.36515925380411 -39.862826595265055,-25.429810483771448 -39.67259565853246,-25.62376869711499 -39.48236471080339,-25.81772689487999 -39.29213375204588,-26.011685098309915 -39.10190278227591,-26.205643294658685 -38.91167180150951,-26.399601483926304 -38.91167180150951,-26.399601483926304 -38.91167180150951,-26.399601483926304 -38.91167180150951,-26.399601483926304 -38.91167180150951,-26.399601483926304 -38.91167180150951,-26.399601483926304 -38.91167180150951,-26.399601483926304 -38.91167180150951,-26.399601483926304 -38.91167180150951,-26.399601483926304 -38.91167180150951,-26.399601483926304 -38.91167180150951,-26.399601483926304 -39.1019042661825,-26.459942577984627 -39.1019042661825,-26.459942577984627 -39.1019042661825,-26.459942577984627 -39.1019042661825,-26.459942577984627 -39.1019042661825,-26.459942577984627 -39.1019042661825,-26.459942577984627 -39.1019042661825,-26.459942577984627 -39.1019042661825,-26.459942577984627 -39.1019042661825,-26.459942577984627 -38.91167180150951,-26.399601483926304 -38.91167180150951,-26.399601483926304 -38.91167180150951,-26.399601483926304 -38.91167180150951,-26.399601483926304 -38.91167180150951,-26.399601483926304 -38.91167180150951,-26.399601483926304 -38.91167180150951,-26.399601483926304 -38.91167180150951,-26.399601483926304 -38.91167180150951,-26.399601483926304 -38.91167180150951,-26.399601483926304 -38.91167180150951,-26.399601483926304 -38.91167180150951,-26.399601483926304 -38.91167180150951,-26.399601483926304 -38.91167180150951,-26.399601483926304 -38.91167180150951,-26.399601483926304 -38.91167180150951,-26.399601483926304 -39.10190278227591,-26.205643294658685 -39.482365853609004,-26.011683979487497 -39.48236471080339,-25.81772689487999 -39.67259565853246,-25.62376869711499 -39.862826595265055,-25.429810483771448 -39.67259565853246,-25.62376869711499 -39.48236471080339,-25.81772689487999 -39.29213375204588,-26.011685098309915 -39.10190278227591,-26.205643294658685 -38.91167180150951,-26.399601483926304 -38.84416895979272,-26.20564479444722 -38.77666612201561,-26.011688100719446 -38.70916328811406,-25.81773140557544 -38.64166045815229,-25.62377472176128 -38.574157632082034,-25.429818025201044 -39.23689977746558,-25.106552375287407 -39.23689788463092,-24.783290573273153 -39.56826796293984,-24.46002682252517 -39.89963800929313,-24.136763047701255 -40.23100802365873,-23.8134992615475 -40.494875145895634,-23.296278788747117 -40.75874222739833,-22.77905830320066 -41.022609268134715,-22.261837803491893 -41.28647626816899,-21.744617295285742 -41.55034322746907,-21.22739677433351 -42.2100084112124,-19.611083621786833 -42.869673276719865,-17.994770399844835 -43.52933782400749,-16.378457105675064 -44.18900205305927,-14.762143749191134 -44.188993526126026,-13.46909650856081 -44.18897647225957,-10.883002030132621 -45.01739140185339,-8.900324072237476 -45.50829882109739,-7.003851456798458 -46.82762867854534,-4.417747856426977 -48.14694822690754,-0.5385967265140648 -48.88331455032039,1.2716747767505554 -48.88328672357717,5.086164229160704 -50.17192125787665,8.90066322979965 -51.4605640896785,11.443665993670212 -53.42421114511469,14.978010634096789 -54.74352305583175,18.85716317882438 -57.38217551312023,22.736327185108728 -59.19240054039811,26.70168803363128" opacity="0.8" /></g></svg>